<svg xmlns="http://www.w3.org/2000/svg" version="1.1" xmlns:xlink="http://www.w3.org/1999/xlink" xmlns:svgjs="http://svgjs.dev/svgjs" width="1500" height="421" viewBox="0 0 1500 421"><g transform="matrix(1,0,0,1,0.25491573033696113,-0.7998999999999796)"><svg viewBox="0 0 356 100" data-background-color="#ffffff" preserveAspectRatio="xMidYMid meet" height="421" width="1500" xmlns="http://www.w3.org/2000/svg" xmlns:xlink="http://www.w3.org/1999/xlink"><g id="tight-bounds" transform="matrix(1,0,0,1,-0.06049999999996203,0.18999999999999773)"><svg viewBox="0 0 356.12052 99.61999177625123" height="99.61999177625123" width="356.12052"><g><svg viewBox="0 0 356.12052 99.61999177625123" height="99.61999177625123" width="356.12052"><g><svg viewBox="0 0 356.12052 99.61999177625123" height="99.61999177625123" width="356.12052"><g><path d="M0 99.62v-99.62h356.121v99.62z" fill="#db1e58" stroke="transparent" stroke-width="0" rx="0%" data-fill-palette-color="tertiary"></path><path d="M3.283 96.337v-93.054h349.554v93.054z" fill="#ffffff" stroke="transparent" stroke-width="0" rx="0%" data-fill-palette-color="quaternary"></path><path d="M9.85 89.77v-79.92h336.421v79.92z" fill="#db1e58" stroke="transparent" stroke-width="0" data-fill-palette-color="tertiary"></path></g><g transform="matrix(1,0,0,1,19.69974,19.69974)" id="textblocktransform"><svg viewBox="0 0 316.72104 60.22051177625123" height="60.22051177625123" width="316.72104" id="textblock"><g><svg viewBox="0 0 316.72104 60.22051177625123" height="60.22051177625123" width="316.72104"><g transform="matrix(1,0,0,1,0,0)"><svg width="316.72104" viewBox="2.55 -38.25 203.78 38.75" height="60.22051177625123" data-palette-color="#ffffff"><path d="M21.7-7.4L21.7-7.4Q21.7-4.8 20.4-3.05 19.1-1.3 16.7-0.4 14.3 0.5 11 0.5L11 0.5Q8.2 0.5 6.18 0.05 4.15-0.4 2.6-1.2L2.6-1.2 2.6-5.2Q4.2-4.4 6.48-3.73 8.75-3.05 11.1-3.05L11.1-3.05Q14.45-3.05 15.95-4.13 17.45-5.2 17.45-7L17.45-7Q17.45-8 16.9-8.8 16.35-9.6 14.93-10.4 13.5-11.2 10.85-12.2L10.85-12.2Q8.25-13.2 6.4-14.2 4.55-15.2 3.55-16.6 2.55-18 2.55-20.2L2.55-20.2Q2.55-23.6 5.33-25.45 8.1-27.3 12.6-27.3L12.6-27.3Q15.05-27.3 17.18-26.83 19.3-26.35 21.15-25.5L21.15-25.5 19.65-22Q17.95-22.7 16.1-23.2 14.25-23.7 12.3-23.7L12.3-23.7Q9.6-23.7 8.18-22.83 6.75-21.95 6.75-20.45L6.75-20.45Q6.75-19.35 7.4-18.57 8.05-17.8 9.58-17.07 11.1-16.35 13.65-15.35L13.65-15.35Q16.2-14.4 18-13.4 19.8-12.4 20.75-10.98 21.7-9.55 21.7-7.4ZM50.1-0.05L45.5-15.15Q45.2-16.2 44.9-17.23 44.6-18.25 44.37-19.18 44.15-20.1 43.95-20.9 43.75-21.7 43.65-22.25L43.65-22.25 43.45-22.25Q43.35-21.7 43.17-20.9 43-20.1 42.77-19.15 42.55-18.2 42.27-17.18 42-16.15 41.65-15.1L41.65-15.1 36.85-0.05 31.85-0.05 24.5-26.85 29.05-26.85 32.75-12.55Q33.15-11.1 33.5-9.63 33.85-8.15 34.12-6.83 34.4-5.5 34.5-4.55L34.5-4.55 34.7-4.55Q34.85-5.15 35.05-6.05 35.25-6.95 35.47-7.95 35.7-8.95 35.97-9.95 36.25-10.95 36.5-11.75L36.5-11.75 41.25-26.85 46.05-26.85 50.65-11.75Q51-10.6 51.37-9.3 51.75-8 52.05-6.78 52.35-5.55 52.45-4.6L52.45-4.6 52.65-4.6Q52.75-5.45 53.02-6.73 53.3-8 53.67-9.53 54.05-11.05 54.45-12.55L54.45-12.55 58.2-26.85 62.7-26.85 55.25-0.05 50.1-0.05ZM77.84-27.3L77.84-27.3Q81.3-27.3 83.77-25.8 86.25-24.3 87.57-21.58 88.9-18.85 88.9-15.2L88.9-15.2 88.9-12.55 70.55-12.55Q70.65-8 72.87-5.63 75.09-3.25 79.09-3.25L79.09-3.25Q81.65-3.25 83.62-3.73 85.59-4.2 87.7-5.1L87.7-5.1 87.7-1.25Q85.65-0.35 83.65 0.08 81.65 0.5 78.9 0.5L78.9 0.5Q75.09 0.5 72.17-1.05 69.25-2.6 67.62-5.68 66-8.75 66-13.2L66-13.2Q66-17.6 67.47-20.75 68.95-23.9 71.62-25.6 74.3-27.3 77.84-27.3ZM77.8-23.7L77.8-23.7Q74.65-23.7 72.82-21.68 71-19.65 70.65-16.05L70.65-16.05 84.3-16.05Q84.3-18.35 83.59-20.05 82.9-21.75 81.47-22.73 80.05-23.7 77.8-23.7ZM106.04-27.3L106.04-27.3Q109.49-27.3 111.97-25.8 114.44-24.3 115.77-21.58 117.09-18.85 117.09-15.2L117.09-15.2 117.09-12.55 98.74-12.55Q98.84-8 101.07-5.63 103.29-3.25 107.29-3.25L107.29-3.25Q109.84-3.25 111.82-3.73 113.79-4.2 115.89-5.1L115.89-5.1 115.89-1.25Q113.84-0.35 111.84 0.08 109.84 0.5 107.09 0.5L107.09 0.5Q103.29 0.5 100.37-1.05 97.44-2.6 95.82-5.68 94.19-8.75 94.19-13.2L94.19-13.2Q94.19-17.6 95.67-20.75 97.14-23.9 99.82-25.6 102.49-27.3 106.04-27.3ZM105.99-23.7L105.99-23.7Q102.84-23.7 101.02-21.68 99.19-19.65 98.84-16.05L98.84-16.05 112.49-16.05Q112.49-18.35 111.79-20.05 111.09-21.75 109.67-22.73 108.24-23.7 105.99-23.7ZM132.84-3.1L132.84-3.1Q133.84-3.1 134.89-3.28 135.94-3.45 136.59-3.65L136.59-3.65 136.59-0.3Q135.89 0.05 134.59 0.28 133.29 0.5 132.09 0.5L132.09 0.5Q129.99 0.5 128.22-0.23 126.44-0.95 125.34-2.75 124.24-4.55 124.24-7.8L124.24-7.8 124.24-23.4 120.44-23.4 120.44-25.5 124.29-27.25 126.04-32.95 128.64-32.95 128.64-26.8 136.39-26.8 136.39-23.4 128.64-23.4 128.64-7.9Q128.64-5.45 129.82-4.28 130.99-3.1 132.84-3.1ZM146.34-38L146.34 0 141.94 0 141.94-38 146.34-38ZM154.84-26.8L159.24-26.8 159.24 0 154.84 0 154.84-26.8ZM157.09-36.85L157.09-36.85Q158.09-36.85 158.86-36.18 159.64-35.5 159.64-34.05L159.64-34.05Q159.64-32.65 158.86-31.95 158.09-31.25 157.09-31.25L157.09-31.25Q155.99-31.25 155.24-31.95 154.49-32.65 154.49-34.05L154.49-34.05Q154.49-35.5 155.24-36.18 155.99-36.85 157.09-36.85ZM180.08-26.8L180.08-23.4 173.33-23.4 173.33 0 168.93 0 168.93-23.4 164.23-23.4 164.23-25.45 168.93-26.95 168.93-28.5Q168.93-31.95 169.96-34.1 170.98-36.25 172.93-37.25 174.88-38.25 177.63-38.25L177.63-38.25Q179.23-38.25 180.56-37.98 181.88-37.7 182.83-37.35L182.83-37.35 181.68-33.9Q180.88-34.15 179.83-34.4 178.78-34.65 177.68-34.65L177.68-34.65Q175.48-34.65 174.41-33.18 173.33-31.7 173.33-28.55L173.33-28.55 173.33-26.8 180.08-26.8ZM195.28-27.3L195.28-27.3Q198.73-27.3 201.21-25.8 203.68-24.3 205.01-21.58 206.33-18.85 206.33-15.2L206.33-15.2 206.33-12.55 187.98-12.55Q188.08-8 190.31-5.63 192.53-3.25 196.53-3.25L196.53-3.25Q199.08-3.25 201.06-3.73 203.03-4.2 205.13-5.1L205.13-5.1 205.13-1.25Q203.08-0.35 201.08 0.08 199.08 0.5 196.33 0.5L196.33 0.5Q192.53 0.5 189.61-1.05 186.68-2.6 185.06-5.68 183.43-8.75 183.43-13.2L183.43-13.2Q183.43-17.6 184.91-20.75 186.38-23.9 189.06-25.6 191.73-27.3 195.28-27.3ZM195.23-23.7L195.23-23.7Q192.08-23.7 190.26-21.68 188.43-19.65 188.08-16.05L188.08-16.05 201.73-16.05Q201.73-18.35 201.03-20.05 200.33-21.75 198.91-22.73 197.48-23.7 195.23-23.7Z" opacity="1" transform="matrix(1,0,0,1,0,0)" fill="#ffffff" class="wordmark-text-0" data-fill-palette-color="quaternary" id="text-0"></path></svg></g></svg></g></svg></g></svg></g><g></g></svg></g><defs></defs></svg><rect width="356.12052" height="99.61999177625123" fill="none" stroke="none" visibility="hidden"></rect></g></svg></g></svg>