<?xml version="1.0" encoding="iso-8859-1"?>
<!-- Uploaded to: SVG Repo, www.svgrepo.com, Generator: SVG Repo Mixer Tools -->
<svg height="800px" width="800px" version="1.1" id="Capa_1" xmlns="http://www.w3.org/2000/svg" xmlns:xlink="http://www.w3.org/1999/xlink" 
	 viewBox="0 0 417.007 417.007" xml:space="preserve">
<g>
	<g>
		<path style="fill:#F24646;" d="M208.503,109.134c2.048,0,4.006-0.372,5.834-1.021c2.417-3.001,3.872-6.808,3.872-10.953
			c0-9.65-7.851-17.5-17.5-17.5c-2.048,0-4.006,0.372-5.834,1.021c-2.417,3.001-3.872,6.808-3.872,10.953
			C191.003,101.284,198.854,109.134,208.503,109.134z"/>
		<path style="fill:#EFA348;" d="M167.387,154.567c5.094,0.53,8.964,4.824,8.964,9.946v51.393c0,0.971,0.237,1.885,0.648,2.697
			c0.99,1.956,3.014,3.303,5.352,3.303c3.309,0,6-2.691,6-6v-49.382c0-2.694,1.087-5.274,3.015-7.156
			c1.928-1.882,4.535-2.902,7.227-2.841c3.758,0.091,6.908,0.133,9.911,0.133c9.045,0,18.167-0.32,27.158-0.925
			c0.305-0.334,0.629-0.403,0.989-0.066c0.002,0.001,0.003,0.003,0.005,0.005c0.324-0.023,0.652-0.038,0.976-0.062
			c2.77-0.198,5.499,0.761,7.532,2.652c2.034,1.892,3.189,4.544,3.189,7.321v111.478c0,0.896,0.203,1.744,0.557,2.508
			c0.952,2.058,3.031,3.492,5.443,3.492c3.309,0,6-2.691,6-6v-115.14c0-4.914,3.57-9.1,8.422-9.875
			c7.239-1.157,14.246-2.534,20.985-4.104l-1.005-18.811H119.671l-1.435,16.494c0.2,0.073,0.399,0.141,0.599,0.216
			C133.683,149.814,149.958,152.753,167.387,154.567z"/>
		<path style="fill:#D4B783;" d="M290.545,168.283c-3.343,0.734-6.743,1.422-10.194,2.063v7.327v99.392
			c0,10.361-6.094,19.323-14.885,23.499c-1.126,1.759-2.521,2.068-4.119,1.539c-2.227,0.624-4.572,0.963-6.996,0.963
			c-14.337,0-26-11.664-26-26V176.197c-6.658,0.311-13.368,0.453-20,0.463v9.385v29.861c0,0.401-0.017,0.782-0.042,1.154
			c-0.435,9.868-6.381,18.326-14.842,22.345c-3.373,1.602-7.14,2.501-11.115,2.501c-14.337,0-26-11.663-26-26v-42.484
			c-14.065-1.797-27.408-4.31-39.879-7.504l-1.031,11.846l-14.03,161.301h199.355L290.545,168.283z M136.503,295.064
			c-5.79,0-10.5-4.71-10.5-10.5c0-5.79,4.71-10.5,10.5-10.5s10.5,4.71,10.5,10.5C147.003,290.354,142.293,295.064,136.503,295.064z
			 M169.003,319.564c-5.79,0-10.5-4.71-10.5-10.5c0-5.79,4.71-10.5,10.5-10.5s10.5,4.71,10.5,10.5
			C179.503,314.854,174.793,319.564,169.003,319.564z"/>
		<polygon style="fill:#89634A;" points="55.417,359.064 57.051,367.257 62.16,392.872 343.637,392.872 344.026,392.872 
			350.468,359.064 		"/>
	</g>
	<g>
		<path d="M407.007,339.064h-33.256c-0.018,0-0.036,0-0.054,0h-38.026l-16.259-186.923c-0.002-0.026-0.004-0.053-0.007-0.079
			l-2.939-33.794c-0.45-5.168-4.775-9.134-9.962-9.134h-64.848c2.771-5.228,4.348-11.182,4.348-17.5
			c0-16.891-11.227-31.204-26.609-35.882c3.864-18.044,19.928-31.618,39.109-31.618c5.523,0,10-4.478,10-10c0-5.523-4.477-10-10-10
			c-30.087,0-55.067,22.263-59.346,51.179c-16.171,4.163-28.154,18.869-28.154,36.321c0,6.318,1.577,12.272,4.348,17.5h-64.848
			c-5.187,0-9.513,3.966-9.962,9.134L97.6,152.076c-0.002,0.02-0.003,0.039-0.005,0.058l-16.26,186.929h-38.01
			c-0.029,0-0.057,0-0.086,0H10c-5.523,0-10,4.478-10,10c0,5.522,4.477,10,10,10h25.023l9.128,45.765
			c0.933,4.677,5.038,8.044,9.807,8.044h309.092c4.769,0,8.874-3.367,9.807-8.044l9.128-45.765h25.023c5.523,0,10-4.478,10-10
			C417.007,343.542,412.53,339.064,407.007,339.064z M194.876,80.682c3.21-3.987,8.123-6.547,13.628-6.547
			c9.649,0,17.5,7.851,17.5,17.5c0,7.602-4.881,14.068-11.666,16.479c-1.828,0.649-3.786,1.021-5.834,1.021
			c-9.649,0-17.5-7.851-17.5-17.5C191.003,87.49,192.458,83.683,194.876,80.682z M118.237,145.628l1.435-16.494h169.081h8.583
			l1.44,16.553c-2.944,0.794-5.956,1.544-9.018,2.257c-6.739,1.57-13.746,2.947-20.985,4.104c-4.852,0.775-8.422,4.961-8.422,9.875
			v115.14c0,3.309-2.691,6-6,6c-2.413,0-4.491-1.434-5.443-3.492c-0.354-0.764-0.557-1.612-0.557-2.508V165.586
			c0-2.777-1.155-5.43-3.189-7.321c-2.033-1.892-4.762-2.851-7.532-2.652c-0.324,0.023-0.651,0.039-0.976,0.062
			c-0.33,0.023-0.663,0.038-0.994,0.061c-8.991,0.604-18.113,0.925-27.158,0.925c-3.003,0-6.153-0.042-9.911-0.133
			c-2.691-0.061-5.299,0.959-7.227,2.841c-1.928,1.882-3.015,4.462-3.015,7.156v49.382c0,3.309-2.691,6-6,6
			c-2.338,0-4.363-1.347-5.352-3.303c-0.411-0.812-0.648-1.727-0.648-2.697v-51.393c0-5.122-3.87-9.416-8.964-9.946
			c-17.429-1.814-33.704-4.753-48.551-8.723c-0.2-0.053-0.405-0.102-0.604-0.156L118.237,145.628z M115.441,177.763l1.031-11.846
			c12.471,3.194,25.814,5.707,39.879,7.504v42.484c0,14.337,11.663,26,26,26c3.975,0,7.743-0.9,11.115-2.501
			c8.461-4.018,14.407-12.476,14.842-22.345c0.017-0.384,0.042-0.766,0.042-1.154v-29.861v-9.385c6.632-0.01,13.342-0.152,20-0.463
			v100.867c0,14.336,11.663,26,26,26c2.424,0,4.769-0.339,6.996-0.963c1.425-0.4,2.803-0.914,4.119-1.539
			c8.791-4.175,14.885-13.138,14.885-23.499v-99.392v-7.327c3.451-0.64,6.85-1.329,10.194-2.063
			c3.389-0.744,6.721-1.535,9.989-2.372l15.061,173.153h-11.622h-3.207H101.411L115.441,177.763z M354.847,392.872h-10.821h-0.389
			H62.16l-5.109-25.616l-1.634-8.193h295.051h11.122L354.847,392.872z"/>
		<path d="M136.503,274.064c-5.79,0-10.5,4.71-10.5,10.5c0,5.79,4.71,10.5,10.5,10.5s10.5-4.71,10.5-10.5
			C147.003,278.774,142.293,274.064,136.503,274.064z"/>
		<path d="M169.003,298.564c-5.79,0-10.5,4.71-10.5,10.5c0,5.79,4.71,10.5,10.5,10.5s10.5-4.71,10.5-10.5
			C179.503,303.274,174.793,298.564,169.003,298.564z"/>
	</g>
</g>
</svg>