<?xml version="1.0"?>
<svg version="1.1" xmlns="http://www.w3.org/2000/svg" width="130" height="80" style=""><path fill="#000000" d="M15.8935546875,52.216796875q0-0.5126953125,0.3515625-0.65185546875t0.76171875-0.13916015625q0.7177734375,0,1.2158203125,0.64453125t0.94482421875,1.41357421875t0.88623046875,1.41357421875t1.0400390625,0.64453125q0.4541015625,0,0.82763671875-0.22705078125t0.64453125-0.5712890625t0.41748046875-0.7763671875t0.146484375-0.85693359375q0-1.11328125-0.44677734375-2.2998046875t-1.142578125-2.4462890625t-1.47216796875-2.578125t-1.46484375-2.6806640625t-1.142578125-2.77587890625t-0.4541015625-2.84912109375q0-2.1533203125,1.2890625-3.33984375t3.3984375-1.1865234375q0.7177734375,0,1.4501953125,0.205078125t1.34765625,0.615234375t1.00341796875,1.0107421875t0.38818359375,1.40625q0,0.263671875-0.38818359375,0.34423828125t-0.56396484375,0.08056640625q-0.263671875,0-0.5712890625-0.06591796875t-0.3955078125-0.35888671875t-0.2490234375-0.673828125t-0.40283203125-0.71044921875t-0.5712890625-0.5712890625t-0.72509765625-0.24169921875q-0.6591796875,0-1.12060546875,0.27099609375t-0.7470703125,0.72509765625t-0.4248046875,1.01806640625t-0.13916015625,1.16455078125q0,1.40625,0.4833984375,2.83447265625t1.201171875,2.841796875t1.56005859375,2.79052734375t1.56005859375,2.6806640625t1.201171875,2.548828125t0.4833984375,2.3583984375q0,0.99609375-0.46875,1.6845703125t-1.1865234375,1.12060546875t-1.58935546875,0.6298828125t-1.70654296875,0.19775390625q-0.8935546875,0-1.8310546875-0.35888671875t-1.6845703125-0.98876953125t-1.23046875-1.47216796875t-0.4833984375-1.82373046875z M29.101611328125,50.7080078125q0-0.5419921875,0.02197265625-1.58935546875t0.15380859375-2.13134765625t0.43212890625-1.962890625t0.90087890625-1.1279296875q0.146484375-0.05859375,0.47607421875-0.1025390625t0.6591796875-0.029296875t0.5859375,0.1171875t0.25634765625,0.380859375q0,0.05859375-0.05859375,0.1611328125t-0.3076171875,0.322265625q-0.4541015625,1.259765625-0.556640625,2.5048828125t-0.1025390625,2.5634765625q0,0.7763671875,0.05126953125,1.552734375t0.16845703125,1.5673828125q0.234375-0.3369140625,0.47607421875-1.0107421875t0.5126953125-1.47216796875t0.556640625-1.61865234375t0.64453125-1.494140625t0.791015625-1.11328125t0.97412109375-0.439453125q0.6005859375,0,1.00341796875,0.75439453125t0.7470703125,1.7431640625t0.64453125,2.0068359375t0.72509765625,1.56005859375q0.205078125-0.205078125,0.32958984375-0.53466796875t0.19775390625-0.71044921875t0.087890625-0.75439453125t0.0146484375-0.63720703125q0-0.6591796875-0.19775390625-1.42822265625t-0.41748046875-1.44287109375t-0.41748046875-1.13525390625t-0.19775390625-0.53466796875q0-0.1171875,0.12451171875-0.1904296875t0.28564453125-0.1171875t0.32958984375-0.05859375t0.25634765625-0.0146484375q0.5419921875,0,0.93017578125,0.6005859375t0.615234375,1.3916015625t0.32958984375,1.60400390625t0.1025390625,1.26708984375q0,0.5712890625-0.087890625,1.2158203125t-0.32958984375,1.19384765625t-0.71044921875,0.91552734375t-1.1865234375,0.3662109375q-0.8642578125,0-1.4208984375-0.4833984375t-0.90087890625-1.171875t-0.5419921875-1.50146484375t-0.37353515625-1.47216796875q-0.3369140625,0.7763671875-0.615234375,1.962890625t-0.703125,2.3291015625t-1.083984375,1.9482421875t-1.7138671875,0.8056640625t-1.50146484375-0.52001953125t-0.71044921875-1.42822265625l0.029296875,0.029296875q-0.17578125-0.6591796875-0.22705078125-1.318359375t-0.05126953125-1.318359375z M44.22861328125,50.13671875q0-1.025390625,0.22705078125-2.4169921875t0.76904296875-2.63671875t1.42822265625-2.11669921875t2.23388671875-0.87158203125q1.259765625,0,1.8896484375,0.72509765625t0.6298828125,1.95556640625q0,0.8056640625-0.30029296875,1.76513671875t-0.85693359375,1.81640625t-1.318359375,1.42822265625t-1.69921875,0.5712890625l-0.380859375-0.029296875q0,0.3955078125,0.1171875,1.06201171875t0.34423828125,1.32568359375t0.5859375,1.1572265625t0.87158203125,0.498046875q0.7470703125,0,1.435546875-0.6005859375t1.3037109375-1.3330078125t1.142578125-1.3330078125t0.966796875-0.6005859375q0.234375,0,0.4833984375,0.0732421875t0.2783203125,0.41015625q0,0.205078125-0.10986328125,0.3369140625t-0.19775390625,0.29296875q-0.4541015625,0.7763671875-0.98876953125,1.4794921875t-1.20849609375,1.2744140625t-1.47216796875,0.90087890625t-1.76513671875,0.32958984375q-1.259765625,0-2.0947265625-0.44677734375t-1.34765625-1.201171875t-0.73974609375-1.7431640625t-0.22705078125-2.07275390625z M46.85068359375,49.0234375l0.41015625,0.3662109375q0.29296875,0.263671875,0.5859375,0.1171875t0.52734375-0.53466796875t0.43212890625-0.95947265625t0.3515625-1.171875t0.22705078125-1.171875t0.0732421875-0.9521484375l0-0.498046875t-0.0439453125-0.52734375t-0.15380859375-0.41748046875t-0.34423828125-0.21240234375q-0.0732421875-0.0146484375-0.1318359375-0.0146484375q-0.498046875,0-0.849609375,0.6298828125q-0.380859375,0.703125-0.615234375,1.70654296875t-0.3369140625,2.05810546875t-0.1318359375,1.58203125z M56.469873046875,50.13671875q0-1.025390625,0.22705078125-2.4169921875t0.76904296875-2.63671875t1.42822265625-2.11669921875t2.23388671875-0.87158203125q1.259765625,0,1.8896484375,0.72509765625t0.6298828125,1.95556640625q0,0.8056640625-0.30029296875,1.76513671875t-0.85693359375,1.81640625t-1.318359375,1.42822265625t-1.69921875,0.5712890625l-0.380859375-0.029296875q0,0.3955078125,0.1171875,1.06201171875t0.34423828125,1.32568359375t0.5859375,1.1572265625t0.87158203125,0.498046875q0.7470703125,0,1.435546875-0.6005859375t1.3037109375-1.3330078125t1.142578125-1.3330078125t0.966796875-0.6005859375q0.234375,0,0.4833984375,0.0732421875t0.2783203125,0.41015625q0,0.205078125-0.10986328125,0.3369140625t-0.19775390625,0.29296875q-0.4541015625,0.7763671875-0.98876953125,1.4794921875t-1.20849609375,1.2744140625t-1.47216796875,0.90087890625t-1.76513671875,0.32958984375q-1.259765625,0-2.0947265625-0.44677734375t-1.34765625-1.201171875t-0.73974609375-1.7431640625t-0.22705078125-2.07275390625z M59.091943359375,49.0234375l0.41015625,0.3662109375q0.29296875,0.263671875,0.5859375,0.1171875t0.52734375-0.53466796875t0.43212890625-0.95947265625t0.3515625-1.171875t0.22705078125-1.171875t0.0732421875-0.9521484375l0-0.498046875t-0.0439453125-0.52734375t-0.15380859375-0.41748046875t-0.34423828125-0.21240234375q-0.0732421875-0.0146484375-0.1318359375-0.0146484375q-0.498046875,0-0.849609375,0.6298828125q-0.380859375,0.703125-0.615234375,1.70654296875t-0.3369140625,2.05810546875t-0.1318359375,1.58203125z M68.110546875,40.234375q0-0.205078125,0.439453125-0.3515625t0.99609375-0.24169921875t1.07666015625-0.13916015625t0.71044921875-0.0732421875q0-0.3955078125,0.029296875-0.79833984375t0.1611328125-0.7177734375t0.41748046875-0.50537109375t0.79833984375-0.1904296875q0.4248046875,0,0.64453125,0.1025390625t0.46875,0.4248046875q0.05859375,0.17578125,0.05859375,0.3369140625l0,0.49072265625t-0.029296875,0.50537109375q0.5419921875-0.05859375,1.07666015625-0.13916015625t1.07666015625-0.08056640625q0.3955078125,0,0.5419921875,0.0146484375t0.29296875,0.3515625q0.1171875,0.3369140625-0.28564453125,0.5126953125t-0.966796875,0.263671875t-1.12060546875,0.1318359375t-0.673828125,0.0439453125q-0.17578125,2.51953125-0.35888671875,4.9951171875t-0.18310546875,5.0244140625q0,1.142578125,0.0732421875,2.3583984375t0.41015625,2.2998046875q0.087890625,0.3369140625,0.29296875,0.6298828125t0.205078125,0.6298828125q0,0.205078125-0.1611328125,0.322265625t-0.38818359375,0.19775390625t-0.4541015625,0.09521484375t-0.37353515625,0.0146484375q-0.9228515625,0-1.40625-0.6884765625t-0.69580078125-1.64794921875t-0.22705078125-1.97021484375t-0.0146484375-1.640625q0-1.2890625,0.05126953125-2.63671875t0.12451171875-2.666015625t0.205078125-2.578125t0.3076171875-2.34375q-0.5126953125,0.05859375-1.00341796875,0.1318359375t-1.00341796875,0.0732421875q-0.1171875,0-0.31494140625-0.0146484375t-0.37353515625-0.0732421875t-0.30029296875-0.1611328125t-0.12451171875-0.29296875z M85.04912109375,47.470703125l0-2.314453125q0-2.40234375,0.08056640625-4.76806640625t0.13916015625-4.76806640625q0-0.4541015625-0.029296875-1.0107421875q-0.0146484375-0.1611328125-0.0146484375-0.3076171875q0-0.3662109375,0.05859375-0.7177734375q0.0732421875-0.46875,0.35888671875-0.8056640625t0.94482421875-0.3369140625q0.5419921875,0,0.82763671875,0.1171875t0.40283203125,0.34423828125t0.1318359375,0.5712890625t0.0146484375,0.79833984375q0,2.431640625-0.05859375,4.8779296875q-0.0439453125,1.6259765625-0.0439453125,3.251953125q0,0.8203125,0.0146484375,1.640625q0.029296875,2.431640625,0.22705078125,4.86328125t0.66650390625,4.8046875q1.46484375-0.05859375,2.9296875-0.146484375t2.9296875-0.087890625q0.146484375,0,0.41748046875,0.029296875t0.5419921875,0.1025390625t0.46142578125,0.1904296875t0.1904296875,0.3369140625q0,0.146484375-0.1318359375,0.2490234375t-0.2490234375,0.1611328125l-0.029296875,0q-0.234375,0.1171875-0.93017578125,0.22705078125t-1.58203125,0.16845703125t-1.8603515625,0.1025390625t-1.8310546875,0.0732421875t-1.48681640625,0.0439453125t-0.7763671875,0.0146484375l-0.1318359375,0q-0.3515625,0-0.791015625-0.1171875q-0.52734375-0.146484375-0.6591796875-0.5712890625q-0.263671875-1.083984375-0.41748046875-2.24853515625t-0.234375-2.36572265625t-0.08056640625-2.40234375z M98.345068359375,49.1845703125q0-1.34765625,0.31494140625-2.64404296875t0.53466796875-2.58544921875q0.05859375-0.3369140625,0.46142578125-0.41748046875t0.68115234375-0.08056640625q0.4833984375,0,0.7763671875,0.146484375q0.1171875,0.05859375,0.2197265625,0.1318359375t0.1025390625,0.1904296875q0,1.259765625-0.30029296875,2.4609375t-0.30029296875,2.548828125q0,0.4541015625,0.06591796875,0.85693359375t0.12451171875,0.79833984375l0.087890625,0.4248046875q0,0.1171875,0.0146484375,0.205078125t0.0439453125,0.205078125q0,0.263671875-0.37353515625,0.35888671875t-0.65185546875,0.09521484375q-0.4248046875,0-0.78369140625-0.16845703125t-0.56396484375-0.57861328125l-0.205078125-0.4248046875q-0.17578125-0.3369140625-0.17578125-0.75439453125t-0.0732421875-0.76904296875z M99.282568359375,40.3662109375l0-0.2783203125q0-0.6884765625,0.34423828125-1.23046875t1.03271484375-0.5419921875q0.087890625,0,0.16845703125,0.0146484375t0.16845703125,0.0146484375q0.17578125,0.029296875,0.46142578125,0.13916015625t0.28564453125,0.34423828125l0,0.029296875q-0.05859375,0.1171875-0.0732421875,0.24169921875t-0.0732421875,0.21240234375l0.029296875-0.029296875q-0.17578125,0.4541015625-0.28564453125,0.732421875t-0.24169921875,0.44677734375t-0.32958984375,0.24169921875t-0.56396484375,0.0732421875q-0.05859375,0-0.205078125-0.0146484375t-0.31494140625-0.05859375t-0.28564453125-0.1171875t-0.1171875-0.2197265625z M104.7416015625,43.4130859375q0-0.146484375,0.22705078125-0.2490234375t0.5419921875-0.146484375t0.6005859375-0.0732421875t0.43212890625-0.029296875q0.05859375-0.3955078125,0.16845703125-1.0693359375t0.27099609375-1.44287109375t0.40283203125-1.54541015625t0.5859375-1.40625t0.81298828125-1.03271484375t1.0986328125-0.40283203125l-0.029296875,0q0.205078125-0.029296875,0.40283203125-0.0439453125t0.40283203125-0.0146484375q0.4833984375,0,1.04736328125,0.1904296875t1.04736328125,0.53466796875t0.81298828125,0.82763671875t0.32958984375,1.025390625q0,0.4248046875-0.21240234375,0.91552734375t-0.73974609375,0.49072265625q-0.17578125,0-0.35888671875-0.087890625t-0.34423828125-0.1904296875q0.05859375-0.3369140625,0.05859375-0.673828125q0-0.17578125-0.0146484375-0.3369140625q-0.0439453125-0.5126953125-0.2197265625-0.90087890625t-0.50537109375-0.615234375t-0.78369140625-0.16845703125q-0.6005859375,0.087890625-0.90087890625,0.732421875t-0.41748046875,1.53076171875t-0.146484375,1.8017578125t-0.1171875,1.48681640625q0.6884765625,0.05859375,1.16455078125,0.05859375l1.19384765625,0q0.1171875,0,0.40283203125,0.0146484375t0.556640625,0.05859375t0.4833984375,0.15380859375t0.21240234375,0.28564453125q0,0.146484375-0.1171875,0.25634765625t-0.28564453125,0.15380859375t-0.3515625,0.05859375t-0.30029296875,0.0146484375q-0.5126953125,0-0.87158203125-0.0439453125t-0.6884765625-0.08056640625t-0.6884765625-0.03662109375t-0.84228515625,0.1025390625q-0.146484375,1.6259765625-0.234375,3.22265625t-0.087890625,3.22265625q0,2.548828125,0.1611328125,4.9951171875t0.5859375,4.9658203125q0.05859375,0.234375,0.1025390625,0.53466796875t0.0439453125,0.57861328125q0,0.263671875-0.1611328125,0.43212890625t-0.40283203125,0.24169921875t-0.498046875,0.1025390625t-0.46142578125,0.029296875q-0.8349609375,0-1.171875-0.25634765625t-0.4833984375-1.03271484375q-0.3662109375-2.0654296875-0.46875-4.16748046875t-0.1025390625-4.24072265625q0-2.0947265625,0.15380859375-4.18212890625t0.38818359375-4.15283203125q-0.1171875,0-0.40283203125,0.0146484375t-0.5712890625,0t-0.498046875-0.1025390625t-0.21240234375-0.3076171875z M115.54731445313,50.13671875q0-1.025390625,0.22705078125-2.4169921875t0.76904296875-2.63671875t1.42822265625-2.11669921875t2.23388671875-0.87158203125q1.259765625,0,1.8896484375,0.72509765625t0.6298828125,1.95556640625q0,0.8056640625-0.30029296875,1.76513671875t-0.85693359375,1.81640625t-1.318359375,1.42822265625t-1.69921875,0.5712890625l-0.380859375-0.029296875q0,0.3955078125,0.1171875,1.06201171875t0.34423828125,1.32568359375t0.5859375,1.1572265625t0.87158203125,0.498046875q0.7470703125,0,1.435546875-0.6005859375t1.3037109375-1.3330078125t1.142578125-1.3330078125t0.966796875-0.6005859375q0.234375,0,0.4833984375,0.0732421875t0.2783203125,0.41015625q0,0.205078125-0.10986328125,0.3369140625t-0.19775390625,0.29296875q-0.4541015625,0.7763671875-0.98876953125,1.4794921875t-1.20849609375,1.2744140625t-1.47216796875,0.90087890625t-1.76513671875,0.32958984375q-1.259765625,0-2.0947265625-0.44677734375t-1.34765625-1.201171875t-0.73974609375-1.7431640625t-0.22705078125-2.07275390625z M118.16938476563,49.0234375l0.41015625,0.3662109375q0.29296875,0.263671875,0.5859375,0.1171875t0.52734375-0.53466796875t0.43212890625-0.95947265625t0.3515625-1.171875t0.22705078125-1.171875t0.0732421875-0.9521484375l0-0.498046875t-0.0439453125-0.52734375t-0.15380859375-0.41748046875t-0.34423828125-0.21240234375q-0.0732421875-0.0146484375-0.1318359375-0.0146484375q-0.498046875,0-0.849609375,0.6298828125q-0.380859375,0.703125-0.615234375,1.70654296875t-0.3369140625,2.05810546875t-0.1318359375,1.58203125z"/><path fill="#" d=""/></svg>
