<svg xmlns="http://www.w3.org/2000/svg" version="1.1" xmlns:xlink="http://www.w3.org/1999/xlink" xmlns:svgjs="http://svgjs.dev/svgjs" width="1500" height="390" viewBox="0 0 1500 390"><g transform="matrix(1,0,0,1,2.599020748313933,4.466044368649733)"><svg viewBox="0 0 396 103" data-background-color="#ffffff" preserveAspectRatio="xMidYMid meet" height="390" width="1500" xmlns="http://www.w3.org/2000/svg" xmlns:xlink="http://www.w3.org/1999/xlink"><g id="tight-bounds" transform="matrix(1,0,0,1,0.28558522320560087,-0.18910221708057406)"><svg viewBox="0 0 395.52 103.37820443416116" height="103.37820443416116" width="395.52"><g><svg viewBox="0 0 558.07413501082 145.8654480647406" height="103.37820443416116" width="395.52"><g transform="matrix(1,0,0,1,162.55413501082003,20.159407076964875)"><svg viewBox="0 0 395.52 105.54663391081085" height="105.54663391081085" width="395.52"><g id="textblocktransform"><svg viewBox="0 0 395.52 105.54663391081085" height="105.54663391081085" width="395.52" id="textblock"><g><svg viewBox="0 0 395.52 70.69372693726936" height="70.69372693726936" width="395.52"><g transform="matrix(1,0,0,1,0,0)"><svg width="395.52" viewBox="2.55 -38.25 216.78 38.75" height="70.69372693726936" data-palette-color="#000000"><path d="M21.7-7.4L21.7-7.4Q21.7-3.5 18.8-1.5 15.9 0.5 11 0.5L11 0.5Q8.2 0.5 6.18 0.05 4.15-0.4 2.6-1.2L2.6-1.2 2.6-5.2Q4.2-4.4 6.48-3.73 8.75-3.05 11.1-3.05L11.1-3.05Q14.45-3.05 15.95-4.13 17.45-5.2 17.45-7L17.45-7Q17.45-8 16.9-8.8 16.35-9.6 14.93-10.4 13.5-11.2 10.85-12.2L10.85-12.2Q8.25-13.2 6.4-14.2 4.55-15.2 3.55-16.6 2.55-18 2.55-20.2L2.55-20.2Q2.55-23.6 5.33-25.45 8.1-27.3 12.6-27.3L12.6-27.3Q15.05-27.3 17.18-26.83 19.3-26.35 21.15-25.5L21.15-25.5 19.65-22Q17.95-22.7 16.1-23.2 14.25-23.7 12.3-23.7L12.3-23.7Q9.6-23.7 8.18-22.83 6.75-21.95 6.75-20.45L6.75-20.45Q6.75-19.35 7.4-18.57 8.05-17.8 9.58-17.07 11.1-16.35 13.65-15.35L13.65-15.35Q16.2-14.4 18-13.4 19.8-12.4 20.75-10.98 21.7-9.55 21.7-7.4ZM50.1-0.05L45.5-15.15Q44.85-17.2 44.37-19.18 43.9-21.15 43.65-22.25L43.65-22.25 43.45-22.25Q43.25-21.15 42.8-19.18 42.35-17.2 41.65-15.1L41.65-15.1 36.85-0.05 31.85-0.05 24.5-26.85 29.05-26.85 32.75-12.55Q33.3-10.4 33.8-8.2 34.3-6 34.5-4.55L34.5-4.55 34.7-4.55Q34.9-5.4 35.17-6.65 35.45-7.9 35.8-9.28 36.15-10.65 36.5-11.75L36.5-11.75 41.25-26.85 46.05-26.85 50.65-11.75Q51.2-10.05 51.72-8.05 52.25-6.05 52.45-4.6L52.45-4.6 52.65-4.6Q52.8-5.85 53.32-8.05 53.85-10.25 54.45-12.55L54.45-12.55 58.2-26.85 62.7-26.85 55.25-0.05 50.1-0.05ZM77.84-27.3L77.84-27.3Q81.3-27.3 83.77-25.8 86.25-24.3 87.57-21.58 88.9-18.85 88.9-15.2L88.9-15.2 88.9-12.55 70.55-12.55Q70.65-8 72.87-5.63 75.09-3.25 79.09-3.25L79.09-3.25Q81.65-3.25 83.62-3.73 85.59-4.2 87.7-5.1L87.7-5.1 87.7-1.25Q85.65-0.35 83.65 0.08 81.65 0.5 78.9 0.5L78.9 0.5Q75.09 0.5 72.17-1.05 69.25-2.6 67.62-5.68 66-8.75 66-13.2L66-13.2Q66-17.6 67.47-20.75 68.95-23.9 71.62-25.6 74.3-27.3 77.84-27.3ZM77.8-23.7L77.8-23.7Q74.65-23.7 72.82-21.68 71-19.65 70.65-16.05L70.65-16.05 84.3-16.05Q84.25-19.45 82.7-21.58 81.15-23.7 77.8-23.7ZM106.04-27.3L106.04-27.3Q109.49-27.3 111.97-25.8 114.44-24.3 115.77-21.58 117.09-18.85 117.09-15.2L117.09-15.2 117.09-12.55 98.74-12.55Q98.84-8 101.07-5.63 103.29-3.25 107.29-3.25L107.29-3.25Q109.84-3.25 111.82-3.73 113.79-4.2 115.89-5.1L115.89-5.1 115.89-1.25Q113.84-0.35 111.84 0.08 109.84 0.5 107.09 0.5L107.09 0.5Q103.29 0.5 100.37-1.05 97.44-2.6 95.82-5.68 94.19-8.75 94.19-13.2L94.19-13.2Q94.19-17.6 95.67-20.75 97.14-23.9 99.82-25.6 102.49-27.3 106.04-27.3ZM105.99-23.7L105.99-23.7Q102.84-23.7 101.02-21.68 99.19-19.65 98.84-16.05L98.84-16.05 112.49-16.05Q112.44-19.45 110.89-21.58 109.34-23.7 105.99-23.7ZM132.84-3.1L132.84-3.1Q133.84-3.1 134.89-3.28 135.94-3.45 136.59-3.65L136.59-3.65 136.59-0.3Q135.89 0.05 134.59 0.28 133.29 0.5 132.09 0.5L132.09 0.5Q129.99 0.5 128.22-0.23 126.44-0.95 125.34-2.75 124.24-4.55 124.24-7.8L124.24-7.8 124.24-23.4 120.44-23.4 120.44-25.5 124.29-27.25 126.04-32.95 128.64-32.95 128.64-26.8 136.39-26.8 136.39-23.4 128.64-23.4 128.64-7.9Q128.64-5.45 129.82-4.28 130.99-3.1 132.84-3.1ZM159.34-38L159.34 0 154.94 0 154.94-38 159.34-38ZM170.08-36.85L170.08-36.85Q171.08-36.85 171.86-36.18 172.63-35.5 172.63-34.05L172.63-34.05Q172.63-32.65 171.86-31.95 171.08-31.25 170.08-31.25L170.08-31.25Q168.98-31.25 168.23-31.95 167.48-32.65 167.48-34.05L167.48-34.05Q167.48-35.5 168.23-36.18 168.98-36.85 170.08-36.85ZM167.83-26.8L172.23-26.8 172.23 0 167.83 0 167.83-26.8ZM193.08-26.8L193.08-23.4 186.33-23.4 186.33 0 181.93 0 181.93-23.4 177.23-23.4 177.23-25.45 181.93-26.95 181.93-28.5Q181.93-33.7 184.23-35.98 186.53-38.25 190.63-38.25L190.63-38.25Q192.23-38.25 193.56-37.98 194.88-37.7 195.83-37.35L195.83-37.35 194.68-33.9Q193.88-34.15 192.83-34.4 191.78-34.65 190.68-34.65L190.68-34.65Q188.48-34.65 187.41-33.18 186.33-31.7 186.33-28.55L186.33-28.55 186.33-26.8 193.08-26.8ZM208.28-27.3L208.28-27.3Q211.73-27.3 214.2-25.8 216.68-24.3 218-21.58 219.33-18.85 219.33-15.2L219.33-15.2 219.33-12.55 200.98-12.55Q201.08-8 203.3-5.63 205.53-3.25 209.53-3.25L209.53-3.25Q212.08-3.25 214.05-3.73 216.03-4.2 218.13-5.1L218.13-5.1 218.13-1.25Q216.08-0.35 214.08 0.08 212.08 0.5 209.33 0.5L209.33 0.5Q205.53 0.5 202.6-1.05 199.68-2.6 198.05-5.68 196.43-8.75 196.43-13.2L196.43-13.2Q196.43-17.6 197.9-20.75 199.38-23.9 202.05-25.6 204.73-27.3 208.28-27.3ZM208.23-23.7L208.23-23.7Q205.08-23.7 203.25-21.68 201.43-19.65 201.08-16.05L201.08-16.05 214.73-16.05Q214.68-19.45 213.13-21.58 211.58-23.7 208.23-23.7Z" opacity="1" transform="matrix(1,0,0,1,0,0)" fill="#000000" class="wordmark-text-0" data-fill-palette-color="primary" id="text-0"></path></svg></g></svg></g><g transform="matrix(1,0,0,1,0,87.38281921771217)"><svg viewBox="0 0 375.74399999999997 18.163814693098693" height="18.163814693098693" width="375.74399999999997"><g transform="matrix(1,0,0,1,0,0)"><svg width="375.74399999999997" viewBox="0.5 -37.2 943.2 45.6" height="18.163814693098693" data-palette-color="#bd1e58"><path d="M19.75 0L13.5 0 2.25-36.2 8.05-36.2Q8.95-36.2 9.58-35.77 10.2-35.35 10.35-34.65L10.35-34.65 16.4-13.1Q16.65-12.3 16.85-11.38 17.05-10.45 17.2-9.4L17.2-9.4Q17.4-10.5 17.65-11.43 17.9-12.35 18.15-13.1L18.15-13.1 25.15-34.65Q25.35-35.2 25.95-35.7 26.55-36.2 27.4-36.2L27.4-36.2 29.45-36.2Q31.25-36.2 31.75-34.65L31.75-34.65 38.65-13.1Q38.9-12.35 39.18-11.45 39.45-10.55 39.65-9.55L39.65-9.55Q39.85-10.65 40.05-11.55 40.25-12.45 40.4-13.1L40.4-13.1 46.45-34.65Q46.6-35.25 47.23-35.73 47.85-36.2 48.7-36.2L48.7-36.2 54.1-36.2 42.9 0 36.65 0 28.85-24.65Q28.65-25.4 28.48-25.95 28.3-26.5 28.25-26.8L28.25-26.8Q28.1-26.4 27.93-25.75 27.75-25.1 27.6-24.65L27.6-24.65 19.75 0ZM10.85-34.55L7.15-34.55 7.15-36.2 10.85-36.2 10.85-34.55ZM49.8-34.55L46.05-34.55 46.05-36.2 49.8-36.2 49.8-34.55ZM0.5-36.2L5.45-36.2 4.85-31.15 1.95-31.75Q1.3-31.9 0.9-32.25 0.5-32.6 0.5-33.3L0.5-33.3 0.5-36.2ZM9.25-36.2L14.2-36.2 14.2-33.3Q14.2-32.6 13.83-32.25 13.45-31.9 12.75-31.75L12.75-31.75 9.9-31.15 9.25-36.2ZM42.25-36.2L47.25-36.2 46.6-31.15 43.75-31.75Q43.05-31.9 42.65-32.25 42.25-32.6 42.25-33.3L42.25-33.3 42.25-36.2ZM51.05-36.2L56-36.2 56-33.3Q56-32.6 55.6-32.25 55.2-31.9 54.55-31.75L54.55-31.75 51.65-31.15 51.05-36.2ZM67.9 0L61.6 0 61.6-37.2 67.9-37.2 67.9-22.9Q69.4-24.35 71.2-25.23 73-26.1 75.4-26.1L75.4-26.1Q78.2-26.1 80.12-24.85 82.05-23.6 83.05-21.4 84.05-19.2 84.05-16.35L84.05-16.35 84.05 0 77.7 0 77.7-16.35Q77.7-18.65 76.65-19.95 75.6-21.25 73.45-21.25L73.45-21.25Q71.9-21.25 70.52-20.53 69.15-19.8 67.9-18.55L67.9-18.55 67.9 0ZM87.8 0L82.85 0 83.45-5.05 86.35-4.45Q87-4.3 87.4-3.95 87.8-3.6 87.8-2.9L87.8-2.9 87.8 0ZM62.8 0L57.85 0 57.85-2.9Q57.85-3.6 58.22-3.95 58.6-4.3 59.3-4.45L59.3-4.45 62.15-5.05 62.8 0ZM57.85-37.2L62.8-37.2 62.15-32.15 59.3-32.75Q58.6-32.9 58.22-33.25 57.85-33.6 57.85-34.3L57.85-34.3 57.85-37.2ZM71.65 0L66.7 0 67.35-5.05 70.2-4.45Q70.9-4.3 71.27-3.95 71.65-3.6 71.65-2.9L71.65-2.9 71.65 0ZM102.6 0.4L102.6 0.4Q98.75 0.4 95.9-1.33 93.05-3.05 91.47-6.18 89.9-9.3 89.9-13.4L89.9-13.4Q89.9-17 91.45-19.88 93-22.75 95.8-24.43 98.6-26.1 102.3-26.1L102.3-26.1Q105.65-26.1 108.17-24.68 110.7-23.25 112.07-20.65 113.45-18.05 113.45-14.45L113.45-14.45Q113.45-13.1 113.2-12.58 112.95-12.05 112-12.05L112-12.05 96.25-12.05Q96.25-11.9 96.25-11.75 96.25-11.6 96.3-11.45L96.3-11.45Q96.7-7.95 98.47-6.2 100.25-4.45 103.15-4.45L103.15-4.45Q104.5-4.45 105.87-5 107.25-5.55 108.4-6.13 109.55-6.7 110.25-6.7L110.25-6.7Q110.95-6.7 111.4-6.15L111.4-6.15 113.25-3.85Q111.9-2.3 110.12-1.35 108.35-0.4 106.42 0 104.5 0.4 102.6 0.4ZM96.35-15.8L96.35-15.8 107.8-15.8Q107.8-18.3 106.45-19.95 105.1-21.6 102.45-21.6L102.45-21.6Q99.8-21.6 98.27-20.1 96.75-18.6 96.35-15.8ZM126.14 0L119.84 0 119.84-25.7 123.54-25.7Q124.54-25.7 124.92-25.33 125.29-24.95 125.44-24.1L125.44-24.1 125.79-21.05Q127.19-23.45 129.02-24.8 130.84-26.15 133.14-26.15L133.14-26.15Q134.09-26.15 134.87-25.93 135.64-25.7 136.24-25.3L136.24-25.3 135.44-20.6Q135.39-20.15 135.12-19.98 134.84-19.8 134.44-19.8L134.44-19.8Q134.19-19.8 133.29-19.95 132.39-20.1 131.69-20.1L131.69-20.1Q129.79-20.1 128.44-19.05 127.09-18 126.14-16L126.14-16 126.14 0ZM129.89 0L124.94 0 125.59-5.05 128.44-4.45Q129.14-4.3 129.52-3.95 129.89-3.6 129.89-2.9L129.89-2.9 129.89 0ZM121.04 0L116.09 0 116.09-2.9Q116.09-3.6 116.47-3.95 116.84-4.3 117.54-4.45L117.54-4.45 120.39-5.05 121.04 0ZM116.09-25.7L121.04-25.7 120.39-20.65 117.54-21.25Q116.84-21.4 116.47-21.75 116.09-22.1 116.09-22.8L116.09-22.8 116.09-25.7ZM150.59 0.4L150.59 0.4Q146.74 0.4 143.89-1.33 141.04-3.05 139.47-6.18 137.89-9.3 137.89-13.4L137.89-13.4Q137.89-17 139.44-19.88 140.99-22.75 143.79-24.43 146.59-26.1 150.29-26.1L150.29-26.1Q153.64-26.1 156.17-24.68 158.69-23.25 160.07-20.65 161.44-18.05 161.44-14.45L161.44-14.45Q161.44-13.1 161.19-12.58 160.94-12.05 159.99-12.05L159.99-12.05 144.24-12.05Q144.24-11.9 144.24-11.75 144.24-11.6 144.29-11.45L144.29-11.45Q144.69-7.95 146.47-6.2 148.24-4.45 151.14-4.45L151.14-4.45Q152.49-4.45 153.87-5 155.24-5.55 156.39-6.13 157.54-6.7 158.24-6.7L158.24-6.7Q158.94-6.7 159.39-6.15L159.39-6.15 161.24-3.85Q159.89-2.3 158.12-1.35 156.34-0.4 154.42 0 152.49 0.4 150.59 0.4ZM144.34-15.8L144.34-15.8 155.79-15.8Q155.79-18.3 154.44-19.95 153.09-21.6 150.44-21.6L150.44-21.6Q147.79-21.6 146.27-20.1 144.74-18.6 144.34-15.8ZM202.94 0L180.04 0 180.04-36.2 202.94-36.2 202.94-30.8 186.99-30.8 186.99-20.8 199.09-20.8 199.09-15.6 186.99-15.6 186.99-5.4 202.94-5.4 202.94 0ZM202.94-5.4L198.04-4.25 198.79-8.35Q198.99-9.05 199.34-9.43 199.69-9.8 200.34-9.8L200.34-9.8 202.94-9.8 202.94-5.4ZM198.79-27.85L198.04-31.95 202.94-30.8 202.94-26.4 200.34-26.4Q199.69-26.4 199.34-26.78 198.99-27.15 198.79-27.85L198.79-27.85ZM176.34-36.2L181.29-36.2 180.69-31.15 177.79-31.75Q177.14-31.9 176.74-32.25 176.34-32.6 176.34-33.3L176.34-33.3 176.34-36.2ZM181.29 0L176.34 0 176.34-2.9Q176.34-3.6 176.71-3.95 177.09-4.3 177.79-4.45L177.79-4.45 180.64-5.05 181.29 0ZM222.73 0L217.03 0 206.83-25.7 212.08-25.7Q212.78-25.7 213.26-25.35 213.73-25 213.88-24.5L213.88-24.5 218.73-10.85Q219.03-9.8 219.36-8.65 219.68-7.5 219.98-6.25L219.98-6.25Q220.18-7.35 220.51-8.53 220.83-9.7 221.28-10.85L221.28-10.85 226.18-24.5Q226.38-25 226.83-25.35 227.28-25.7 227.93-25.7L227.93-25.7 232.93-25.7 222.73 0ZM215.03-24.05L211.28-24.05 211.28-25.7 215.03-25.7 215.03-24.05ZM229.03-24.05L225.33-24.05 225.33-25.7 229.03-25.7 229.03-24.05ZM205.48-25.7L210.48-25.7 209.83-20.65 206.98-21.25Q206.28-21.4 205.88-21.75 205.48-22.1 205.48-22.8L205.48-22.8 205.48-25.7ZM212.78-25.7L217.73-25.7 217.73-22.8Q217.73-22.1 217.36-21.75 216.98-21.4 216.28-21.25L216.28-21.25 213.43-20.65 212.78-25.7ZM222.03-25.7L226.98-25.7 226.33-20.65 223.48-21.25Q222.78-21.4 222.41-21.75 222.03-22.1 222.03-22.8L222.03-22.8 222.03-25.7ZM229.28-25.7L234.28-25.7 234.28-22.8Q234.28-22.1 233.88-21.75 233.48-21.4 232.78-21.25L232.78-21.25 229.93-20.65 229.28-25.7ZM248.03 0.4L248.03 0.4Q244.18 0.4 241.33-1.33 238.48-3.05 236.91-6.18 235.33-9.3 235.33-13.4L235.33-13.4Q235.33-17 236.88-19.88 238.43-22.75 241.23-24.43 244.03-26.1 247.73-26.1L247.73-26.1Q251.08-26.1 253.61-24.68 256.13-23.25 257.51-20.65 258.88-18.05 258.88-14.45L258.88-14.45Q258.88-13.1 258.63-12.58 258.38-12.05 257.43-12.05L257.43-12.05 241.68-12.05Q241.68-11.9 241.68-11.75 241.68-11.6 241.73-11.45L241.73-11.45Q242.13-7.95 243.91-6.2 245.68-4.45 248.58-4.45L248.58-4.45Q249.93-4.45 251.31-5 252.68-5.55 253.83-6.13 254.98-6.7 255.68-6.7L255.68-6.7Q256.38-6.7 256.83-6.15L256.83-6.15 258.68-3.85Q257.33-2.3 255.56-1.35 253.78-0.4 251.86 0 249.93 0.4 248.03 0.4ZM241.78-15.8L241.78-15.8 253.23-15.8Q253.23-18.3 251.88-19.95 250.53-21.6 247.88-21.6L247.88-21.6Q245.23-21.6 243.71-20.1 242.18-18.6 241.78-15.8ZM271.58 0L265.28 0 265.28-25.7 268.98-25.7Q269.98-25.7 270.35-25.33 270.73-24.95 270.88-24.1L270.88-24.1 271.23-21.05Q272.63-23.45 274.45-24.8 276.28-26.15 278.58-26.15L278.58-26.15Q279.53-26.15 280.3-25.93 281.08-25.7 281.68-25.3L281.68-25.3 280.88-20.6Q280.83-20.15 280.55-19.98 280.28-19.8 279.88-19.8L279.88-19.8Q279.63-19.8 278.73-19.95 277.83-20.1 277.13-20.1L277.13-20.1Q275.23-20.1 273.88-19.05 272.53-18 271.58-16L271.58-16 271.58 0ZM275.33 0L270.38 0 271.03-5.05 273.88-4.45Q274.58-4.3 274.95-3.95 275.33-3.6 275.33-2.9L275.33-2.9 275.33 0ZM266.48 0L261.53 0 261.53-2.9Q261.53-3.6 261.9-3.95 262.28-4.3 262.98-4.45L262.98-4.45 265.83-5.05 266.48 0ZM261.53-25.7L266.48-25.7 265.83-20.65 262.98-21.25Q262.28-21.4 261.9-21.75 261.53-22.1 261.53-22.8L261.53-22.8 261.53-25.7ZM294.03 8.4L289.28 8.4 294.13-1.95 283.73-25.7 289.28-25.7Q290.08-25.7 290.48-25.35 290.88-25 291.08-24.5L291.08-24.5 296.43-11.25Q296.63-10.65 296.85-9.95 297.08-9.25 297.28-8.55L297.28-8.55Q297.38-8.85 297.55-9.38 297.73-9.9 297.93-10.45 298.13-11 298.23-11.3L298.23-11.3 303.23-24.5Q303.43-25 303.93-25.35 304.43-25.7 304.98-25.7L304.98-25.7 310.08-25.7 296.08 7.05Q295.83 7.7 295.38 8.05 294.93 8.4 294.03 8.4L294.03 8.4ZM292.28-24.05L288.53-24.05 288.53-25.7 292.28-25.7 292.28-24.05ZM306.08-24.05L302.38-24.05 302.38-25.7 306.08-25.7 306.08-24.05ZM282.73-25.7L287.73-25.7 287.08-20.65 284.23-21.25Q283.53-21.4 283.13-21.75 282.73-22.1 282.73-22.8L282.73-22.8 282.73-25.7ZM290.03-25.7L294.98-25.7 294.98-22.8Q294.98-22.1 294.6-21.75 294.23-21.4 293.53-21.25L293.53-21.25 290.68-20.65 290.03-25.7ZM298.78-25.7L303.73-25.7 303.13-20.65 300.23-21.25Q299.58-21.4 299.18-21.75 298.78-22.1 298.78-22.8L298.78-22.8 298.78-25.7ZM306.08-25.7L311.03-25.7 311.03-22.8Q311.03-22.1 310.65-21.75 310.28-21.4 309.58-21.25L309.58-21.25 306.73-20.65 306.08-25.7ZM342.47 0L335.57 0 335.57-30.6 324.72-30.6 324.72-36.2 353.27-36.2 353.27-30.6 342.47-30.6 342.47 0ZM336.77 0L331.82 0 331.82-2.9Q331.82-3.6 332.22-3.95 332.62-4.3 333.27-4.45L333.27-4.45 336.17-5.05 336.77 0ZM346.22 0L341.27 0 341.87-5.05 344.77-4.45Q345.47-4.3 345.85-3.95 346.22-3.6 346.22-2.9L346.22-2.9 346.22 0ZM349.17-27.65L348.42-31.8 353.27-30.6 353.27-26.2 350.72-26.2Q350.02-26.2 349.67-26.58 349.32-26.95 349.17-27.65L349.17-27.65ZM324.72-30.6L329.57-31.8 328.82-27.65Q328.72-26.95 328.35-26.58 327.97-26.2 327.32-26.2L327.32-26.2 324.72-26.2 324.72-30.6ZM365.42 0L359.12 0 359.12-25.7 362.82-25.7Q363.82-25.7 364.19-25.33 364.57-24.95 364.72-24.1L364.72-24.1 365.07-21.05Q366.47-23.45 368.29-24.8 370.12-26.15 372.42-26.15L372.42-26.15Q373.37-26.15 374.14-25.93 374.92-25.7 375.52-25.3L375.52-25.3 374.72-20.6Q374.67-20.15 374.39-19.98 374.12-19.8 373.72-19.8L373.72-19.8Q373.47-19.8 372.57-19.95 371.67-20.1 370.97-20.1L370.97-20.1Q369.07-20.1 367.72-19.05 366.37-18 365.42-16L365.42-16 365.42 0ZM369.17 0L364.22 0 364.87-5.05 367.72-4.45Q368.42-4.3 368.79-3.95 369.17-3.6 369.17-2.9L369.17-2.9 369.17 0ZM360.32 0L355.37 0 355.37-2.9Q355.37-3.6 355.74-3.95 356.12-4.3 356.82-4.45L356.82-4.45 359.67-5.05 360.32 0ZM355.37-25.7L360.32-25.7 359.67-20.65 356.82-21.25Q356.12-21.4 355.74-21.75 355.37-22.1 355.37-22.8L355.37-22.8 355.37-25.7ZM389.87 0.4L389.87 0.4Q386.02 0.4 383.17-1.33 380.32-3.05 378.74-6.18 377.17-9.3 377.17-13.4L377.17-13.4Q377.17-17 378.72-19.88 380.27-22.75 383.07-24.43 385.87-26.1 389.57-26.1L389.57-26.1Q392.92-26.1 395.44-24.68 397.97-23.25 399.34-20.65 400.72-18.05 400.72-14.45L400.72-14.45Q400.72-13.1 400.47-12.58 400.22-12.05 399.27-12.05L399.27-12.05 383.52-12.05Q383.52-11.9 383.52-11.75 383.52-11.6 383.57-11.45L383.57-11.45Q383.97-7.95 385.74-6.2 387.52-4.45 390.42-4.45L390.42-4.45Q391.77-4.45 393.14-5 394.52-5.55 395.67-6.13 396.82-6.7 397.52-6.7L397.52-6.7Q398.22-6.7 398.67-6.15L398.67-6.15 400.52-3.85Q399.17-2.3 397.39-1.35 395.62-0.4 393.69 0 391.77 0.4 389.87 0.4ZM383.62-15.8L383.62-15.8 395.07-15.8Q395.07-18.3 393.72-19.95 392.37-21.6 389.72-21.6L389.72-21.6Q387.07-21.6 385.54-20.1 384.02-18.6 383.62-15.8ZM410.86 0.4L410.86 0.4Q408.66 0.4 406.96-0.4 405.26-1.2 404.31-2.75 403.36-4.3 403.36-6.6L403.36-6.6Q403.36-8 404.14-9.43 404.91-10.85 406.66-12L406.66-12Q408.46-13.1 411.41-13.88 414.36-14.65 418.71-14.75L418.71-14.75 418.71-16.2Q418.71-18.8 417.64-20.03 416.56-21.25 414.51-21.25L414.51-21.25Q413.06-21.25 411.84-20.68 410.61-20.1 409.59-19.53 408.56-18.95 407.61-18.95L407.61-18.95Q406.96-18.95 406.49-19.3 406.01-19.65 405.76-20.1L405.76-20.1 404.61-22.1Q406.86-24.15 409.54-25.15 412.21-26.15 415.31-26.15L415.31-26.15Q418.31-26.15 420.46-24.9 422.61-23.65 423.76-21.4 424.91-19.15 424.91-16.2L424.91-16.2 424.91 0 422.06 0Q421.11 0 420.64-0.25 420.16-0.5 419.86-1.35L419.86-1.35 419.36-3.15Q417.41-1.45 415.49-0.53 413.56 0.4 410.86 0.4ZM412.86-3.9L412.86-3.9Q414.66-3.9 416.04-4.58 417.41-5.25 418.71-6.6L418.71-6.6 418.71-10.9Q416.51-10.85 414.79-10.58 413.06-10.3 411.89-9.83 410.71-9.35 410.09-8.63 409.46-7.9 409.46-6.9L409.46-6.9Q409.46-5.25 410.39-4.58 411.31-3.9 412.86-3.9ZM428.66 0L423.66 0 424.31-5.05 427.21-4.45Q427.86-4.3 428.26-3.95 428.66-3.6 428.66-2.9L428.66-2.9 428.66 0ZM440.86 0.4L440.86 0.4Q437.51 0.4 435.69-1.5 433.86-3.4 433.86-6.75L433.86-6.75 433.86-21.05 431.26-21.05Q430.76-21.05 430.41-21.35 430.06-21.65 430.06-22.3L430.06-22.3 430.06-24.8 434.21-25.5 435.51-32.45Q435.71-33.5 436.91-33.5L436.91-33.5 440.16-33.5 440.16-25.45 446.91-25.45 446.91-21.05 440.16-21.05 440.16-7.15Q440.16-5.95 440.76-5.28 441.36-4.6 442.36-4.6L442.36-4.6Q442.91-4.6 443.36-4.83 443.81-5.05 444.21-5.25 444.61-5.45 444.91-5.45L444.91-5.45Q445.36-5.45 445.71-4.9L445.71-4.9 447.61-1.85Q446.26-0.8 444.51-0.2 442.76 0.4 440.86 0.4ZM472.31 0L466.01 0 466.01-25.7 472.31-25.7 472.31 0ZM467.21 0L462.26 0 462.26-2.9Q462.26-3.6 462.63-3.95 463.01-4.3 463.71-4.45L463.71-4.45 466.56-5.05 467.21 0ZM476.06 0L471.11 0 471.76-5.05 474.61-4.45Q475.31-4.3 475.68-3.95 476.06-3.6 476.06-2.9L476.06-2.9 476.06 0ZM462.26-25.7L467.21-25.7 466.56-20.65 463.71-21.25Q463.01-21.4 462.63-21.75 462.26-22.1 462.26-22.8L462.26-22.8 462.26-25.7ZM469.26-29.25L469.26-29.25Q467.66-29.25 466.46-30.4 465.26-31.55 465.26-33.15L465.26-33.15Q465.26-34.8 466.46-35.98 467.66-37.15 469.26-37.15L469.26-37.15Q470.91-37.15 472.11-35.98 473.31-34.8 473.31-33.15L473.31-33.15Q473.31-31.55 472.11-30.4 470.91-29.25 469.26-29.25ZM486.95 0.4L486.95 0.4Q484.75 0.4 482.55 0 480.35-0.4 478.7-0.95L478.7-0.95 478.7-5.2 481.7-5.3Q482.3-4.8 483.85-4.38 485.4-3.95 487.1-3.95L487.1-3.95Q489.2-3.95 490.25-4.8 491.3-5.65 491.3-7L491.3-7Q491.3-8.25 490.38-8.93 489.45-9.6 488.03-10.05 486.6-10.5 485.1-11L485.1-11Q483.35-11.6 481.9-12.45 480.45-13.3 479.6-14.7 478.75-16.1 478.75-18.15L478.75-18.15Q478.75-20.5 479.98-22.3 481.2-24.1 483.38-25.1 485.55-26.1 488.45-26.1L488.45-26.1Q490.6-26.1 492.43-25.53 494.25-24.95 496.05-24.15L496.05-24.15 496.05-21 492.9-20.6Q492-20.9 490.95-21.23 489.9-21.55 488.65-21.55L488.65-21.55Q487.5-21.55 486.6-21.2 485.7-20.85 485.23-20.25 484.75-19.65 484.75-18.8L484.75-18.8Q484.75-17.65 485.75-16.98 486.75-16.3 488.25-15.83 489.75-15.35 491.05-14.9L491.05-14.9Q492.7-14.35 494.13-13.53 495.55-12.7 496.4-11.4 497.25-10.1 497.25-8.05L497.25-8.05Q497.25-5.55 496-3.65 494.75-1.75 492.45-0.68 490.15 0.4 486.95 0.4ZM492.2-18.8L491.6-22.35 496.05-21.25 496.05-17.35 493.75-17.35Q493.05-17.35 492.7-17.75 492.35-18.15 492.2-18.8L492.2-18.8ZM482.55-6.8L483.15-3.25 478.7-4.35 478.7-8.25 481-8.25Q481.75-8.25 482.08-7.85 482.4-7.45 482.55-6.8L482.55-6.8ZM519.85 0.4L519.85 0.4Q517.65 0.4 515.95-0.4 514.25-1.2 513.3-2.75 512.35-4.3 512.35-6.6L512.35-6.6Q512.35-8 513.12-9.43 513.9-10.85 515.65-12L515.65-12Q517.45-13.1 520.4-13.88 523.35-14.65 527.7-14.75L527.7-14.75 527.7-16.2Q527.7-18.8 526.62-20.03 525.55-21.25 523.5-21.25L523.5-21.25Q522.05-21.25 520.82-20.68 519.6-20.1 518.57-19.53 517.55-18.95 516.6-18.95L516.6-18.95Q515.95-18.95 515.47-19.3 515-19.65 514.75-20.1L514.75-20.1 513.6-22.1Q515.85-24.15 518.52-25.15 521.2-26.15 524.3-26.15L524.3-26.15Q527.3-26.15 529.45-24.9 531.6-23.65 532.75-21.4 533.9-19.15 533.9-16.2L533.9-16.2 533.9 0 531.05 0Q530.1 0 529.62-0.25 529.15-0.5 528.85-1.35L528.85-1.35 528.35-3.15Q526.4-1.45 524.47-0.53 522.55 0.4 519.85 0.4ZM521.85-3.9L521.85-3.9Q523.65-3.9 525.02-4.58 526.4-5.25 527.7-6.6L527.7-6.6 527.7-10.9Q525.5-10.85 523.77-10.58 522.05-10.3 520.87-9.83 519.7-9.35 519.07-8.63 518.45-7.9 518.45-6.9L518.45-6.9Q518.45-5.25 519.37-4.58 520.3-3.9 521.85-3.9ZM537.65 0L532.65 0 533.3-5.05 536.2-4.45Q536.85-4.3 537.25-3.95 537.65-3.6 537.65-2.9L537.65-2.9 537.65 0ZM561.89 0L555.79 0 555.79-36.2 561.04-36.2Q561.99-36.2 562.44-36.05 562.89-35.9 563.34-35.1L563.34-35.1 574.04-15.05Q574.49-14.25 574.84-13.4 575.19-12.55 575.54-11.65L575.54-11.65Q575.89-12.4 576.29-13.35 576.69-14.3 577.09-15.15L577.09-15.15 587.64-35.1Q588.09-35.9 588.57-36.05 589.04-36.2 589.99-36.2L589.99-36.2 595.19-36.2 595.19 0 589.14 0 589.14-23.25Q589.14-23.95 589.17-24.68 589.19-25.4 589.24-26.15L589.24-26.15 578.44-5.85Q577.69-4.35 576.04-4.35L576.04-4.35 575.09-4.35Q573.44-4.35 572.64-5.85L572.64-5.85 561.69-26.2Q561.79-25.4 561.84-24.65 561.89-23.9 561.89-23.25L561.89-23.25 561.89 0ZM557.04 0L552.09 0 552.09-2.9Q552.09-3.6 552.47-3.95 552.84-4.3 553.54-4.45L553.54-4.45 556.39-5.05 557.04 0ZM565.89 0L560.89 0 561.54-5.05 564.44-4.45Q565.09-4.3 565.49-3.95 565.89-3.6 565.89-2.9L565.89-2.9 565.89 0ZM552.09-36.2L557.04-36.2 556.39-31.15 553.54-31.75Q552.84-31.9 552.47-32.25 552.09-32.6 552.09-33.3L552.09-33.3 552.09-36.2ZM590.09 0L585.14 0 585.14-2.9Q585.14-3.6 585.52-3.95 585.89-4.3 586.59-4.45L586.59-4.45 589.44-5.05 590.09 0ZM598.94 0L593.99 0 594.59-5.05 597.49-4.45Q598.14-4.3 598.54-3.95 598.94-3.6 598.94-2.9L598.94-2.9 598.94 0ZM593.99-36.2L598.94-36.2 598.94-33.3Q598.94-32.6 598.54-32.25 598.14-31.9 597.49-31.75L597.49-31.75 594.59-31.15 593.99-36.2ZM614.24-26.1L614.24-26.1Q618.14-26.1 620.99-24.48 623.84-22.85 625.39-19.88 626.94-16.9 626.94-12.9L626.94-12.9Q626.94-8.9 625.39-5.93 623.84-2.95 620.99-1.28 618.14 0.4 614.24 0.4L614.24 0.4Q610.39 0.4 607.51-1.28 604.64-2.95 603.04-5.93 601.44-8.9 601.44-12.9L601.44-12.9Q601.44-16.9 603.04-19.88 604.64-22.85 607.51-24.48 610.39-26.1 614.24-26.1ZM614.24-4.4L614.24-4.4Q617.39-4.4 618.89-6.55 620.39-8.7 620.39-12.85L620.39-12.85Q620.39-15.65 619.74-17.53 619.09-19.4 617.71-20.35 616.34-21.3 614.24-21.3L614.24-21.3Q612.14-21.3 610.74-20.33 609.34-19.35 608.66-17.48 607.99-15.6 607.99-12.85L607.99-12.85Q607.99-8.8 609.51-6.6 611.04-4.4 614.24-4.4ZM639.64 0L633.34 0 633.34-25.7 637.19-25.7Q638.44-25.7 638.79-24.55L638.79-24.55 639.19-22.65Q640.54-24.1 642.19-25.1 643.84-26.1 646.09-26.1L646.09-26.1Q648.54-26.1 650.09-24.78 651.64-23.45 652.39-21.3L652.39-21.3Q653.59-23.8 655.84-24.95 658.09-26.1 660.64-26.1L660.64-26.1Q664.94-26.1 667.21-23.5 669.49-20.9 669.49-16.35L669.49-16.35 669.49 0 663.19 0 663.19-16.35Q663.19-18.75 662.14-20 661.09-21.25 658.99-21.25L658.99-21.25Q657.14-21.25 655.86-19.95 654.59-18.65 654.59-16.35L654.59-16.35 654.59 0 648.24 0 648.24-16.35Q648.24-18.9 647.21-20.08 646.19-21.25 644.24-21.25L644.24-21.25Q642.89-21.25 641.76-20.58 640.64-19.9 639.64-18.8L639.64-18.8 639.64 0ZM634.54 0L629.59 0 629.59-2.9Q629.59-3.6 629.96-3.95 630.34-4.3 631.04-4.45L631.04-4.45 633.89-5.05 634.54 0ZM643.39 0L638.44 0 639.09-5.05 641.94-4.45Q642.64-4.3 643.01-3.95 643.39-3.6 643.39-2.9L643.39-2.9 643.39 0ZM658.34 0L653.39 0 653.99-5.05 656.89-4.45Q657.54-4.3 657.94-3.95 658.34-3.6 658.34-2.9L658.34-2.9 658.34 0ZM629.59-25.7L634.54-25.7 633.89-20.65 631.04-21.25Q630.34-21.4 629.96-21.75 629.59-22.1 629.59-22.8L629.59-22.8 629.59-25.7ZM673.24 0L668.29 0 668.94-5.05 671.79-4.45Q672.49-4.3 672.86-3.95 673.24-3.6 673.24-2.9L673.24-2.9 673.24 0ZM688.03 0.4L688.03 0.4Q684.18 0.4 681.33-1.33 678.48-3.05 676.91-6.18 675.33-9.3 675.33-13.4L675.33-13.4Q675.33-17 676.88-19.88 678.43-22.75 681.23-24.43 684.03-26.1 687.73-26.1L687.73-26.1Q691.08-26.1 693.61-24.68 696.13-23.25 697.51-20.65 698.88-18.05 698.88-14.45L698.88-14.45Q698.88-13.1 698.63-12.58 698.38-12.05 697.43-12.05L697.43-12.05 681.68-12.05Q681.68-11.9 681.68-11.75 681.68-11.6 681.73-11.45L681.73-11.45Q682.13-7.95 683.91-6.2 685.68-4.45 688.58-4.45L688.58-4.45Q689.93-4.45 691.31-5 692.68-5.55 693.83-6.13 694.98-6.7 695.68-6.7L695.68-6.7Q696.38-6.7 696.83-6.15L696.83-6.15 698.68-3.85Q697.33-2.3 695.56-1.35 693.78-0.4 691.86 0 689.93 0.4 688.03 0.4ZM681.78-15.8L681.78-15.8 693.23-15.8Q693.23-18.3 691.88-19.95 690.53-21.6 687.88-21.6L687.88-21.6Q685.23-21.6 683.71-20.1 682.18-18.6 681.78-15.8ZM711.58 0L705.28 0 705.28-25.7 709.13-25.7Q710.43-25.7 710.73-24.55L710.73-24.55 711.13-22.5Q712.73-24.15 714.63-25.13 716.53-26.1 719.08-26.1L719.08-26.1Q721.88-26.1 723.81-24.85 725.73-23.6 726.73-21.4 727.73-19.2 727.73-16.35L727.73-16.35 727.73 0 721.38 0 721.38-16.35Q721.38-18.65 720.33-19.95 719.28-21.25 717.13-21.25L717.13-21.25Q715.58-21.25 714.21-20.53 712.83-19.8 711.58-18.55L711.58-18.55 711.58 0ZM706.48 0L701.53 0 701.53-2.9Q701.53-3.6 701.91-3.95 702.28-4.3 702.98-4.45L702.98-4.45 705.83-5.05 706.48 0ZM715.33 0L710.38 0 711.03-5.05 713.88-4.45Q714.58-4.3 714.96-3.95 715.33-3.6 715.33-2.9L715.33-2.9 715.33 0ZM731.48 0L726.53 0 727.13-5.05 730.03-4.45Q730.68-4.3 731.08-3.95 731.48-3.6 731.48-2.9L731.48-2.9 731.48 0ZM701.53-25.7L706.48-25.7 705.83-20.65 702.98-21.25Q702.28-21.4 701.91-21.75 701.53-22.1 701.53-22.8L701.53-22.8 701.53-25.7ZM743.68 0.4L743.68 0.4Q740.33 0.4 738.5-1.5 736.68-3.4 736.68-6.75L736.68-6.75 736.68-21.05 734.08-21.05Q733.58-21.05 733.23-21.35 732.88-21.65 732.88-22.3L732.88-22.3 732.88-24.8 737.03-25.5 738.33-32.45Q738.53-33.5 739.73-33.5L739.73-33.5 742.98-33.5 742.98-25.45 749.73-25.45 749.73-21.05 742.98-21.05 742.98-7.15Q742.98-5.95 743.58-5.28 744.18-4.6 745.18-4.6L745.18-4.6Q745.73-4.6 746.18-4.83 746.63-5.05 747.03-5.25 747.43-5.45 747.73-5.45L747.73-5.45Q748.18-5.45 748.53-4.9L748.53-4.9 750.43-1.85Q749.08-0.8 747.33-0.2 745.58 0.4 743.68 0.4ZM777.77-26.1L777.77-26.1Q781.67-26.1 784.52-24.48 787.37-22.85 788.92-19.88 790.47-16.9 790.47-12.9L790.47-12.9Q790.47-8.9 788.92-5.93 787.37-2.95 784.52-1.28 781.67 0.4 777.77 0.4L777.77 0.4Q773.92 0.4 771.05-1.28 768.17-2.95 766.57-5.93 764.97-8.9 764.97-12.9L764.97-12.9Q764.97-16.9 766.57-19.88 768.17-22.85 771.05-24.48 773.92-26.1 777.77-26.1ZM777.77-4.4L777.77-4.4Q780.92-4.4 782.42-6.55 783.92-8.7 783.92-12.85L783.92-12.85Q783.92-15.65 783.27-17.53 782.62-19.4 781.25-20.35 779.87-21.3 777.77-21.3L777.77-21.3Q775.67-21.3 774.27-20.33 772.87-19.35 772.2-17.48 771.52-15.6 771.52-12.85L771.52-12.85Q771.52-8.8 773.05-6.6 774.57-4.4 777.77-4.4ZM803.37 0L797.02 0 797.02-21 794.87-21.35Q794.17-21.5 793.7-21.85 793.22-22.2 793.22-22.9L793.22-22.9 793.22-25.45 797.02-25.45 797.02-27.35Q797.02-31.75 799.65-34.27 802.27-36.8 806.72-36.8L806.72-36.8Q807.62-36.8 808.42-36.68 809.22-36.55 810.02-36.3L810.02-36.3 809.87-33.2Q809.82-32.6 809.42-32.35 809.02-32.1 808.62-32.1L808.62-32.1Q808.42-32.1 808.22-32.1 808.02-32.1 807.77-32.1L807.77-32.1Q805.47-32.1 804.32-30.98 803.17-29.85 803.17-27.1L803.17-27.1 803.17-25.45 809.77-25.45 809.77-21.05 803.37-21.05 803.37 0ZM798.22 0L793.27 0 793.27-2.9Q793.27-3.6 793.67-3.95 794.07-4.3 794.72-4.45L794.72-4.45 797.62-5.05 798.22 0ZM807.12 0L802.17 0 802.82-5.05 805.67-4.45Q806.37-4.3 806.75-3.95 807.12-3.6 807.12-2.9L807.12-2.9 807.12 0ZM842.17 0L828.37 0 828.37-36.2 840.97-36.2Q845.12-36.2 848.12-35.2 851.12-34.2 852.72-32.08 854.32-29.95 854.32-26.55L854.32-26.55Q854.32-24.75 853.59-23.23 852.87-21.7 851.47-20.55 850.07-19.4 847.92-18.7L847.92-18.7Q851.62-17.85 853.47-15.85 855.32-13.85 855.32-10.65L855.32-10.65Q855.32-7.4 853.69-5.03 852.07-2.65 849.12-1.33 846.17 0 842.17 0L842.17 0ZM835.27-15.85L835.27-5.3 842.02-5.3Q845.42-5.3 846.97-6.83 848.52-8.35 848.52-10.8L848.52-10.8Q848.52-13.25 846.94-14.55 845.37-15.85 841.97-15.85L841.97-15.85 835.27-15.85ZM835.27-30.9L835.27-20.55 840.57-20.55Q842.77-20.55 844.29-21.08 845.82-21.6 846.62-22.75 847.42-23.9 847.42-25.75L847.42-25.75Q847.42-28.55 845.84-29.73 844.27-30.9 840.97-30.9L840.97-30.9 835.27-30.9ZM829.62 0L824.67 0 824.67-2.9Q824.67-3.6 825.04-3.95 825.42-4.3 826.12-4.45L826.12-4.45 828.97-5.05 829.62 0ZM824.67-36.2L829.62-36.2 828.97-31.15 826.12-31.75Q825.42-31.9 825.04-32.25 824.67-32.6 824.67-33.3L824.67-33.3 824.67-36.2ZM868.06 0L861.76 0 861.76-37.2 868.06-37.2 868.06 0ZM862.96 0L858.01 0 858.01-2.9Q858.01-3.6 858.39-3.95 858.76-4.3 859.46-4.45L859.46-4.45 862.31-5.05 862.96 0ZM871.81 0L866.86 0 867.51-5.05 870.36-4.45Q871.06-4.3 871.44-3.95 871.81-3.6 871.81-2.9L871.81-2.9 871.81 0ZM858.01-37.2L862.96-37.2 862.31-32.15 859.46-32.75Q858.76-32.9 858.39-33.25 858.01-33.6 858.01-34.3L858.01-34.3 858.01-37.2ZM884.16 0L877.86 0 877.86-25.7 884.16-25.7 884.16 0ZM879.06 0L874.11 0 874.11-2.9Q874.11-3.6 874.49-3.95 874.86-4.3 875.56-4.45L875.56-4.45 878.41-5.05 879.06 0ZM887.91 0L882.96 0 883.61-5.05 886.46-4.45Q887.16-4.3 887.54-3.95 887.91-3.6 887.91-2.9L887.91-2.9 887.91 0ZM874.11-25.7L879.06-25.7 878.41-20.65 875.56-21.25Q874.86-21.4 874.49-21.75 874.11-22.1 874.11-22.8L874.11-22.8 874.11-25.7ZM881.11-29.25L881.11-29.25Q879.51-29.25 878.31-30.4 877.11-31.55 877.11-33.15L877.11-33.15Q877.11-34.8 878.31-35.98 879.51-37.15 881.11-37.15L881.11-37.15Q882.76-37.15 883.96-35.98 885.16-34.8 885.16-33.15L885.16-33.15Q885.16-31.55 883.96-30.4 882.76-29.25 881.11-29.25ZM898.81 0.4L898.81 0.4Q896.61 0.4 894.41 0 892.21-0.4 890.56-0.95L890.56-0.95 890.56-5.2 893.56-5.3Q894.16-4.8 895.71-4.38 897.26-3.95 898.96-3.95L898.96-3.95Q901.06-3.95 902.11-4.8 903.16-5.65 903.16-7L903.16-7Q903.16-8.25 902.23-8.93 901.31-9.6 899.88-10.05 898.46-10.5 896.96-11L896.96-11Q895.21-11.6 893.76-12.45 892.31-13.3 891.46-14.7 890.61-16.1 890.61-18.15L890.61-18.15Q890.61-20.5 891.83-22.3 893.06-24.1 895.23-25.1 897.41-26.1 900.31-26.1L900.31-26.1Q902.46-26.1 904.28-25.53 906.11-24.95 907.91-24.15L907.91-24.15 907.91-21 904.76-20.6Q903.86-20.9 902.81-21.23 901.76-21.55 900.51-21.55L900.51-21.55Q899.36-21.55 898.46-21.2 897.56-20.85 897.08-20.25 896.61-19.65 896.61-18.8L896.61-18.8Q896.61-17.65 897.61-16.98 898.61-16.3 900.11-15.83 901.61-15.35 902.91-14.9L902.91-14.9Q904.56-14.35 905.98-13.53 907.41-12.7 908.26-11.4 909.11-10.1 909.11-8.05L909.11-8.05Q909.11-5.55 907.86-3.65 906.61-1.75 904.31-0.68 902.01 0.4 898.81 0.4ZM904.06-18.8L903.46-22.35 907.91-21.25 907.91-17.35 905.61-17.35Q904.91-17.35 904.56-17.75 904.21-18.15 904.06-18.8L904.06-18.8ZM894.41-6.8L895.01-3.25 890.56-4.35 890.56-8.25 892.86-8.25Q893.61-8.25 893.93-7.85 894.26-7.45 894.41-6.8L894.41-6.8ZM920.61 0.4L920.61 0.4Q918.41 0.4 916.21 0 914.01-0.4 912.36-0.95L912.36-0.95 912.36-5.2 915.36-5.3Q915.96-4.8 917.51-4.38 919.06-3.95 920.76-3.95L920.76-3.95Q922.86-3.95 923.91-4.8 924.96-5.65 924.96-7L924.96-7Q924.96-8.25 924.03-8.93 923.11-9.6 921.68-10.05 920.26-10.5 918.76-11L918.76-11Q917.01-11.6 915.56-12.45 914.11-13.3 913.26-14.7 912.41-16.1 912.41-18.15L912.41-18.15Q912.41-20.5 913.63-22.3 914.86-24.1 917.03-25.1 919.21-26.1 922.11-26.1L922.11-26.1Q924.26-26.1 926.08-25.53 927.91-24.95 929.71-24.15L929.71-24.15 929.71-21 926.56-20.6Q925.66-20.9 924.61-21.23 923.56-21.55 922.31-21.55L922.31-21.55Q921.16-21.55 920.26-21.2 919.36-20.85 918.88-20.25 918.41-19.65 918.41-18.8L918.41-18.8Q918.41-17.65 919.41-16.98 920.41-16.3 921.91-15.83 923.41-15.35 924.71-14.9L924.71-14.9Q926.36-14.35 927.78-13.53 929.21-12.7 930.06-11.4 930.91-10.1 930.91-8.05L930.91-8.05Q930.91-5.55 929.66-3.65 928.41-1.75 926.11-0.68 923.81 0.4 920.61 0.4ZM925.86-18.8L925.26-22.35 929.71-21.25 929.71-17.35 927.41-17.35Q926.71-17.35 926.36-17.75 926.01-18.15 925.86-18.8L925.86-18.8ZM916.21-6.8L916.81-3.25 912.36-4.35 912.36-8.25 914.66-8.25Q915.41-8.25 915.73-7.85 916.06-7.45 916.21-6.8L916.21-6.8ZM936.95-21.9L936.95-36.2 942.85-36.2 942.85-21.9Q942.85-20.75 942.8-19.63 942.75-18.5 942.65-17.4 942.55-16.3 942.4-15.15 942.25-14 942.05-12.75L942.05-12.75 937.75-12.75Q937.6-14 937.43-15.15 937.25-16.3 937.15-17.4 937.05-18.5 937-19.63 936.95-20.75 936.95-21.9L936.95-21.9ZM935.95-3.4L935.95-3.4Q935.95-5 937.08-6.1 938.2-7.2 939.8-7.2L939.8-7.2Q941.45-7.2 942.58-6.1 943.7-5 943.7-3.4L943.7-3.4Q943.7-1.8 942.58-0.73 941.45 0.35 939.8 0.35L939.8 0.35Q938.2 0.35 937.08-0.73 935.95-1.8 935.95-3.4Z" opacity="1" transform="matrix(1,0,0,1,0,0)" fill="#bd1e58" class="slogan-text-1" data-fill-palette-color="secondary" id="text-1"></path></svg></g></svg></g></svg></g></svg></g><g><svg viewBox="0 0 145.86504273037724 145.8654480647406" height="145.8654480647406" width="145.86504273037724"><g><svg xmlns="http://www.w3.org/2000/svg" xmlns:xlink="http://www.w3.org/1999/xlink" version="1.1" x="0" y="0" viewBox="8.263180274934083 8.263379177099136 83.47484306020529 83.4750750227217" enable-background="new 0 0 100 100" xml:space="preserve" height="145.8654480647406" width="145.86504273037724" class="icon-icon-0" data-fill-palette-color="accent" id="icon-0"><g fill="#bd1e58" data-fill-palette-color="accent"><path fill="none" d="M50 32.322L32.322 50C27.448 54.874 27.448 62.804 32.322 67.678S45.126 72.552 50 67.678L67.678 50C72.552 45.126 72.552 37.196 67.678 32.322S54.874 27.448 50 32.322"></path><path fill="none" d="M27.011 69.101L16.696 71.866 23.118 76.215C23.381 76.394 23.608 76.62 23.786 76.884L28.135 83.306 30.899 72.991A17.5 17.5 0 0 1 28.787 71.215 17.6 17.6 0 0 1 27.011 69.101"></path><path fill="none" d="M71.865 16.695L69.1 27.011A17.5 17.5 0 0 1 71.212 28.786 17.4 17.4 0 0 1 72.987 30.898L83.303 28.134 76.881 23.785A2.5 2.5 0 0 1 76.212 23.117z"></path><path d="M80.084 19.916L72.937 9.361A2.5 2.5 0 0 0 68.453 10.115L64.559 24.645C58.426 22.533 51.351 23.9 46.465 28.786L28.787 46.464C23.901 51.35 22.534 58.425 24.646 64.558L10.116 68.452A2.5 2.5 0 0 0 8.298 70.451 2.5 2.5 0 0 0 9.361 72.936L19.916 80.083 27.063 90.639A2.5 2.5 0 0 0 31.549 89.884L35.442 75.354C41.575 77.466 48.65 76.099 53.536 71.212L71.214 53.534C76.101 48.648 77.468 41.573 75.356 35.44L89.886 31.547A2.501 2.501 0 0 0 90.641 27.062zM28.135 83.305L23.786 76.883A2.5 2.5 0 0 0 23.118 76.214L16.696 71.865 27.011 69.1A17.5 17.5 0 0 0 28.787 71.212 17.5 17.5 0 0 0 30.899 72.988zM67.678 50L50 67.678C45.126 72.552 37.196 72.552 32.322 67.678S27.448 54.874 32.322 50L50 32.322C54.874 27.448 62.804 27.448 67.678 32.322S72.552 45.126 67.678 50M76.883 23.786L83.305 28.135 72.989 30.899A17.4 17.4 0 0 0 71.214 28.787 17.4 17.4 0 0 0 69.102 27.012L71.867 16.696 76.216 23.118C76.393 23.38 76.619 23.607 76.883 23.786" fill="#bd1e58" data-fill-palette-color="accent"></path></g></svg></g></svg></g></svg></g><defs></defs></svg><rect width="395.52" height="103.37820443416116" fill="none" stroke="none" visibility="hidden"></rect></g></svg></g></svg>