<?xml version="1.0" encoding="iso-8859-1"?>
<!-- Uploaded to: SVG Repo, www.svgrepo.com, Generator: SVG Repo Mixer Tools -->
<svg height="800px" width="800px" version="1.1" id="Capa_1" xmlns="http://www.w3.org/2000/svg" xmlns:xlink="http://www.w3.org/1999/xlink" 
	 viewBox="0 0 400.594 400.594" xml:space="preserve">
<g>
	<path style="fill:#D4B783;" d="M153.63,238.506L21.785,370.351c-2.339,2.339-2.339,6.146,0,8.485
		c1.133,1.133,2.64,1.757,4.242,1.757c1.603,0,3.109-0.624,4.242-1.757l131.846-131.845c-1.467-1.351-2.911-2.737-4.33-4.155
		C156.367,241.417,154.98,239.973,153.63,238.506z"/>
	<path style="fill:#FF8598;" d="M322.769,38.293C303.618,26.379,281.486,20,258.371,20c-32.654,0-63.354,12.716-86.443,35.806
		c-23.091,23.09-35.807,53.79-35.807,86.444c0,25.107,7.518,49.058,21.487,69.284c-8.23-16.895-12.85-35.856-12.85-55.878
		c0-57.576,46.842-104.418,104.418-104.418c47.164,0,85.535,38.371,85.535,85.535c0,38.833-31.594,70.427-70.428,70.427
		c-32.17,0-58.343-26.172-58.343-58.342c0-26.839,21.835-48.674,48.674-48.674c22.574,0,40.939,18.365,40.939,40.939
		c0,5.523-4.478,10-10,10c-5.522,0-10-4.477-10-10c0-11.546-9.394-20.939-20.939-20.939c-15.81,0-28.674,12.863-28.674,28.674
		c0,21.142,17.2,38.342,38.343,38.342c27.806,0,50.428-22.622,50.428-50.427c0-36.136-29.399-65.535-65.535-65.535
		c-46.548,0-84.418,37.87-84.418,84.418c0,59.385,48.17,107.727,107.488,108.017C342.885,238.985,403.709,121.021,322.769,38.293z"
		/>
	<path d="M358.957,41.664C332.09,14.797,296.367,0,258.371,0s-73.719,14.797-100.586,41.664
		c-26.867,26.868-41.664,62.59-41.664,100.586c0,29.179,8.727,57.019,24.945,80.535L7.642,356.209
		c-10.137,10.137-10.137,26.632,0,36.769c4.91,4.911,11.439,7.616,18.385,7.616s13.475-2.705,18.385-7.615l133.424-133.423
		c23.517,16.218,51.357,24.945,80.535,24.945c37.996,0,73.719-14.797,100.586-41.664C414.42,187.373,414.42,97.128,358.957,41.664z
		 M30.269,378.836c-1.133,1.133-2.64,1.757-4.242,1.757c-1.603,0-3.109-0.624-4.242-1.757c-2.339-2.339-2.339-6.146,0-8.485
		L153.63,238.506c1.351,1.467,2.737,2.912,4.155,4.33c1.419,1.418,2.863,2.805,4.33,4.155L30.269,378.836z M344.814,228.694
		c-19.685,19.686-44.899,31.831-72.142,34.984c-0.142,0-0.284-0.005-0.426-0.006c-59.318-0.29-107.488-48.632-107.488-108.017
		c0-46.548,37.87-84.418,84.418-84.418c36.136,0,65.535,29.399,65.535,65.535c0,27.806-22.622,50.427-50.428,50.427
		c-21.143,0-38.343-17.2-38.343-38.342c0-15.811,12.863-28.674,28.674-28.674c11.546,0,20.939,9.393,20.939,20.939
		c0,5.523,4.478,10,10,10c5.522,0,10-4.477,10-10c0-22.574-18.365-40.939-40.939-40.939c-26.839,0-48.674,21.835-48.674,48.674
		c0,32.17,26.173,58.342,58.343,58.342c38.834,0,70.428-31.594,70.428-70.427c0-47.164-38.371-85.535-85.535-85.535
		c-57.576,0-104.418,46.842-104.418,104.418c0,20.022,4.619,38.984,12.85,55.878c-13.97-20.226-21.487-44.177-21.487-69.284
		c0-32.654,12.716-63.354,35.807-86.444C195.017,32.716,225.717,20,258.371,20c23.116,0,45.247,6.379,64.398,18.293
		c7.902,4.916,15.301,10.768,22.046,17.513C392.479,103.472,392.479,181.029,344.814,228.694z"/>
</g>
</svg>