<?xml version="1.0" encoding="iso-8859-1"?>
<!-- Generator: Adobe Illustrator 17.1.0, SVG Export Plug-In . SVG Version: 6.00 Build 0)  -->
<!DOCTYPE svg PUBLIC "-//W3C//DTD SVG 1.1//EN" "http://www.w3.org/Graphics/SVG/1.1/DTD/svg11.dtd">
<svg version="1.1" id="Capa_1" xmlns="http://www.w3.org/2000/svg" xmlns:xlink="http://www.w3.org/1999/xlink" x="0px" y="0px"
	 viewBox="0 0 416.984 416.984" style="enable-background:new 0 0 416.984 416.984;" xml:space="preserve">
<g>
	<g>
		<path style="fill:#F24646;" d="M48.323,333.519l16.79-16.79c-11.023-2.179-21.656-6.819-30.984-13.952l-7.52,7.521
			c-7.598,7.597-8.636,19.288-3.151,28.026C31.703,341.823,41.611,340.231,48.323,333.519z"/>
		<path style="fill:#F24646;" d="M160.417,221.425l8.341-8.341c-11.024-2.179-21.656-6.819-30.984-13.952l-35.19,35.19
			C122.104,241.333,144.807,237.036,160.417,221.425z"/>
		<path style="fill:#F24646;" d="M262.222,118.943c-8.463-6.135-15.654-14.028-20.989-23.268l-31.652,31.651
			c5.931,2.133,12.249,3.248,18.739,3.248C240.762,130.574,252.567,126.476,262.222,118.943z"/>
		<path style="fill:#F24646;" d="M374.594,98.971c-1.316-1.502-2.668-2.982-4.1-4.413c-10.326-10.327-22.552-17.636-35.558-21.925
			c-7.795,16.791-6.638,36.458,3.099,52.249C347.443,112.873,360.111,103.793,374.594,98.971z"/>
		<path style="fill:#F24646;" d="M360.204,213.92c4.7-4.7,8.771-9.795,12.221-15.176c-11.838-5.221-25.338-6.231-38.034-2.463
			c-1.653,3.18-2.529,6.733-2.529,10.42c0,4.334,1.229,8.471,3.489,12.047c2.764,1.175,5.759,1.8,8.852,1.8
			C350.247,220.548,355.929,218.194,360.204,213.92z"/>
	</g>
	<path d="M406.745,112.029c-0.043-0.096-0.087-0.191-0.133-0.286c-5.297-11.348-12.621-21.973-21.976-31.328
		c-14.878-14.877-32.972-24.622-52.066-29.235c-0.154-0.041-0.31-0.078-0.466-0.112c-31.811-7.538-66.343-0.856-93.342,20.045
		c-0.162,0.119-0.319,0.241-0.474,0.369c-3.495,2.737-6.866,5.717-10.083,8.933l-215.74,215.74
		c-16.622,16.622-16.622,43.668,0.001,60.29c8.311,8.31,19.228,12.466,30.145,12.466c10.917,0,21.834-4.155,30.145-12.466
		l112.049-112.049c0.014-0.014,0.031-0.031,0.045-0.045c0.005-0.005,0.01-0.011,0.016-0.016l51.753-51.754
		c0.019-0.018,0.035-0.035,0.054-0.053c0.007-0.007,0.013-0.014,0.02-0.02l51.741-51.742c0.021-0.021,0.042-0.041,0.063-0.062
		c0.006-0.006,0.012-0.012,0.018-0.018c9.885-9.864,25.954-9.861,35.833,0.018c0.623,0.623,1.208,1.272,1.753,1.941
		c0.047,0.06,0.094,0.119,0.142,0.179c0.032,0.04,0.065,0.08,0.098,0.121c7.84,9.941,7.176,24.442-1.992,33.61
		c-8.052,8.052-12.486,18.758-12.486,30.145c0,11.387,4.435,22.093,12.486,30.145c16.622,16.62,43.666,16.621,60.29,0v-0.001
		C418.332,203.149,425.703,152.947,406.745,112.029z M341.656,130.075c-1.318-1.674-2.521-3.411-3.62-5.194
		c-9.736-15.791-10.893-35.458-3.099-52.249c13.006,4.289,25.232,11.598,35.558,21.925c1.432,1.431,2.784,2.912,4.1,4.413
		c2.831,3.231,5.415,6.605,7.708,10.115c-14.887,4.595-27.855,13.679-37.249,25.78C344.037,133.214,342.904,131.612,341.656,130.075
		z M58.614,342.303c-8.823,8.824-23.182,8.824-32.005,0c-1.227-1.227-2.265-2.568-3.151-3.979
		c-5.485-8.738-4.447-20.429,3.151-28.026l7.52-7.521c9.327,7.133,19.961,11.773,30.984,13.952c5.83,1.152,11.766,1.629,17.68,1.395
		L58.614,342.303z M118.832,282.085c-19.135,19.086-48.885,21.211-70.388,6.377l37.507-37.507
		c14.259,10.905,31.553,16.016,48.664,15.347L118.832,282.085z M170.708,230.209c-19.132,19.133-48.921,21.278-70.44,6.43
		l2.317-2.317l35.19-35.19c9.328,7.133,19.96,11.773,30.984,13.952c5.829,1.152,11.765,1.628,17.68,1.395L170.708,230.209z
		 M222.531,178.386c-19.134,19.134-48.921,21.277-70.44,6.43l37.503-37.503c13.057,10.013,28.955,15.436,45.685,15.436
		c0.985,0,1.968-0.019,2.946-0.056L222.531,178.386z M274.354,126.563L274.354,126.563c-10.438,10.438-24.315,16.186-39.076,16.186
		c-11.371,0-22.218-3.411-31.371-9.749l5.674-5.674l31.652-31.651c5.336,9.241,12.527,17.133,20.989,23.268
		c3.896,2.824,8.061,5.278,12.439,7.316C274.558,126.36,274.456,126.461,274.354,126.563z M311.936,113.635
		c-1.581-0.192-3.172-0.301-4.763-0.327c-0.248-0.019-0.499-0.028-0.752-0.028c-21.154,0-40.217-12.032-49.467-30.581
		c17.453-11.377,37.984-16.125,58.024-14.237C309.305,82.96,308.329,98.756,311.936,113.635z M370.494,222.704
		c-4.274,4.274-9.957,6.629-16.002,6.629c-6.046,0-11.728-2.354-16.003-6.629c-1.21-1.21-2.248-2.543-3.14-3.955
		c-2.26-3.576-3.489-7.714-3.489-12.047c0-3.687,0.876-7.24,2.529-10.42c12.696-3.768,26.196-2.758,38.034,2.463
		c4.065,1.792,7.936,4.075,11.508,6.839C380.238,211.685,375.758,217.44,370.494,222.704z M392.448,187.065
		c-12.565-8.54-27.411-13.046-42.449-13.046c-0.307,0-0.614,0.002-0.922,0.006c0.564-1.572,1.039-3.167,1.426-4.782
		c0.048-0.171,0.093-0.345,0.133-0.521c4.706-20.618,20.672-36.523,40.808-41.418C398.49,146.52,398.824,167.666,392.448,187.065z"
		/>
</g>
<g>
</g>
<g>
</g>
<g>
</g>
<g>
</g>
<g>
</g>
<g>
</g>
<g>
</g>
<g>
</g>
<g>
</g>
<g>
</g>
<g>
</g>
<g>
</g>
<g>
</g>
<g>
</g>
<g>
</g>
</svg>
