<?xml version="1.0" encoding="iso-8859-1"?>
<!-- Uploaded to: SVG Repo, www.svgrepo.com, Generator: SVG Repo Mixer Tools -->
<svg height="800px" width="800px" version="1.1" id="Capa_1" xmlns="http://www.w3.org/2000/svg" xmlns:xlink="http://www.w3.org/1999/xlink" 
	 viewBox="0 0 440.585 440.585" xml:space="preserve">
<g>
	<g>
		<path style="fill:#F24646;" d="M220.293,112.115c2.55,0,4.98-0.508,7.212-1.408c2.062-3.077,3.268-6.773,3.268-10.747
			c0-10.677-8.686-19.363-19.363-19.363c-2.55,0-4.98,0.508-7.212,1.408c-2.062,3.077-3.268,6.773-3.268,10.748
			C200.929,103.429,209.616,112.115,220.293,112.115z"/>
		<polygon style="fill:#00D0C2;" points="90.164,319.501 91.722,326.709 112.004,420.584 141.313,420.584 130.2,319.501 		"/>
		<polygon style="fill:#00D0C2;" points="230.293,319.501 230.293,326.709 230.293,420.584 259.982,420.584 270.892,319.501 		"/>
		<polygon style="fill:#00D0C2;" points="160.171,319.501 160.95,326.709 171.091,420.584 201.41,420.584 201.056,319.501 		"/>
		<polygon style="fill:#00D0C2;" points="300.53,319.501 299.752,326.709 289.611,420.584 320.657,420.584 341.213,319.501 		"/>
		<path style="fill:#FDFFD0;" d="M353.929,253.573h-12.466c-3.706,0-7.107-2.049-8.84-5.325c-1.732-3.275-1.512-7.24,0.574-10.303
			c3.003-4.41,4.139-9.591,4.59-14.929c1.216-14.404-6.166-24.841-18.073-33.776h-22.756H186.337c-5.523,0-10-4.478-10-10
			c0-0.957,0.143-1.879,0.393-2.755c1.198-4.181,5.041-7.245,9.607-7.245h97.841c0.141-1.105,0.222-2.222,0.222-3.35
			c0-14.649-11.919-26.567-26.568-26.567h-92.843c-4.27,0-8.305,1.018-11.883,2.816c-3.627,4.543-5.802,10.292-5.802,16.543
			c0,5.357,1.587,10.52,4.589,14.929c2.086,3.062,2.307,7.028,0.575,10.304c-1.62,3.065-4.706,5.032-8.13,5.276
			c-0.237,0.017-0.47,0.049-0.71,0.049h-23.144c-8.398,0-15.894,3.921-20.766,10.024c-3.627,4.543-5.802,10.293-5.802,16.544
			c0,3.672,0.763,7.247,2.2,10.557h211.521c5.522,0,10,4.478,10,10c0,5.278-4.093,9.591-9.276,9.963
			c-0.24,0.017-0.479,0.037-0.724,0.037H77.773c-8.398,0-15.894,3.921-20.766,10.024c-3.627,4.543-5.803,10.293-5.803,16.544
			c0,14.649,11.918,26.567,26.568,26.567h285.039c4.27,0,8.305-1.019,11.884-2.816c3.626-4.543,5.802-10.292,5.802-16.543
			C380.498,265.492,368.579,253.573,353.929,253.573z"/>
	</g>
	<path d="M365.451,226.439c0.808-3.457,1.22-7.02,1.22-10.631c0-25.678-20.891-46.568-46.568-46.568h-8.022
		c0.797-3.435,1.203-6.972,1.203-10.558c0-25.678-20.891-46.567-46.568-46.567h-12.171c3.248-5.722,5.112-12.327,5.112-19.363
		c0-17.947-12.077-33.115-28.527-37.834C235.08,35.035,252.655,20,273.68,20c5.522,0,10-4.477,10-10s-4.478-10-10-10
		c-31.943,0-58.428,23.755-62.755,54.524c-17.196,4.215-29.996,19.751-29.996,38.228c0,7.036,1.865,13.641,5.112,19.363h-12.17
		c-25.678,0-46.568,20.89-46.568,46.567c0,3.586,0.407,7.124,1.203,10.558h-8.022c-25.678,0-46.568,20.891-46.568,46.568
		c0,3.611,0.413,7.174,1.22,10.631c-24.455,1.372-43.93,21.702-43.93,46.494c0,22.868,16.574,41.925,38.338,45.824l24.617,113.938
		c0.995,4.603,5.065,7.888,9.774,7.888h58.146c0.007,0,0.014,0.001,0.021,0.001c0.006,0,0.012-0.001,0.018-0.001h116.348
		c0.006,0,0.012,0.001,0.018,0.001c0.007,0,0.014-0.001,0.021-0.001h58.145c4.709,0,8.78-3.285,9.774-7.888l24.617-113.938
		c21.764-3.899,38.338-22.956,38.338-45.824C409.38,248.142,389.906,227.811,365.451,226.439z M204.198,82.004
		c3.477-5.19,9.392-8.616,16.095-8.616c10.677,0,19.363,8.687,19.363,19.363c0,8.127-5.039,15.088-12.151,17.955
		c-2.232,0.9-4.662,1.408-7.212,1.408c-10.677,0-19.363-8.686-19.363-19.363C200.929,88.778,202.136,85.082,204.198,82.004z
		 M141.313,420.584h-29.309l-20.282-93.875l-1.557-7.208H130.2h9.854l10.92,101.083H141.313z M210.293,420.584h-8.883h-30.319
		l-10.141-93.875l-0.779-7.208h40.884h9.237V420.584z M269.494,420.584h-8.104h-1.408h-29.69v-93.875v-7.208h40.6h9.521
		L269.494,420.584z M328.581,420.584h-7.326h-0.598h-31.046l10.141-93.875l0.779-7.208h40.682h9.208L328.581,420.584z
		 M374.696,296.685c-3.579,1.798-7.613,2.816-11.884,2.816H77.773c-14.65,0-26.568-11.918-26.568-26.567
		c0-6.251,2.176-12.001,5.803-16.544c4.872-6.103,12.367-10.024,20.766-10.024h229.862c0.244,0,0.484-0.02,0.724-0.037
		c5.183-0.372,9.276-4.685,9.276-9.963c0-5.522-4.478-10-10-10H96.115c-1.437-3.31-2.2-6.884-2.2-10.557
		c0-6.251,2.176-12.001,5.802-16.544c4.872-6.103,12.368-10.024,20.766-10.024h23.144c0.24,0,0.473-0.032,0.71-0.049
		c3.424-0.245,6.51-2.212,8.13-5.276c1.732-3.275,1.511-7.241-0.575-10.304c-3.002-4.409-4.589-9.571-4.589-14.929
		c0-6.251,2.175-12.001,5.802-16.543c4.872-6.103,12.368-10.024,20.766-10.024h92.843c14.649,0,26.568,11.918,26.568,26.567
		c0,3.673-0.763,7.248-2.2,10.558h-6.905h-97.841c-4.566,0-8.409,3.063-9.607,7.245c-0.251,0.876-0.393,1.798-0.393,2.755
		c0,5.522,4.477,10,10,10h110.621h22.756h0.388c14.649,0,26.568,11.919,26.568,26.568c0,5.356-1.587,10.519-4.59,14.929
		c-2.086,3.062-2.307,7.027-0.574,10.303c1.732,3.276,5.134,5.325,8.84,5.325h12.466c14.649,0,26.568,11.919,26.568,26.568
		C389.38,283.313,383.394,292.315,374.696,296.685z"/>
</g>
</svg>