<?xml version="1.0" encoding="iso-8859-1"?>
<!-- Generator: Adobe Illustrator 17.1.0, SVG Export Plug-In . SVG Version: 6.00 Build 0)  -->
<!DOCTYPE svg PUBLIC "-//W3C//DTD SVG 1.1//EN" "http://www.w3.org/Graphics/SVG/1.1/DTD/svg11.dtd">
<svg version="1.1" id="Capa_1" xmlns="http://www.w3.org/2000/svg" xmlns:xlink="http://www.w3.org/1999/xlink" x="0px" y="0px"
	 viewBox="0 0 417.008 417.008" style="enable-background:new 0 0 417.008 417.008;" xml:space="preserve">
<g>
	<g>
		<path d="M407.008,339.064H373.78c-0.036,0-0.072,0-0.108,0h-29.89v-80.193c2.044-0.696,4.372-1.084,7.284-1.084
			c5.522,0,10-4.478,10-10v-23.961c0-27.57-22.43-50-50-50h-76.563v-55.884c0-5.522-4.478-10-10-10h-32c-5.523,0-10,4.478-10,10
			v55.884h-76.563c-27.57,0-50,22.43-50,50v23.961c0,5.522,4.478,10,10,10c2.912,0,5.241,0.388,7.284,1.084v80.192H43.314
			c-0.02,0-0.041,0-0.061,0H10c-5.523,0-10,4.478-10,10c0,5.523,4.477,10,10,10h25.023l9.128,45.765
			c0.933,4.677,5.038,8.044,9.807,8.044H363.05c4.769,0,8.874-3.367,9.807-8.044l9.128-45.765h25.023c5.522,0,10-4.477,10-10
			C417.008,343.542,412.53,339.064,407.008,339.064z M160.977,257.788c8.232,0,11.848,3.044,17.321,7.65
			c6.536,5.502,14.671,12.35,30.199,12.35c2.026,0,3.915-0.126,5.701-0.342c0.838-0.101,1.66-0.216,2.45-0.358
			c10.433-1.879,16.765-7.202,22.05-11.649c0.813-0.685,1.583-1.33,2.335-1.94c4.311-3.499,7.976-5.71,14.983-5.71
			c8.233,0,11.85,3.044,17.323,7.65c6.537,5.502,14.673,12.35,30.202,12.35c2.122,0,4.101-0.133,5.961-0.368
			c5.81-0.733,10.423-2.505,14.28-4.687v66.331h-14.28H93.226v-55.95v-10.378c5.09,2.88,11.489,5.052,20.233,5.052
			c2.129,0,4.112-0.135,5.976-0.373c0.742-0.094,1.469-0.201,2.173-0.328c10.433-1.878,16.765-7.202,22.05-11.649
			c0.813-0.685,1.583-1.33,2.336-1.94C150.305,259.999,153.969,257.788,160.977,257.788z M202.504,173.827v-45.524v-0.36h12v0.36
			v45.524v0.36h-12V173.827z M75.941,223.827c0-6.565,2.126-12.64,5.717-17.585c5.457-7.515,14.306-12.415,24.283-12.415h205.125
			c16.542,0,30,13.458,30,30v15.034c-5.942,1.361-10.482,3.859-14.28,6.572c-2.177,1.556-4.112,3.181-5.922,4.704
			c-1.389,1.169-2.658,2.236-3.913,3.179c-1.325,0.995-2.638,1.847-4.057,2.536c-2.535,1.232-5.413,1.935-9.353,1.935
			c-8.233,0-11.85-3.044-17.323-7.65c-6.537-5.502-14.673-12.35-30.202-12.35c-15.528,0-23.662,6.848-30.198,12.35
			c-1.391,1.171-2.662,2.239-3.919,3.183c-1.318,0.99-2.624,1.838-4.034,2.524c-2.538,1.237-5.42,1.943-9.367,1.943
			c-8.232,0-11.847-3.044-17.32-7.65c-6.536-5.502-14.671-12.35-30.2-12.35c-15.528,0-23.662,6.848-30.198,12.35
			c-1.39,1.17-2.661,2.238-3.917,3.182c-1.319,0.991-2.626,1.839-4.037,2.526c-2.538,1.236-5.419,1.942-9.365,1.942
			c-8.23,0-11.847-3.044-17.318-7.65c-4.965-4.179-10.852-9.134-20.199-11.275V223.827z M354.848,392.873h-13.011H62.16
			l-5.475-27.449l-1.269-6.36h293.409h12.765L354.848,392.873z"/>
		<path d="M208.504,97.943c20.349,0,36.904-16.556,36.904-36.904c0-17.166-22.385-45.162-29.245-53.334
			c-1.9-2.264-4.704-3.57-7.659-3.57c-2.955,0-5.759,1.307-7.659,3.57c-6.86,8.172-29.245,36.168-29.245,53.334
			C171.6,81.388,188.155,97.943,208.504,97.943z M202.295,39.146c1.939-2.922,4.037-5.911,6.212-8.848
			c9.092,12.27,16.901,25.48,16.901,30.741c0,7.187-4.516,13.325-10.854,15.766c-1.882,0.725-3.917,1.139-6.05,1.139
			c-9.321,0-16.904-7.583-16.904-16.904C191.6,57.046,196.127,48.441,202.295,39.146z"/>
	</g>
	<g>
		<path style="fill:#EA703B;" d="M208.504,77.943c2.134,0,4.169-0.414,6.05-1.139c1.797-2.685,2.848-5.909,2.848-9.375
			c0-4.912-6.807-16.75-15.108-28.283c-6.168,9.295-10.696,17.9-10.696,21.893C191.6,70.36,199.183,77.943,208.504,77.943z"/>
		<path style="fill:#EF849D;" d="M113.459,257.788c3.946,0,6.827-0.706,9.365-1.942c1.256-0.88,2.594-1.731,4.037-2.526
			c1.257-0.944,2.527-2.012,3.917-3.182c6.536-5.502,14.67-12.35,30.198-12.35c15.529,0,23.664,6.848,30.2,12.35
			c5.474,4.606,9.089,7.65,17.32,7.65c3.947,0,6.829-0.706,9.367-1.943c1.255-0.879,2.593-1.73,4.034-2.524
			c1.257-0.945,2.528-2.013,3.919-3.183c6.536-5.502,14.67-12.35,30.198-12.35c15.529,0,23.665,6.848,30.202,12.35
			c5.474,4.606,9.09,7.65,17.323,7.65c3.94,0,6.818-0.703,9.353-1.935c1.261-0.884,2.608-1.738,4.057-2.536
			c1.255-0.943,2.525-2.01,3.913-3.179c1.81-1.523,3.745-3.149,5.922-4.704V234.52c0-16.542-13.458-30-30-30H91.662
			c-3.507,0-6.872,0.611-10.003,1.721c-3.591,4.945-5.717,11.02-5.717,17.585v15.035c9.348,2.142,15.234,7.097,20.199,11.275
			C101.612,254.744,105.229,257.788,113.459,257.788z"/>
		<path style="fill:#89634A;" d="M121.609,277.087c-0.793,0.514-1.504,0.578-2.173,0.328c-1.865,0.237-3.847,0.373-5.976,0.373
			c-8.744,0-15.144-2.172-20.233-5.052v10.378v55.95h216.277V277.42c-1.861,0.235-3.839,0.368-5.961,0.368
			c-15.529,0-23.665-6.848-30.202-12.35c-5.474-4.607-9.09-7.65-17.323-7.65c-7.007,0-10.672,2.211-14.983,5.71
			c-0.752,0.611-1.522,1.256-2.335,1.94c-5.284,4.447-11.617,9.77-22.05,11.649c-0.834,0.541-1.643,0.615-2.45,0.358
			c-1.786,0.216-3.675,0.342-5.701,0.342c-15.528,0-23.663-6.848-30.199-12.35c-5.474-4.607-9.089-7.65-17.321-7.65
			c-7.007,0-10.672,2.211-14.983,5.71c-0.753,0.611-1.522,1.256-2.336,1.94C138.374,269.886,132.042,275.209,121.609,277.087z"/>
		<polygon style="fill:#C9F5FF;" points="55.417,359.064 56.686,365.424 62.16,392.873 341.836,392.873 348.826,359.064 		"/>
		<polygon style="fill:#00D0C2;" points="214.504,173.827 214.504,128.303 202.504,128.303 202.504,173.827 202.504,174.187 
			214.504,174.187 		"/>
	</g>
</g>
<g>
</g>
<g>
</g>
<g>
</g>
<g>
</g>
<g>
</g>
<g>
</g>
<g>
</g>
<g>
</g>
<g>
</g>
<g>
</g>
<g>
</g>
<g>
</g>
<g>
</g>
<g>
</g>
<g>
</g>
</svg>
