<?xml version="1.0" encoding="iso-8859-1"?>
<!-- Generator: Adobe Illustrator 17.1.0, SVG Export Plug-In . SVG Version: 6.00 Build 0)  -->
<!DOCTYPE svg PUBLIC "-//W3C//DTD SVG 1.1//EN" "http://www.w3.org/Graphics/SVG/1.1/DTD/svg11.dtd">
<svg version="1.1" id="Capa_1" xmlns="http://www.w3.org/2000/svg" xmlns:xlink="http://www.w3.org/1999/xlink" x="0px" y="0px"
	 viewBox="0 0 332.545 332.545" style="enable-background:new 0 0 332.545 332.545;" xml:space="preserve">
<g>
	<path style="fill:#FF8598;" d="M291.69,258.823c0-32.054-4.966-65.161-14.072-96.042c-2.226,3.976-6.475,6.673-11.346,6.673
		c-7.168,0-13-5.832-13-13c0-7.168,5.832-13,13-13c1.942,0,3.78,0.44,5.437,1.207c-24.238-67.51-68.844-120.275-124.476-120.275
		c-3.398,0-6.75,0.218-10.064,0.603C67.934,49.102,21.828,156.682,21.828,254.437c0,37.743,74.421,58.108,144.444,58.108
		c21.976,0,44.384-2.007,64.79-5.926C266.218,297.031,291.69,280.902,291.69,258.823z M66.272,169.454c-7.168,0-13-5.832-13-13
		c0-7.168,5.832-13,13-13s13,5.832,13,13C79.272,163.622,73.44,169.454,66.272,169.454z M116.272,219.454c-7.168,0-13-5.832-13-13
		c0-7.168,5.832-13,13-13s13,5.832,13,13C129.273,213.622,123.44,219.454,116.272,219.454z M116.272,119.454
		c-7.168,0-13-5.832-13-13c0-7.168,5.832-13,13-13s13,5.832,13,13C129.273,113.622,123.44,119.454,116.272,119.454z
		 M166.273,169.454c-7.168,0-13-5.832-13-13c0-7.168,5.832-13,13-13s13,5.832,13,13
		C179.273,163.622,173.441,169.454,166.273,169.454z M166.273,69.454c-7.168,0-13-5.832-13-13c0-7.168,5.832-13,13-13
		s13,5.832,13,13C179.273,63.622,173.441,69.454,166.273,69.454z M216.273,219.454c-7.168,0-13-5.832-13-13c0-7.168,5.832-13,13-13
		s13,5.832,13,13C229.273,213.622,223.441,219.454,216.273,219.454z M216.273,119.454c-7.168,0-13-5.832-13-13
		c0-7.168,5.832-13,13-13s13,5.832,13,13C229.273,113.622,223.441,119.454,216.273,119.454z"/>
	<g>
		<path d="M286.171,83.099C254.704,29.512,212.118,0,166.26,0C120.403,0,77.823,29.512,46.362,83.099
			C18.061,131.306,1.828,193.756,1.828,254.437c0,17.784,9.475,42.697,54.614,60.392c29.145,11.425,68.15,17.717,109.83,17.717
			s80.685-6.292,109.83-17.717c45.14-17.694,54.614-42.607,54.614-60.392C330.717,193.758,314.48,131.308,286.171,83.099z
			 M231.063,306.619c-20.406,3.919-42.814,5.926-64.79,5.926c-70.023,0-144.444-20.365-144.444-58.108
			c0-97.755,46.106-205.335,115.341-229.446c9.3-3.239,19.011-4.99,29.09-4.99c85.131,0,144.457,123.552,144.457,234.437
			C310.717,280.335,275.677,298.049,231.063,306.619z"/>
		<path d="M166.273,43.454c-7.168,0-13,5.832-13,13c0,7.168,5.832,13,13,13s13-5.832,13-13
			C179.273,49.286,173.441,43.454,166.273,43.454z"/>
		<path d="M166.273,143.454c-7.168,0-13,5.832-13,13c0,7.168,5.832,13,13,13s13-5.832,13-13
			C179.273,149.286,173.441,143.454,166.273,143.454z"/>
		<path d="M116.272,93.454c-7.168,0-13,5.832-13,13c0,7.168,5.832,13,13,13s13-5.832,13-13
			C129.273,99.286,123.44,93.454,116.272,93.454z"/>
		<path d="M216.273,93.454c-7.168,0-13,5.832-13,13c0,7.168,5.832,13,13,13s13-5.832,13-13
			C229.273,99.286,223.441,93.454,216.273,93.454z"/>
		<path d="M116.272,193.454c-7.168,0-13,5.832-13,13c0,7.168,5.832,13,13,13s13-5.832,13-13
			C129.273,199.286,123.44,193.454,116.272,193.454z"/>
		<path d="M66.272,143.454c-7.168,0-13,5.832-13,13c0,7.168,5.832,13,13,13s13-5.832,13-13
			C79.272,149.286,73.44,143.454,66.272,143.454z"/>
		<path d="M216.273,193.454c-7.168,0-13,5.832-13,13c0,7.168,5.832,13,13,13s13-5.832,13-13
			C229.273,199.286,223.441,193.454,216.273,193.454z"/>
		<path d="M253.273,156.454c0,7.168,5.832,13,13,13c4.871,0,9.12-2.697,11.346-6.673c1.05-1.875,1.654-4.03,1.654-6.327
			c0-5.225-3.106-9.729-7.563-11.793c-1.657-0.767-3.494-1.207-5.437-1.207C259.104,143.454,253.273,149.286,253.273,156.454z"/>
	</g>
</g>
<g>
</g>
<g>
</g>
<g>
</g>
<g>
</g>
<g>
</g>
<g>
</g>
<g>
</g>
<g>
</g>
<g>
</g>
<g>
</g>
<g>
</g>
<g>
</g>
<g>
</g>
<g>
</g>
<g>
</g>
</svg>
