<?xml version="1.0" encoding="iso-8859-1"?>
<!-- Uploaded to: SVG Repo, www.svgrepo.com, Generator: SVG Repo Mixer Tools -->
<svg height="800px" width="800px" version="1.1" id="Capa_1" xmlns="http://www.w3.org/2000/svg" xmlns:xlink="http://www.w3.org/1999/xlink" 
	 viewBox="0 0 400.765 400.765" xml:space="preserve">
<g>
	<g>
		<path style="fill:#58C6C6;" d="M249.043,98.146c-22.642-10.749-48.141-13.573-72.28-8.464c-5.186,24.522-1.994,49.87,8.492,72.061
			C198.596,136.599,218.589,111.618,249.043,98.146z"/>
		<path style="fill:#F98FD1;" d="M129.516,112.081c-3.177,2.554-6.251,5.297-9.197,8.243
			c-12.864,12.864-22.251,28.276-27.689,45.101c24.046,21.643,56.277,31.901,88.101,28.477
			C156.675,173.802,136.077,142.321,129.516,112.081z"/>
		<path style="fill:#FDFFD0;" d="M94.324,301.914c-0.592-0.592-1.095-1.241-1.508-1.928c-2.202-1.928-4.351-3.936-6.442-6.021
			c-0.086-0.083-0.17-0.168-0.253-0.253c-2.09-2.096-4.103-4.249-6.035-6.456c-0.688-0.413-1.336-0.915-1.929-1.508
			c-0.002-0.002-0.011-0.01-0.027-0.024c-6.056,0.961-13.847,2.732-23.873,5.801c-10.879,3.33-21.299,7.26-28.798,10.267
			c1.277,2.611,2.058,4.978,2.763,7.118c1.294,3.922,2.148,6.514,6.3,10.665c4.152,4.152,6.744,5.007,10.667,6.301
			c4.913,1.621,11.029,3.638,18.543,11.151c7.515,7.515,9.532,13.631,11.153,18.545c1.294,3.923,2.149,6.516,6.302,10.668
			c0.27,0.27,0.533,0.525,0.791,0.768c2.39-6.306,5.004-13.668,7.326-21.256C100.622,308.771,94.389,301.979,94.324,301.914z"/>
		<path style="fill:#F24646;" d="M116.286,276.202c26.595-8.662,48.871-26.881,62.777-50.577
			c-38.521,8.066-68.488-1.858-91.896-24.449c0.04,5.786,0.508,11.504,1.395,17.117c0.074,0.325,0.12,0.612,0.141,0.864
			C92.222,240.368,101.689,260.05,116.286,276.202z"/>
		<path style="fill:#58C6C6;" d="M195.734,236.719c-14.516,24.252-36.521,43.526-62.831,54.613
			c19.403,14.461,42.839,22.276,67.478,22.276c0.621,0,1.239-0.014,1.858-0.024C209.429,283.825,207.09,258.572,195.734,236.719z"/>
		<path style="fill:#F98FD1;" d="M219.765,206.897c-0.145,0.016-0.291,0.027-0.436,0.044c21.016,27.73,30.416,62.843,26.069,97.4
			c12.917-5.597,24.79-13.641,35.043-23.895c7.471-7.471,13.673-15.738,18.616-24.527
			C281.637,230.172,248.489,211.493,219.765,206.897z"/>
		<path style="fill:#F24646;" d="M229.08,186.267c0.998-0.022,1.996-0.046,2.993-0.046c28.959,0,57.44,9.447,80.746,27.083
			c3.019-26.494-3.277-53.853-18.884-76.719C265.313,146.201,243.201,163.897,229.08,186.267z"/>
		<path style="fill:#FDFFD0;" d="M355.368,98.217c-1.277-2.612-2.059-4.979-2.765-7.119c-1.294-3.923-2.148-6.516-6.302-10.668
			c-4.152-4.153-6.744-5.008-10.668-6.302c-4.914-1.621-11.03-3.639-18.545-11.153c-7.514-7.514-9.531-13.63-11.152-18.544
			c-1.294-3.922-2.148-6.514-6.3-10.665c-0.268-0.268-0.53-0.522-0.786-0.764c-2.39,6.306-5.004,13.668-7.326,21.256
			c-11.319,36.981-5.086,43.773-5.021,43.837c0.595,0.595,1.1,1.247,1.514,1.938c2.199,1.923,4.349,3.93,6.446,6.022
			c0.082,0.08,0.163,0.16,0.242,0.243c2.091,2.096,4.105,4.251,6.038,6.458c0.687,0.413,1.334,0.915,1.927,1.507
			c0.002,0.002,0.011,0.01,0.027,0.024c6.056-0.961,13.847-2.733,23.873-5.802C337.448,105.155,347.869,101.224,355.368,98.217z"/>
	</g>
	<path d="M397.837,96.257c-4.153-4.152-5.008-6.745-6.302-10.668c-1.622-4.914-3.64-11.03-11.153-18.545
		c-7.515-7.514-13.631-9.532-18.545-11.153c-3.924-1.294-6.516-2.149-10.668-6.302c-4.152-4.152-5.007-6.743-6.301-10.667
		c-1.621-4.913-3.639-11.029-11.151-18.543c-7.514-7.513-13.63-9.53-18.544-11.151c-3.922-1.294-6.514-2.148-10.664-6.299
		c-2.324-2.324-5.637-3.357-8.874-2.766c-3.232,0.593-5.968,2.735-7.316,5.733c-0.369,0.82-9.116,20.335-15.864,42.333
		c-4.334,14.128-6.843,25.916-7.528,35.589c-30.124-16.662-65.382-20.78-98.043-12.35c-0.654,0.106-1.294,0.277-1.907,0.507
		c-21.551,5.904-41.9,17.306-58.798,34.205c-25.163,25.162-39.02,58.617-39.02,94.203c0.001,22.951,5.767,45.019,16.611,64.545
		c-9.664,0.691-21.437,3.199-35.538,7.525c-21.998,6.748-41.514,15.495-42.333,15.864c-2.997,1.349-5.14,4.084-5.732,7.316
		c-0.593,3.232,0.441,6.55,2.765,8.874c4.151,4.151,5.006,6.743,6.299,10.665c1.621,4.914,3.638,11.03,11.151,18.543
		c7.514,7.514,13.63,9.531,18.544,11.152c3.923,1.294,6.514,2.149,10.665,6.3c4.153,4.152,5.008,6.745,6.302,10.668
		c1.621,4.915,3.639,11.03,11.153,18.544c7.515,7.515,13.631,9.532,18.545,11.153c3.923,1.294,6.516,2.149,10.668,6.302
		c1.893,1.893,4.443,2.93,7.071,2.929c0.599,0,1.203-0.054,1.803-0.164c3.233-0.592,5.968-2.735,7.317-5.732
		c0.369-0.82,9.116-20.335,15.864-42.333c4.326-14.102,6.834-25.874,7.525-35.538c19.527,10.846,41.592,16.61,64.545,16.61
		c35.585,0,69.04-13.857,94.202-39.019c25.163-25.164,39.022-58.62,39.022-94.206c0.001-22.954-5.763-45.02-16.608-64.547
		c9.664-0.691,21.436-3.199,35.538-7.525c21.998-6.748,41.514-15.495,42.334-15.864c2.996-1.349,5.14-4.084,5.732-7.317
		C401.194,101.898,400.16,98.581,397.837,96.257z M312.82,213.304c-23.307-17.636-51.787-27.083-80.746-27.083
		c-0.997,0-1.995,0.024-2.993,0.046c-4.515,0.102-9.038,0.421-13.549,0.987c12.857-29.564,37.982-52.601,68.951-62.686
		c3.461,3.834,6.611,7.852,9.454,12.017C309.543,159.451,315.839,186.81,312.82,213.304z M87.166,201.176
		c-0.002-0.264-0.009-0.528-0.009-0.793c0-4.362,0.245-8.687,0.729-12.957c27.747,21.018,62.84,30.424,97.346,26.092
		c-1.815,4.174-3.883,8.212-6.169,12.107c-13.906,23.696-36.182,41.914-62.777,50.577c-14.596-16.152-24.064-35.834-27.584-57.044
		c-0.048-0.288-0.095-0.576-0.141-0.864C87.674,212.68,87.206,206.962,87.166,201.176z M185.255,161.744
		c-10.486-22.191-13.678-47.539-8.492-72.061c24.14-5.109,49.639-2.286,72.28,8.464c6.541,3.105,12.846,6.867,18.808,11.297
		c-32.078,13.521-57.768,39.208-71.268,71.257C192.171,174.736,188.39,168.38,185.255,161.744z M181.434,193.832
		c-0.234,0.027-0.469,0.045-0.703,0.071c-31.824,3.424-64.055-6.834-88.101-28.477c5.438-16.825,14.825-32.237,27.689-45.101
		c2.947-2.947,6.021-5.69,9.197-8.243c8.021-6.447,16.72-11.648,25.84-15.588C151.029,131.03,160.431,166.118,181.434,193.832z
		 M109.24,346.508c-3.329,10.878-7.26,21.299-10.267,28.797c-2.612-1.277-4.979-2.058-7.119-2.764
		c-3.668-1.21-6.173-2.038-9.877-5.534c-0.258-0.243-0.521-0.498-0.791-0.768c-4.153-4.152-5.008-6.745-6.302-10.668
		c-1.621-4.914-3.639-11.03-11.153-18.545c-7.514-7.513-13.629-9.53-18.543-11.151c-3.923-1.294-6.515-2.149-10.667-6.301
		c-4.151-4.151-5.006-6.743-6.3-10.665c-0.705-2.14-1.486-4.506-2.763-7.118c7.499-3.006,17.919-6.937,28.798-10.267
		c10.026-3.069,17.818-4.84,23.873-5.801c16.281-2.584,19.917,0.734,19.964,0.78c0.593,0.593,1.241,1.095,1.929,1.508
		c1.932,2.207,3.945,4.36,6.035,6.456c0.083,0.086,0.167,0.17,0.253,0.253c2.091,2.085,4.24,4.094,6.442,6.021
		c0.413,0.688,0.916,1.336,1.508,1.928C114.326,302.735,120.559,309.527,109.24,346.508z M223.984,311.159
		c-7.081,1.494-14.356,2.307-21.745,2.425c-0.619,0.01-1.237,0.024-1.858,0.024c-24.639,0-48.075-7.815-67.478-22.276
		c26.31-11.087,48.315-30.361,62.831-54.613c3.185-5.322,6.015-10.879,8.445-16.646
		C223.363,245.998,230.747,279.285,223.984,311.159z M299.057,255.92c-4.943,8.789-11.145,17.056-18.616,24.527
		c-10.253,10.254-22.126,18.298-35.043,23.895c4.347-34.557-5.054-69.67-26.069-97.4c0.145-0.016,0.291-0.028,0.436-0.044
		c31.884-3.507,64.202,6.729,88.311,28.399C305.788,242.391,302.778,249.303,299.057,255.92z M346.507,109.241
		c-35.813,10.962-43.314,5.462-43.81,5.045c-0.016-0.014-0.025-0.022-0.027-0.024c-0.593-0.592-1.24-1.094-1.927-1.507
		c-1.933-2.207-3.947-4.362-6.038-6.458c-0.079-0.083-0.16-0.163-0.242-0.243c-2.098-2.092-4.247-4.099-6.446-6.022
		c-0.414-0.691-0.919-1.342-1.514-1.938c-0.065-0.064-6.298-6.856,5.021-43.837c2.322-7.588,4.936-14.95,7.326-21.256
		c1.036-2.735,2.031-5.274,2.941-7.542c2.61,1.276,4.978,2.057,7.117,2.763c3.923,1.294,6.514,2.148,10.665,6.3
		c4.151,4.151,5.006,6.743,6.3,10.665c1.621,4.914,3.639,11.03,11.152,18.544c7.515,7.514,13.631,9.532,18.545,11.153
		c3.924,1.294,6.516,2.149,10.668,6.302c4.153,4.152,5.008,6.745,6.302,10.668c0.706,2.14,1.487,4.507,2.765,7.119
		C367.806,101.981,357.385,105.911,346.507,109.241z"/>
</g>
</svg>