<?xml version="1.0" encoding="iso-8859-1"?>
<!-- Uploaded to: SVG Repo, www.svgrepo.com, Generator: SVG Repo Mixer Tools -->
<svg height="800px" width="800px" version="1.1" id="Capa_1" xmlns="http://www.w3.org/2000/svg" xmlns:xlink="http://www.w3.org/1999/xlink" 
	 viewBox="0 0 410.041 410.041" xml:space="preserve">
<g>
	<path style="fill:#FFD0FA;" d="M302.618,237.648c-0.523-2.812,0.182-5.715,1.939-7.972c1.756-2.258,4.396-3.655,7.25-3.839
		c15.779-1.015,30.623-7.726,41.796-18.898c24.54-24.54,25.537-63.899,2.27-89.603c-2.526-2.79-3.271-6.763-1.928-10.278
		c7.122-18.65,2.614-39.811-11.485-53.909c-9.559-9.558-22.364-14.701-35.432-14.808c-0.377,0.134-0.755,0.264-1.13,0.408
		c-2.205,0.841-4.588,0.862-6.748,0.138c-3.579,0.533-7.133,1.453-10.6,2.777c-3.516,1.342-7.488,0.599-10.278-1.928
		c-12.956-11.729-29.381-17.284-45.629-16.775c-9.749,3.041-18.919,8.423-26.626,16.131c-11.172,11.171-17.884,26.014-18.898,41.794
		c-0.184,2.855-1.581,5.494-3.838,7.251c-2.257,1.756-5.161,2.461-7.972,1.938c-2.474-0.461-4.953-0.806-7.432-1.053
		c-10.82-1.076-21.626-0.133-31.905,2.676c-14.522,3.969-27.989,11.653-38.944,22.608c-32.186,32.185-34.282,84.482-4.772,119.059
		c3.558,4.169,3.097,10.426-1.033,14.028c-1.027,0.896-1.842,1.65-2.566,2.374c-4.83,4.83-5.704,12.123-2.6,21.679
		c3.282,10.104,10.88,21.618,20.85,31.6c0.015,0.015,0.03,0.029,0.045,0.044c0.015,0.015,0.029,0.03,0.045,0.045
		c10.589,10.576,23.853,19.259,35.171,21.852c0.256-0.223,0.515-0.441,0.759-0.686c0.815-0.815,1.619-1.677,2.388-2.558
		c1.976-2.266,4.75-3.427,7.541-3.427c2.296,0,4.604,0.787,6.486,2.393c0.291,0.248,0.593,0.476,0.886,0.72
		c0.015-0.015,0.032-0.027,0.047-0.042c0.815-0.816,1.619-1.677,2.388-2.558c1.976-2.266,4.75-3.427,7.541-3.427
		c2.296,0,4.604,0.787,6.486,2.393c17.975,15.335,40.736,22.111,62.972,20.579c14.259-3.895,27.679-11.397,38.727-22.446
		C298.872,295.443,307.931,266.18,302.618,237.648z M237.648,102.297c-2.56,0-5.118-0.977-7.071-2.929
		c-3.905-3.905-3.905-10.237,0.001-14.143c17.455-17.453,45.856-17.455,63.31,0c3.906,3.905,3.906,10.237,0,14.143
		c-3.904,3.904-10.237,3.904-14.142,0c-9.658-9.658-25.371-9.657-35.027,0C242.766,101.321,240.207,102.297,237.648,102.297z
		 M261.372,274.63c-1.952,1.952-4.512,2.929-7.071,2.929c-2.56,0-5.118-0.977-7.071-2.929c-3.905-3.905-3.905-10.237,0.001-14.143
		c4.678-4.678,7.254-10.897,7.254-17.513c0-6.615-2.576-12.835-7.254-17.513c-3.905-3.905-3.906-10.237-0.001-14.143
		c3.905-3.904,10.237-3.904,14.142,0c8.456,8.455,13.112,19.697,13.112,31.655C274.484,254.933,269.828,266.175,261.372,274.63z"/>
	<g>
		<path d="M247.23,211.32c-3.905,3.905-3.905,10.237,0.001,14.143c4.678,4.678,7.254,10.897,7.254,17.513
			c0,6.615-2.576,12.835-7.254,17.513c-3.905,3.905-3.906,10.237-0.001,14.143c1.953,1.952,4.512,2.929,7.071,2.929
			c2.559,0,5.119-0.977,7.071-2.929c8.456-8.455,13.112-19.697,13.112-31.655c0-11.958-4.657-23.2-13.112-31.655
			C257.467,207.416,251.135,207.416,247.23,211.32z"/>
		<path d="M279.745,99.369c3.904,3.904,10.237,3.904,14.142,0c3.906-3.905,3.906-10.237,0-14.143
			c-17.454-17.455-45.855-17.453-63.31,0c-3.905,3.905-3.906,10.237-0.001,14.143c1.953,1.952,4.512,2.929,7.071,2.929
			c2.559,0,5.119-0.977,7.071-2.929C254.375,89.711,270.087,89.71,279.745,99.369z"/>
		<path d="M391.889,105.548c7.032-24.521,0.296-51.221-17.939-69.456c-18.235-18.234-44.937-24.971-69.456-17.939
			C270.925-8.263,222.546-5.723,191.875,24.95c-12.075,12.074-20.165,27.428-23.359,44.039c-31.591-2.745-62.981,8.526-85.63,31.176
			c-19.306,19.307-30.497,44.957-31.51,72.227c-0.893,24.054,6.177,47.437,20.039,66.771c-7.667,10.029-9.241,23.497-4.379,38.464
			c3.461,10.652,10.08,21.858,18.977,32.263L2.93,392.969c-3.905,3.905-3.905,10.237,0,14.143c1.953,1.952,4.512,2.929,7.071,2.929
			c2.559,0,5.119-0.977,7.071-2.929l83.081-83.08c10.404,8.896,21.611,15.516,32.263,18.977c14.965,4.86,28.433,3.286,38.464-4.38
			c19.337,13.864,42.733,20.933,66.779,20.038c27.266-1.015,52.914-12.205,72.218-31.509c22.65-22.651,33.922-54.037,31.176-85.631
			c16.611-3.193,31.964-11.284,44.04-23.358C415.762,187.498,418.299,139.117,391.889,105.548z M329.155,222.923
			c-2.854,0.184-5.494,1.581-7.25,3.839c-1.757,2.257-2.462,5.159-1.939,7.972c5.313,28.531-3.746,57.795-24.232,78.281
			c-15.451,15.451-35.539,23.947-56.075,25.361c-22.236,1.531-44.998-5.244-62.972-20.579c-1.882-1.605-4.19-2.393-6.486-2.393
			c-2.791,0-5.565,1.161-7.541,3.427c-0.769,0.881-1.572,1.742-2.388,2.558c-0.015,0.015-0.032,0.027-0.047,0.042
			c-4.43,4.393-10.85,5.209-18.06,3.558c-11.318-2.593-24.582-11.276-35.171-21.852c-0.015-0.015-0.03-0.03-0.045-0.045
			c-0.015-0.015-0.03-0.029-0.045-0.044c-9.97-9.982-17.568-21.496-20.85-31.6c-3.104-9.556-2.23-16.849,2.6-21.679
			c0.724-0.724,1.539-1.479,2.566-2.374c4.13-3.602,4.591-9.859,1.033-14.028c-29.509-34.576-27.413-86.873,4.772-119.059
			c10.955-10.956,24.422-18.639,38.944-22.608c10.278-2.809,21.085-3.752,31.905-2.676c2.479,0.247,4.958,0.592,7.432,1.053
			c2.811,0.522,5.714-0.183,7.972-1.938c2.257-1.757,3.655-4.396,3.838-7.251c1.015-15.78,7.726-30.623,18.898-41.794
			c7.707-7.708,16.877-13.09,26.626-16.131c21.291-6.641,45.346-2.1,62.977,13.86c1.041,0.942,2.246,1.635,3.531,2.065
			c2.16,0.724,4.543,0.704,6.748-0.138c0.375-0.143,0.753-0.274,1.13-0.408c18.371-6.519,38.965-1.921,52.78,11.893
			c14.099,14.099,18.607,35.259,11.485,53.909c-1.343,3.516-0.598,7.488,1.928,10.278c23.267,25.704,22.27,65.064-2.27,89.604
			C359.778,215.198,344.935,221.909,329.155,222.923z"/>
	</g>
</g>
</svg>