<?xml version="1.0" encoding="iso-8859-1"?>
<!-- Generator: Adobe Illustrator 17.1.0, SVG Export Plug-In . SVG Version: 6.00 Build 0)  -->
<!DOCTYPE svg PUBLIC "-//W3C//DTD SVG 1.1//EN" "http://www.w3.org/Graphics/SVG/1.1/DTD/svg11.dtd">
<svg version="1.1" id="Capa_1" xmlns="http://www.w3.org/2000/svg" xmlns:xlink="http://www.w3.org/1999/xlink" x="0px" y="0px"
	 viewBox="0 0 350.059 350.059" style="enable-background:new 0 0 350.059 350.059;" xml:space="preserve">
<g>
	<path d="M336.439,81.564L268.494,13.62C259.712,4.837,248.034,0,235.614,0c-12.421,0-24.099,4.837-32.881,13.62
		c-8.783,8.782-13.62,20.46-13.62,32.881c0,1.837,0.106,3.657,0.314,5.456c-13.646-1.595-27.867,2.836-38.314,13.281
		c-10.453,10.453-14.879,24.687-13.279,38.34c-13.648-1.597-27.886,2.826-38.34,13.279c-10.452,10.453-14.879,24.686-13.278,38.34
		c-13.656-1.602-27.887,2.827-38.34,13.278c-8.783,8.783-13.62,20.461-13.62,32.881c0,12.421,4.837,24.099,13.62,32.881
		l15.588,15.587L7.602,305.688c-10.136,10.137-10.136,26.632,0.001,36.77c5.068,5.068,11.726,7.603,18.384,7.602
		c6.658,0,13.316-2.534,18.386-7.602l55.862-55.863l15.587,15.588c8.782,8.783,20.46,13.62,32.88,13.62
		c12.421,0,24.099-4.837,32.881-13.62c8.783-8.782,13.62-20.46,13.62-32.88c0-1.838-0.107-3.658-0.314-5.457
		c13.647,1.598,27.868-2.836,38.313-13.281c10.453-10.453,14.879-24.687,13.279-38.34c13.65,1.595,27.887-2.826,38.34-13.279
		c10.445-10.446,14.873-24.668,13.281-38.313c1.799,0.208,3.619,0.314,5.456,0.314c12.421,0,24.099-4.837,32.881-13.62
		c8.783-8.782,13.62-20.46,13.62-32.881C350.059,102.024,345.222,90.347,336.439,81.564z M30.231,328.314
		c-2.34,2.339-6.147,2.339-8.486,0.001c-0.586-0.586-1.024-1.264-1.317-1.988c-0.878-2.168-0.44-4.749,1.315-6.504l55.862-55.862
		l8.485,8.485l-0.002,0.002l0.003,0.003L30.231,328.314z M167.44,288.04c-5.005,5.005-11.659,7.762-18.738,7.762
		c-2.963,0-5.85-0.49-8.575-1.419c-3.784-1.29-7.253-3.434-10.163-6.344l-67.945-67.944c-5.005-5.005-7.762-11.659-7.762-18.738
		c0-7.078,2.757-13.733,7.763-18.738c2.962-2.962,6.457-5.07,10.178-6.334c2.77-0.941,5.664-1.415,8.56-1.415
		c6.785,0,13.571,2.583,18.737,7.749l67.944,67.945c5.006,5.005,7.763,11.659,7.763,18.738
		C175.202,276.38,172.445,283.034,167.44,288.04z M219.059,236.421c-7.375,7.374-18.049,9.481-27.314,6.329
		c-3.716-1.264-7.205-3.371-10.163-6.329l-67.944-67.945c-10.332-10.332-10.332-27.144,0-37.476
		c2.962-2.962,6.457-5.07,10.179-6.334c9.261-3.145,19.928-1.036,27.298,6.334l67.944,67.944
		C229.392,209.276,229.392,226.089,219.059,236.421z M270.678,184.802c-5.005,5.005-11.659,7.762-18.738,7.762
		c-2.964,0-5.851-0.49-8.575-1.418c-3.784-1.29-7.253-3.434-10.163-6.343l-67.944-67.944c-5.005-5.005-7.762-11.659-7.762-18.738
		s2.757-13.733,7.762-18.738c2.962-2.962,6.457-5.07,10.178-6.334c9.261-3.145,19.928-1.036,27.298,6.334
		c0.008,0.007,0.015,0.015,0.021,0.022l67.923,67.923C281.01,157.657,281.01,174.47,270.678,184.802z M322.296,133.183
		c-5.005,5.006-11.659,7.763-18.738,7.763c-2.963,0-5.85-0.49-8.575-1.419c-3.784-1.29-7.253-3.434-10.162-6.344l-67.944-67.944
		c-5.006-5.005-7.763-11.659-7.763-18.737c0-7.079,2.757-13.733,7.763-18.738c2.914-2.914,6.388-5.06,10.178-6.349
		c2.721-0.926,5.602-1.413,8.56-1.413c7.078,0,13.732,2.757,18.737,7.763l67.944,67.944c5.006,5.005,7.763,11.659,7.763,18.737
		C330.059,121.523,327.302,128.178,322.296,133.183z"/>
	<g>
		<path style="fill:#00D0C2;" d="M158.067,269.297c0-7.079-2.757-13.733-7.763-18.738L82.36,182.613
			c-2.957-2.957-6.447-5.064-10.162-6.329c-3.721,1.264-7.216,3.372-10.178,6.334c-5.006,5.005-7.763,11.66-7.763,18.738
			c0,7.079,2.757,13.733,7.762,18.738l67.945,67.944c2.91,2.91,6.379,5.054,10.163,6.344c3.79-1.289,7.264-3.435,10.178-6.348
			C155.31,283.029,158.067,276.375,158.067,269.297z"/>
		<path style="fill:#EDE362;" d="M201.923,198.939l-67.944-67.944c-2.958-2.958-6.447-5.065-10.163-6.329
			c-3.721,1.264-7.217,3.372-10.179,6.334c-10.332,10.332-10.332,27.143,0,37.476l67.944,67.945
			c2.958,2.957,6.447,5.064,10.163,6.329c3.721-1.264,7.217-3.372,10.178-6.334C212.256,226.084,212.256,209.271,201.923,198.939z"
			/>
		<path style="fill:#00CE89;" d="M253.543,147.32L185.62,79.397c-0.007-0.007-0.014-0.014-0.021-0.021
			c-2.958-2.957-6.447-5.064-10.163-6.329c-3.721,1.264-7.217,3.372-10.178,6.334c-5.005,5.005-7.762,11.659-7.762,18.738
			s2.757,13.733,7.762,18.738l67.944,67.944c2.91,2.91,6.379,5.053,10.163,6.343c3.79-1.29,7.265-3.435,10.178-6.348
			C263.875,174.465,263.875,157.652,253.543,147.32z"/>
		<path style="fill:#EF849D;" d="M312.923,114.439c0-7.078-2.757-13.732-7.763-18.737l-67.944-67.944
			c-2.91-2.91-6.379-5.054-10.162-6.344c-3.79,1.29-7.264,3.435-10.178,6.349c-5.006,5.005-7.763,11.659-7.763,18.738
			c0,7.078,2.757,13.733,7.763,18.737l67.944,67.944c2.91,2.91,6.379,5.054,10.162,6.344c3.79-1.29,7.264-3.435,10.178-6.349
			C310.167,128.173,312.923,121.518,312.923,114.439z"/>
		<path style="fill:#D4B783;" d="M30.229,328.309l55.86-55.861l0.002-0.002l-8.485-8.485l-55.862,55.862
			c-1.755,1.755-2.193,4.336-1.315,6.504c0.292,0.722,0.731,1.398,1.315,1.983C24.082,330.648,27.889,330.648,30.229,328.309z"/>
	</g>
</g>
<g>
</g>
<g>
</g>
<g>
</g>
<g>
</g>
<g>
</g>
<g>
</g>
<g>
</g>
<g>
</g>
<g>
</g>
<g>
</g>
<g>
</g>
<g>
</g>
<g>
</g>
<g>
</g>
<g>
</g>
</svg>
