<?xml version="1.0" encoding="iso-8859-1"?>
<!-- Generator: Adobe Illustrator 17.1.0, SVG Export Plug-In . SVG Version: 6.00 Build 0)  -->
<!DOCTYPE svg PUBLIC "-//W3C//DTD SVG 1.1//EN" "http://www.w3.org/Graphics/SVG/1.1/DTD/svg11.dtd">
<svg version="1.1" id="Capa_1" xmlns="http://www.w3.org/2000/svg" xmlns:xlink="http://www.w3.org/1999/xlink" x="0px" y="0px"
	 viewBox="0 0 417.008 417.008" style="enable-background:new 0 0 417.008 417.008;" xml:space="preserve">
<g>
	<path style="fill:#89634A;" d="M289.078,244.1h-10.727v54.031c0,3.098,2.359,5.654,5.375,5.967
		c0.206,0.021,0.414,0.033,0.625,0.033c3.309,0,6-2.691,6-6V244.1H289.078z"/>
	<g>
		<path style="fill:#D4B783;" d="M242.352,224.1v-25.254c-3.655,0.387-7.342,0.688-11.041,0.948
			c-7.544,0.532-15.159,0.823-22.806,0.823c-41.928,0-81.507-7.904-113.411-22.448v45.93l0.028,0.001H242.352z"/>
		<path style="fill:#D4B783;" d="M308.554,183.687c-4.592,1.719-9.329,3.319-14.202,4.798V224.1h14.202V183.687z"/>
		<path style="fill:#F24646;" d="M208.504,109.135c1.937,0,3.796-0.329,5.539-0.913c3.09-3.16,5.004-7.485,5.004-12.254
			c0-9.649-7.815-17.5-17.421-17.5c-1.974,0-3.865,0.347-5.636,0.958c-3.08,3.156-4.986,7.462-4.986,12.209
			C191.004,101.284,198.855,109.135,208.504,109.135z"/>
		<path style="fill:#89634A;" d="M250.923,177.622c2.869-0.412,5.782,0.439,7.975,2.338c0.966,0.837,1.739,1.847,2.315,2.956
			c0.732,1.408,1.139,2.98,1.139,4.603v36.58h12V180.95c0-4.517,3.027-8.472,7.387-9.652c10.159-2.751,19.669-6.055,28.479-9.848
			c-1.138-4.812-2.573-8.904-4.193-12.391c-1.453-3.548-3.485-6.773-5.973-9.549c-8.015-9.522-17.179-10.324-19.327-10.376h-0.47
			l-0.084,0.146c-0.974-0.096-1.96-0.146-2.957-0.146H126.575c-15.822,0-28.951,11.734-31.152,26.956
			c30.177,15.632,70.959,24.526,113.081,24.526C222.889,180.617,237.16,179.609,250.923,177.622z"/>
		<path style="fill:#D4B783;" d="M318.893,244.1h-8.542v54.031c0,14.337-11.663,26-26,26c-2.284,0-4.499-0.299-6.611-0.854
			c-0.213,0.056-0.386-0.009-0.53-0.163c-10.871-3.113-18.859-13.124-18.859-24.982V244.1h-13.075H84.709
			c-17.36,0-31.483,14.123-31.483,31.482v63.482h297.007v-63.482C350.232,258.223,336.174,244.101,318.893,244.1z"/>
		<polygon style="fill:#EF849D;" points="55.417,359.064 62.16,392.873 341.338,392.873 348.051,359.064 		"/>
	</g>
	<path d="M407.008,339.064h-23.226v-63.482c0-25.101-18.061-46.05-41.867-50.568v-64.397c0-28.388-23.095-51.482-51.482-51.482
		h-48.777c2.771-5.228,4.348-11.182,4.348-17.5c0-16.891-11.227-31.204-26.609-35.882c3.864-18.044,19.929-31.618,39.109-31.618
		c5.522,0,10-4.478,10-10c0-5.523-4.478-10-10-10c-30.087,0-55.067,22.263-59.346,51.179c-16.171,4.163-28.154,18.869-28.154,36.321
		c0,6.318,1.577,12.272,4.348,17.5h-48.777c-28.388,0-51.482,23.095-51.482,51.482v64.397
		c-23.806,4.518-41.867,25.468-41.867,50.568v63.482H10c-5.523,0-10,4.478-10,10c0,5.523,4.477,10,10,10h25.023l9.128,45.765
		c0.933,4.677,5.038,8.044,9.807,8.044H363.05c4.769,0,8.874-3.367,9.807-8.044l9.128-45.765h25.023c5.522,0,10-4.477,10-10
		C417.008,343.542,412.53,339.064,407.008,339.064z M284.352,304.131c-0.211,0-0.419-0.012-0.625-0.033
		c-3.016-0.314-5.375-2.87-5.375-5.967V244.1h10.727h1.273v54.031C290.352,301.439,287.66,304.131,284.352,304.131z M294.352,224.1
		v-35.615c4.873-1.478,9.61-3.079,14.202-4.798c4.602-1.723,9.059-3.564,13.361-5.52V224.1L294.352,224.1L294.352,224.1z
		 M195.99,79.426c3.18-3.259,7.612-5.291,12.514-5.291c9.649,0,17.5,7.85,17.5,17.5c0,7.712-5.021,14.262-11.961,16.587
		c-1.743,0.584-3.602,0.913-5.539,0.913c-9.649,0-17.5-7.851-17.5-17.5C191.004,86.888,192.91,82.582,195.99,79.426z
		 M126.575,129.135h150.638h3.041h0.47h9.709c15.823,0,28.951,11.735,31.153,26.958c-3.636,1.887-7.44,3.666-11.368,5.358
		c-8.81,3.793-18.32,7.097-28.479,9.848c-4.359,1.181-7.387,5.136-7.387,9.652V224.1h-12v-36.58c0-1.623-0.407-3.195-1.139-4.603
		c-0.576-1.109-1.349-2.119-2.315-2.956c-2.192-1.899-5.105-2.75-7.975-2.338c-13.763,1.987-28.034,2.995-42.419,2.995
		c-42.122,0-82.905-8.894-113.081-24.526C97.624,140.869,110.753,129.135,126.575,129.135z M95.093,224.098v-45.93
		c31.904,14.544,71.483,22.448,113.411,22.448c7.648,0,15.263-0.292,22.806-0.823c3.699-0.261,7.386-0.561,11.041-0.948V224.1H95.12
		h-0.028V224.098z M354.848,392.873h-13.51H62.16l-6.743-33.809h292.634h13.54L354.848,392.873z M363.782,339.064h-13.55H53.226
		v-63.482c0-17.359,14.123-31.482,31.483-31.482h160.567h13.075v54.031c0,11.858,7.987,21.869,18.859,24.982
		c0.178,0.051,0.35,0.116,0.53,0.163c2.112,0.556,4.327,0.854,6.611,0.854c14.337,0,26-11.663,26-26V244.1h8.542h13.406
		c17.36,0,31.483,14.123,31.483,31.482V339.064z"/>
</g>
<g>
</g>
<g>
</g>
<g>
</g>
<g>
</g>
<g>
</g>
<g>
</g>
<g>
</g>
<g>
</g>
<g>
</g>
<g>
</g>
<g>
</g>
<g>
</g>
<g>
</g>
<g>
</g>
<g>
</g>
</svg>
