<?xml version="1.0" encoding="iso-8859-1"?>
<!-- Generator: Adobe Illustrator 17.1.0, SVG Export Plug-In . SVG Version: 6.00 Build 0)  -->
<!DOCTYPE svg PUBLIC "-//W3C//DTD SVG 1.1//EN" "http://www.w3.org/Graphics/SVG/1.1/DTD/svg11.dtd">
<svg version="1.1" id="Capa_1" xmlns="http://www.w3.org/2000/svg" xmlns:xlink="http://www.w3.org/1999/xlink" x="0px" y="0px"
	 viewBox="0 0 417.007 417.007" style="enable-background:new 0 0 417.007 417.007;" xml:space="preserve">
<g>
	<path style="fill:#D4B783;" d="M385.678,176.576c0-15.763-10.657-29.029-25.156-33.008c-6.425,0.436-12.513,2.634-17.726,6.446
		c-3.98,2.909-9.488,2.483-12.973-1.003c-3.486-3.486-3.911-8.993-1.001-12.973c1.061-1.451,1.981-2.97,2.78-4.535
		c0.184-1.546,0.289-3.116,0.289-4.711c0-22.043-18.059-39.913-40.336-39.913c-3.604,0-7.095,0.474-10.42,1.352
		c-0.024,0.017-0.049,0.031-0.073,0.049c-3.979,2.909-9.487,2.484-12.973-1.001c-3.486-3.486-3.912-8.993-1.002-12.973
		c0.212-0.29,0.412-0.586,0.613-0.881c0.647-2.813,1-5.74,1-8.751c0-21.364-17.207-38.683-38.432-38.683
		c-4.625,0-9.058,0.823-13.165,2.33c-0.619,0.537-1.227,1.09-1.812,1.675c-11.783,11.782-13.266,30.79-3.451,44.214
		c2.91,3.98,2.485,9.487-1.001,12.974c-3.487,3.485-8.993,3.911-12.974,1.001c-5.851-4.278-12.799-6.539-20.095-6.539
		c-9.111,0-17.679,3.549-24.123,9.994c-12.339,12.338-13.411,31.88-2.493,45.456c3.199,3.978,2.888,9.728-0.722,13.338
		c-3.61,3.61-9.359,3.921-13.338,0.722c-6.01-4.833-13.59-7.495-21.342-7.495c-9.11,0-17.675,3.548-24.118,9.992
		c-11.783,11.782-13.266,30.79-3.452,44.214c2.91,3.98,2.485,9.487-1.002,12.974c-3.486,3.486-8.994,3.911-12.973,1.001
		c-5.851-4.278-12.799-6.539-20.094-6.539c-9.111,0-17.678,3.549-24.122,9.994C23.548,221.737,20,230.304,20,239.416
		c0,9.111,3.548,17.678,9.992,24.121c6.48,6.48,15.103,10.049,24.282,10.048c7.291,0,14.218-2.247,20.032-6.497
		c3.979-2.911,9.486-2.485,12.973,1.001c3.486,3.486,3.911,8.993,1.001,12.973c-9.815,13.424-8.292,32.471,3.542,44.304
		c6.445,6.445,15.012,9.994,24.122,9.994c7.296,0,14.245-2.261,20.095-6.539c1.769-1.293,3.839-1.927,5.899-1.927
		c2.576,0,5.137,0.992,7.074,2.929c3.486,3.486,3.911,8.993,1.001,12.973c-7.665,10.485-8.438,24.376-2.794,35.572
		c6.247,3.68,13.524,5.799,21.299,5.799c20.139,0,36.961-14.165,41.068-33.074c-1.059-2.911-2.527-5.708-4.419-8.296
		c-2.91-3.98-2.485-9.487,1.001-12.973c3.486-3.486,8.992-3.912,12.974-1.001c1.826,1.335,3.769,2.449,5.786,3.384
		c10.783-2.211,21.731-8.086,30.771-17.377c7.586-7.796,12.735-16.869,15.329-25.991c-1.235-3.149-2.952-6.163-5.176-8.928
		c-3.199-3.978-2.888-9.727,0.722-13.338c3.611-3.609,9.36-3.92,13.338-0.722c2.128,1.711,4.455,3.144,6.914,4.289
		c13.021-1.109,26.129-7.971,35.408-19.866c5.724-7.338,9.23-15.623,10.589-23.923c-1.017-2.521-2.344-4.946-3.999-7.211
		c-2.91-3.98-2.485-9.487,1.001-12.974c3.486-3.486,8.993-3.912,12.974-1.001c3.556,2.6,7.522,4.443,11.719,5.499
		C371.983,209.11,385.678,194.446,385.678,176.576z M177.59,311.746c-2.8,0-5.434-1.089-7.416-3.066
		c-4.102-4.103-4.102-10.764-0.009-14.858c1.983-1.983,4.62-3.075,7.425-3.075s5.441,1.092,7.425,3.075
		c1.983,1.983,3.075,4.62,3.075,7.425c0,2.805-1.092,5.441-3.075,7.424C183.024,310.657,180.391,311.746,177.59,311.746z
		 M231.982,232.004c1.996-1.995,4.632-3.086,7.436-3.086c2.805,0,5.442,1.092,7.425,3.075c4.094,4.096,4.093,10.756,0,14.85
		c-1.983,1.983-4.62,3.075-7.425,3.075c-2.804,0-5.44-1.092-7.423-3.074C227.907,242.745,227.907,236.093,231.982,232.004z
		 M308.669,185.016c-1.982,1.982-4.619,3.074-7.423,3.074c-2.805,0-5.441-1.092-7.425-3.075c-4.094-4.094-4.094-10.755,0-14.85
		c1.983-1.983,4.62-3.075,7.425-3.075c2.805,0,5.441,1.092,7.424,3.075c1.983,1.982,3.076,4.62,3.076,7.425
		C311.746,180.395,310.653,183.032,308.669,185.016z M246.931,123.277c-1.982,1.982-4.619,3.074-7.423,3.074
		c-2.805,0-5.441-1.092-7.425-3.075c-4.094-4.094-4.094-10.755,0-14.85c1.983-1.983,4.62-3.075,7.425-3.075
		c2.805,0,5.441,1.092,7.424,3.075c1.983,1.982,3.076,4.62,3.076,7.425C250.007,118.656,248.915,121.293,246.931,123.277z
		 M170.254,170.254c1.992-1.986,4.626-3.075,7.425-3.075c2.8,0,5.434,1.089,7.416,3.066c1.992,1.992,3.084,4.628,3.084,7.434
		c0,2.805-1.092,5.441-3.075,7.425c-1.991,1.986-4.624,3.075-7.425,3.075c-2.799,0-5.433-1.088-7.415-3.065
		C166.161,181.01,166.161,174.348,170.254,170.254z M123.276,246.932c-1.983,1.983-4.62,3.075-7.425,3.075
		c-2.81,0-5.449-1.095-7.433-3.084c-1.975-1.975-3.067-4.611-3.067-7.416c0-2.805,1.092-5.441,3.075-7.425
		c1.976-1.98,4.615-3.075,7.425-3.075c2.805,0,5.441,1.092,7.425,3.075c1.983,1.983,3.075,4.62,3.075,7.425
		C126.352,242.311,125.259,244.948,123.276,246.932z"/>
	<g>
		<path d="M115.852,229.007c-2.81,0-5.449,1.095-7.425,3.075c-1.983,1.983-3.075,4.62-3.075,7.425c0,2.805,1.092,5.441,3.067,7.416
			c1.984,1.989,4.624,3.084,7.433,3.084c2.805,0,5.441-1.092,7.425-3.075c1.983-1.983,3.075-4.62,3.075-7.425
			c0-2.805-1.092-5.441-3.075-7.425C121.293,230.099,118.656,229.007,115.852,229.007z"/>
		<path d="M188.09,301.246c0-2.805-1.092-5.442-3.075-7.425c-1.983-1.983-4.62-3.075-7.425-3.075s-5.441,1.092-7.425,3.075
			c-4.094,4.094-4.094,10.756,0.009,14.858c1.982,1.978,4.616,3.066,7.416,3.066s5.434-1.089,7.425-3.075
			C186.998,306.688,188.09,304.051,188.09,301.246z"/>
		<path d="M239.507,105.351c-2.805,0-5.441,1.092-7.425,3.075c-4.094,4.094-4.094,10.755,0,14.85
			c1.983,1.983,4.62,3.075,7.425,3.075c2.805,0,5.441-1.092,7.423-3.074c1.984-1.983,3.077-4.621,3.077-7.426
			c0-2.805-1.093-5.442-3.076-7.425C244.949,106.443,242.312,105.351,239.507,105.351z"/>
		<path d="M301.246,167.09c-2.805,0-5.441,1.092-7.425,3.075c-4.094,4.094-4.094,10.755,0,14.85c1.983,1.983,4.62,3.075,7.425,3.075
			c2.805,0,5.441-1.092,7.423-3.074c1.984-1.983,3.077-4.621,3.077-7.426c0-2.805-1.093-5.442-3.076-7.425
			C306.687,168.182,304.051,167.09,301.246,167.09z"/>
		<path d="M401.158,139.327c-10.222-10.222-23.813-15.851-38.268-15.851c-2.751,0-5.471,0.203-8.144,0.604
			c0.603-3.972,0.767-8.026,0.471-12.087c-0.943-12.942-6.521-25.129-15.707-34.315c-10.254-10.253-23.895-15.9-38.41-15.9
			c-2.766,0-5.5,0.205-8.187,0.609c2.448-16.593-2.786-34.092-15.232-46.538C267.46,5.628,253.871,0,239.417,0
			c-14.455,0-28.046,5.63-38.269,15.852c-9.185,9.186-14.763,21.372-15.705,34.313c-0.295,4.06-0.131,8.113,0.472,12.083
			c-2.674-0.401-5.394-0.604-8.145-0.604c-14.454,0-28.043,5.629-38.265,15.851c-12.703,12.703-17.875,30.222-15.203,46.847
			c-2.816-0.452-5.675-0.683-8.549-0.683c-14.452,0-28.04,5.628-38.261,15.849c-9.185,9.186-14.763,21.372-15.705,34.313
			c-0.295,4.06-0.131,8.113,0.472,12.083c-2.674-0.401-5.394-0.605-8.145-0.605c-14.454,0-28.043,5.63-38.265,15.852
			C5.629,211.372,0,224.962,0,239.416c0,14.454,5.629,28.043,15.85,38.263c10.258,10.258,23.904,15.907,38.425,15.906
			c2.763,0,5.496-0.205,8.179-0.608c-2.45,16.591,2.782,34.088,15.226,46.532c10.222,10.222,23.812,15.852,38.266,15.851
			c2.751,0,5.472-0.204,8.146-0.605c-0.603,3.972-0.767,8.027-0.471,12.088c0.944,12.942,6.522,25.129,15.708,34.314
			c10.221,10.221,23.81,15.85,38.264,15.85c14.454,0,28.043-5.629,38.263-15.85c9.187-9.186,14.766-21.374,15.708-34.315
			c0.296-4.06,0.132-8.113-0.471-12.084c2.675,0.401,5.395,0.604,8.147,0.604c14.454-0.001,28.042-5.629,38.26-15.848
			c12.704-12.704,17.876-30.225,15.206-46.85c2.817,0.453,5.676,0.684,8.55,0.684c14.451,0,28.038-5.628,38.256-15.846
			c9.186-9.187,14.765-21.374,15.707-34.315c0.295-4.06,0.131-8.113-0.472-12.084c2.675,0.401,5.396,0.604,8.147,0.604
			c14.453-0.001,28.04-5.629,38.26-15.848c10.222-10.223,15.852-23.813,15.853-38.267
			C417.008,163.137,411.379,149.548,401.158,139.327z M387.012,201.716c-6.441,6.442-15.007,9.99-24.119,9.991
			c-2.862,0-5.666-0.36-8.376-1.041c-4.198-1.055-8.163-2.898-11.719-5.499c-3.981-2.911-9.488-2.485-12.974,1.001
			c-3.486,3.486-3.911,8.994-1.001,12.974c1.656,2.264,2.982,4.69,3.999,7.211c5.014,12.423,2.342,27.21-7.454,37.006
			c-6.441,6.441-15.005,9.989-24.114,9.989c-5.008,0-9.941-1.117-14.429-3.207c-2.459-1.145-4.786-2.578-6.914-4.289
			c-3.978-3.199-9.727-2.888-13.338,0.722c-3.61,3.61-3.921,9.36-0.722,13.338c2.223,2.765,3.941,5.779,5.176,8.928
			c4.829,12.312,2.155,26.705-7.672,36.532c-6.441,6.442-15.007,9.99-24.119,9.991c-5.018,0-9.863-1.094-14.309-3.155
			c-2.017-0.935-3.96-2.049-5.786-3.384c-3.982-2.911-9.488-2.485-12.974,1.001c-3.486,3.486-3.911,8.993-1.001,12.973
			c1.892,2.588,3.36,5.384,4.419,8.296c4.436,12.19,1.639,26.409-7.874,35.922c-6.443,6.443-15.01,9.992-24.121,9.992
			c-9.112,0-17.679-3.548-24.122-9.992c-2.581-2.58-4.667-5.508-6.25-8.647c-5.644-11.196-4.872-25.088,2.794-35.572
			c2.91-3.98,2.485-9.487-1.001-12.973c-1.938-1.938-4.498-2.929-7.074-2.929c-2.06,0-4.13,0.635-5.899,1.927
			c-5.85,4.278-12.799,6.539-20.095,6.539c-9.111,0-17.678-3.549-24.122-9.994c-11.834-11.833-13.357-30.88-3.542-44.304
			c2.91-3.98,2.484-9.487-1.001-12.973c-3.487-3.486-8.994-3.912-12.973-1.001c-5.814,4.25-12.741,6.497-20.032,6.497
			c-9.178,0.001-17.802-3.568-24.282-10.048C23.548,257.094,20,248.527,20,239.416c0-9.112,3.548-17.679,9.992-24.122
			c6.444-6.444,15.011-9.994,24.122-9.994c7.295,0,14.244,2.261,20.094,6.539c3.979,2.91,9.487,2.485,12.973-1.001
			c3.486-3.486,3.912-8.994,1.002-12.974c-9.814-13.424-8.331-32.432,3.452-44.214c6.443-6.443,15.008-9.992,24.118-9.992
			c7.752,0,15.331,2.662,21.342,7.495c3.979,3.2,9.728,2.888,13.338-0.722c3.61-3.61,3.921-9.36,0.722-13.338
			c-10.917-13.576-9.846-33.118,2.493-45.456c6.444-6.444,15.011-9.994,24.123-9.994c7.295,0,14.244,2.261,20.095,6.539
			c3.98,2.91,9.487,2.484,12.974-1.001c3.486-3.486,3.911-8.994,1.001-12.974c-9.815-13.424-8.331-32.432,3.451-44.214
			c0.585-0.585,1.193-1.138,1.812-1.675c6.199-5.378,14.029-8.32,22.314-8.32c9.111,0,17.677,3.548,24.12,9.992
			c11.582,11.582,13.286,30.065,4.164,43.432c-0.202,0.295-0.401,0.591-0.613,0.881c-2.91,3.98-2.484,9.487,1.002,12.973
			c3.486,3.485,8.993,3.911,12.973,1.001c0.024-0.017,0.049-0.031,0.073-0.049c5.803-4.22,12.703-6.452,19.964-6.452
			c9.173,0,17.792,3.566,24.268,10.043c10.511,10.51,12.82,26.766,6.235,39.682c-0.798,1.565-1.719,3.084-2.78,4.535
			c-2.91,3.98-2.485,9.487,1.001,12.973c3.485,3.486,8.993,3.911,12.973,1.003c5.214-3.811,11.301-6.01,17.726-6.446
			c0.785-0.053,1.573-0.092,2.368-0.092c9.113,0,17.682,3.549,24.126,9.994c6.443,6.443,9.992,15.01,9.991,24.122
			C397.007,186.703,393.457,195.271,387.012,201.716z"/>
		<path d="M177.679,188.179c2.8,0,5.434-1.089,7.425-3.075c1.983-1.983,3.075-4.62,3.075-7.425c0-2.805-1.092-5.442-3.084-7.434
			c-1.982-1.978-4.616-3.066-7.416-3.066c-2.799,0-5.433,1.088-7.425,3.075c-4.094,4.094-4.094,10.756,0.01,14.86
			C172.247,187.09,174.88,188.179,177.679,188.179z"/>
		<path d="M239.418,249.918c2.805,0,5.442-1.092,7.425-3.075c4.093-4.093,4.094-10.754,0-14.85c-1.983-1.983-4.62-3.075-7.425-3.075
			c-2.804,0-5.44,1.092-7.436,3.086c-4.076,4.089-4.075,10.741,0.012,14.839C233.978,248.826,236.614,249.918,239.418,249.918z"/>
	</g>
</g>
<g>
</g>
<g>
</g>
<g>
</g>
<g>
</g>
<g>
</g>
<g>
</g>
<g>
</g>
<g>
</g>
<g>
</g>
<g>
</g>
<g>
</g>
<g>
</g>
<g>
</g>
<g>
</g>
<g>
</g>
</svg>
