<?xml version="1.0" encoding="iso-8859-1"?>
<!-- Uploaded to: SVG Repo, www.svgrepo.com, Generator: SVG Repo Mixer Tools -->
<svg height="800px" width="800px" version="1.1" id="Capa_1" xmlns="http://www.w3.org/2000/svg" xmlns:xlink="http://www.w3.org/1999/xlink" 
	 viewBox="0 0 418.694 418.694" xml:space="preserve">
<g>
	<g>
		<path style="fill:#89634A;" d="M53.227,250.975l-0.001,7.491l16.781-9.764l1.336-0.777c0.365-0.217,0.751-0.405,1.148-0.576
			c0.104-0.045,0.21-0.085,0.315-0.126c0.27-0.105,0.545-0.198,0.827-0.281c0.121-0.035,0.241-0.073,0.362-0.104
			c0.06-0.015,0.117-0.037,0.177-0.051c0.296-0.069,0.591-0.118,0.886-0.16c0.033-0.005,0.066-0.014,0.099-0.018
			c0.401-0.053,0.8-0.074,1.196-0.078c0.093-0.001,0.185,0.005,0.277,0.006c0.317,0.006,0.631,0.026,0.942,0.062
			c0.1,0.011,0.2,0.022,0.3,0.037c0.367,0.053,0.729,0.122,1.084,0.215c0.029,0.007,0.057,0.012,0.086,0.019
			c0.385,0.104,0.759,0.235,1.127,0.383c0.097,0.039,0.192,0.084,0.289,0.126c0.283,0.124,0.559,0.262,0.829,0.411
			c0.061,0.034,0.125,0.057,0.186,0.092l21.758,12.659l6.437,3.745l26.779-15.584l1.409-0.82c0.007-0.004,0.014-0.006,0.021-0.01
			c0.354-0.205,0.724-0.387,1.105-0.549c0.08-0.034,0.161-0.062,0.242-0.093c0.289-0.114,0.585-0.215,0.888-0.302
			c0.117-0.034,0.234-0.067,0.352-0.097c0.29-0.072,0.585-0.129,0.885-0.176c0.101-0.016,0.201-0.038,0.303-0.051
			c0.025-0.003,0.048-0.009,0.074-0.012c0.373-0.044,0.744-0.062,1.111-0.065c0.067,0,0.134,0.006,0.202,0.007
			c0.343,0.005,0.683,0.027,1.019,0.066c0.091,0.011,0.181,0.024,0.271,0.037c0.346,0.05,0.686,0.117,1.02,0.202
			c0.056,0.014,0.112,0.025,0.167,0.04c0.403,0.11,0.797,0.242,1.18,0.401c0.03,0.012,0.059,0.028,0.089,0.041
			c0.344,0.146,0.676,0.313,1,0.496c0.043,0.024,0.088,0.04,0.13,0.065l21.758,12.661l6.435,3.744l26.798-15.586l1.411-0.821
			c0.028-0.016,0.059-0.027,0.087-0.043c0.357-0.203,0.724-0.389,1.106-0.548c0.006-0.003,0.013-0.004,0.02-0.007
			c0.361-0.149,0.734-0.272,1.115-0.378c0.093-0.026,0.186-0.049,0.28-0.072c0.304-0.076,0.613-0.136,0.927-0.184
			c0.098-0.015,0.195-0.033,0.293-0.045c0.394-0.047,0.793-0.079,1.199-0.079c0.406,0,0.805,0.031,1.198,0.079
			c0.099,0.012,0.198,0.03,0.297,0.045c0.312,0.047,0.619,0.107,0.92,0.182c0.096,0.024,0.191,0.047,0.286,0.074
			c0.377,0.106,0.748,0.228,1.105,0.375c0.009,0.004,0.018,0.006,0.027,0.01c0.382,0.159,0.749,0.344,1.105,0.548
			c0.028,0.016,0.059,0.027,0.087,0.043l21.778,12.663l6.439,3.744l26.784-15.585l1.409-0.82c0.047-0.027,0.097-0.045,0.144-0.071
			c0.307-0.172,0.622-0.33,0.947-0.47c0.047-0.02,0.093-0.045,0.141-0.065c0.373-0.154,0.757-0.283,1.15-0.391
			c0.075-0.02,0.15-0.035,0.225-0.054c0.313-0.078,0.631-0.141,0.954-0.189c0.105-0.016,0.21-0.031,0.316-0.043
			c0.318-0.037,0.64-0.057,0.965-0.063c0.081-0.002,0.162-0.009,0.244-0.009c0.365,0.002,0.732,0.021,1.103,0.064
			c0.025,0.003,0.049,0.009,0.074,0.012c0.1,0.012,0.199,0.035,0.298,0.05c0.302,0.047,0.599,0.104,0.891,0.177
			c0.117,0.029,0.232,0.062,0.348,0.096c0.305,0.088,0.602,0.189,0.893,0.303c0.079,0.031,0.16,0.058,0.239,0.092
			c0.382,0.162,0.752,0.344,1.107,0.549c0.007,0.004,0.014,0.006,0.021,0.01l21.752,12.659l6.435,3.745l26.785-15.584l1.409-0.82
			c0.06-0.035,0.125-0.058,0.186-0.092c0.27-0.15,0.546-0.286,0.828-0.411c0.097-0.042,0.192-0.088,0.29-0.127
			c0.367-0.148,0.742-0.279,1.126-0.382c0.028-0.007,0.056-0.012,0.084-0.019c0.356-0.093,0.719-0.162,1.086-0.215
			c0.099-0.014,0.198-0.025,0.297-0.036c0.312-0.036,0.627-0.056,0.945-0.062c0.092-0.002,0.184-0.007,0.276-0.006
			c0.397,0.004,0.795,0.026,1.196,0.078c0.034,0.004,0.067,0.014,0.101,0.018c0.294,0.042,0.589,0.091,0.885,0.16
			c0.06,0.014,0.115,0.035,0.174,0.05c0.124,0.031,0.245,0.07,0.368,0.106c0.281,0.082,0.555,0.175,0.823,0.279
			c0.106,0.042,0.212,0.082,0.317,0.127c0.397,0.171,0.782,0.359,1.147,0.575l5.235,3.046v-32.656
			c0-86.361-66.578-157.011-149.693-160.49c-83.1,3.495-149.662,74.138-149.662,160.488L53.227,250.975z M88.223,166.195
			c6.638-16.507,16.308-31.353,28.742-44.126c24.729-25.403,57.538-39.392,92.382-39.392c5.523,0,10,4.477,10,10
			c0,5.523-4.477,10-10,10c-29.4,0-57.12,11.842-78.051,33.344c-10.608,10.896-18.856,23.559-24.517,37.637
			c-1.568,3.901-5.319,6.271-9.281,6.271c-1.242,0-2.504-0.232-3.728-0.725C88.645,177.144,86.162,171.319,88.223,166.195z"/>
		<path style="fill:#FF8598;" d="M303.996,284.499l-1.406-0.818l-18.617-10.834l-0.819,7.017l-9.469,81.152h21.039l17.681-75.769
			C309.654,286.235,306.575,286,303.996,284.499z"/>
		<path style="fill:#FF8598;" d="M247.618,284.499c-3.107,1.809-6.947,1.809-10.056,0.002l-1.41-0.82l-16.808-9.773v7.487v79.621
			h21.332l9.072-77.756L247.618,284.499z"/>
		<path style="fill:#FF8598;" d="M181.133,284.5c-3.107,1.808-6.948,1.808-10.057-0.001l-1.406-0.818l-14.536-8.458l0.938,8.038
			l9.072,77.755h21.324v-79.618L181.133,284.5z"/>
		<path style="fill:#FF8598;" d="M114.698,284.499c-3.108,1.809-6.95,1.809-10.059,0l-1.407-0.819l-11.782-6.855l1.965,8.423
			l17.681,75.768h21.038l-9.469-81.153L114.698,284.499z"/>
		<path style="fill:#FF8598;" d="M48.251,284.499c-0.029,0.017-0.061,0.028-0.091,0.045c-0.355,0.202-0.721,0.387-1.101,0.546
			c-0.01,0.004-0.02,0.007-0.03,0.011c-0.357,0.147-0.726,0.268-1.102,0.374c-0.097,0.027-0.195,0.051-0.293,0.075
			c-0.298,0.074-0.601,0.134-0.91,0.18c-0.103,0.016-0.205,0.035-0.309,0.047c-0.392,0.047-0.789,0.078-1.195,0.078c0,0,0,0-0.001,0
			c-0.405,0-0.801-0.031-1.193-0.078c-0.103-0.012-0.205-0.031-0.307-0.047c-0.308-0.047-0.612-0.106-0.91-0.18
			c-0.098-0.024-0.196-0.048-0.293-0.076c-0.374-0.105-0.741-0.226-1.096-0.372c-0.012-0.005-0.024-0.008-0.036-0.013
			c-0.381-0.158-0.746-0.343-1.101-0.546c-0.029-0.017-0.061-0.028-0.09-0.045l-1.407-0.819l-8.395-4.885l2.46,7.029l26.319,75.191
			h20.514l-19.239-82.447L48.251,284.499z"/>
		<path style="fill:#FF8598;" d="M374.26,285.777c-0.086-0.01-0.171-0.026-0.256-0.039c-0.336-0.049-0.665-0.115-0.989-0.196
			c-0.072-0.018-0.144-0.035-0.216-0.056c-0.822-0.227-1.6-0.553-2.322-0.97c-0.011-0.006-0.023-0.01-0.034-0.017l-1.407-0.819
			l-20.122-11.708l-1.539,6.597l-19.239,82.446h20.514l26.32-75.192C374.732,285.809,374.493,285.805,374.26,285.777z"/>
	</g>
	<g>
		<path d="M93.77,179.204c1.223,0.492,2.485,0.725,3.728,0.725c3.962,0,7.713-2.371,9.281-6.271
			c5.661-14.078,13.91-26.74,24.517-37.637c20.932-21.502,48.651-33.344,78.051-33.344c5.523,0,10-4.477,10-10
			c0-5.523-4.477-10-10-10c-34.845,0-67.653,13.99-92.382,39.392c-12.434,12.773-22.104,27.619-28.742,44.126
			C86.162,171.319,88.645,177.144,93.77,179.204z"/>
		<path d="M415.061,248.814c-3.23-2.667-7.777-3.037-11.397-0.933l-18.203,10.592v-40.16c0-99.603-79.005-180.636-176.115-180.636
			S33.232,118.71,33.232,218.311l-0.007,40.158L15.03,247.881c-3.62-2.104-8.168-1.734-11.396,0.933
			c-3.229,2.667-4.455,7.062-3.071,11.015l40.075,114.49c1.404,4.011,5.189,6.696,9.438,6.696h53.02
			c0.019,0,0.038,0.003,0.057,0.003c0.014,0,0.028-0.002,0.043-0.003h53.016c0.007,0,0.014,0.001,0.021,0.001
			c0.005,0,0.011-0.001,0.017-0.001h106.198c0.006,0,0.011,0.001,0.017,0.001c0.007,0,0.014-0.001,0.021-0.001H315.5
			c0.014,0,0.029,0.003,0.043,0.003c0.019,0,0.038-0.002,0.057-0.003h53.019c4.25,0,8.035-2.685,9.439-6.696l40.075-114.49
			C419.516,255.877,418.29,251.481,415.061,248.814z M202.894,57.824c2.141-0.09,4.29-0.148,6.453-0.148
			c86.082,0,156.115,72.061,156.115,160.636v40.149l-12.875-7.491l-5.235-3.046c-0.365-0.217-0.751-0.405-1.147-0.575
			c-0.105-0.045-0.211-0.085-0.317-0.127c-0.268-0.104-0.542-0.197-0.823-0.279c-0.123-0.036-0.244-0.074-0.368-0.106
			c-0.059-0.015-0.115-0.036-0.174-0.05c-0.295-0.069-0.59-0.118-0.885-0.16c-0.034-0.005-0.067-0.014-0.101-0.018
			c-0.401-0.052-0.8-0.074-1.196-0.078c-0.092-0.001-0.184,0.004-0.276,0.006c-0.318,0.006-0.633,0.026-0.945,0.062
			c-0.099,0.011-0.198,0.022-0.297,0.036c-0.367,0.053-0.73,0.122-1.086,0.215c-0.028,0.007-0.056,0.011-0.084,0.019
			c-0.384,0.104-0.759,0.234-1.126,0.382c-0.098,0.039-0.193,0.085-0.29,0.127c-0.283,0.124-0.559,0.261-0.828,0.411
			c-0.061,0.034-0.126,0.057-0.186,0.092l-1.409,0.82l-26.785,15.584l-6.435-3.745l-21.752-12.659
			c-0.007-0.004-0.014-0.006-0.021-0.01c-0.355-0.205-0.725-0.387-1.107-0.549c-0.079-0.033-0.159-0.061-0.239-0.092
			c-0.291-0.115-0.588-0.216-0.893-0.303c-0.116-0.033-0.231-0.066-0.348-0.096c-0.291-0.072-0.589-0.13-0.891-0.177
			c-0.1-0.015-0.198-0.038-0.298-0.05c-0.025-0.003-0.049-0.009-0.074-0.012c-0.371-0.043-0.738-0.062-1.103-0.064
			c-0.082-0.001-0.162,0.007-0.244,0.009c-0.325,0.006-0.647,0.026-0.965,0.063c-0.106,0.012-0.211,0.027-0.316,0.043
			c-0.323,0.048-0.641,0.111-0.954,0.189c-0.075,0.019-0.151,0.033-0.225,0.054c-0.392,0.108-0.777,0.237-1.15,0.391
			c-0.048,0.02-0.093,0.044-0.141,0.065c-0.325,0.14-0.64,0.297-0.947,0.47c-0.047,0.026-0.097,0.044-0.144,0.071l-1.409,0.82
			l-26.784,15.585l-6.439-3.744L214.37,247.88c-0.028-0.016-0.058-0.027-0.087-0.043c-0.356-0.203-0.723-0.389-1.105-0.548
			c-0.009-0.004-0.018-0.006-0.027-0.01c-0.358-0.147-0.728-0.269-1.105-0.375c-0.095-0.027-0.191-0.05-0.286-0.074
			c-0.302-0.075-0.609-0.135-0.92-0.182c-0.099-0.015-0.197-0.033-0.297-0.045c-0.394-0.047-0.792-0.079-1.198-0.079
			c-0.407,0-0.805,0.031-1.199,0.079c-0.098,0.012-0.195,0.03-0.293,0.045c-0.314,0.047-0.623,0.108-0.927,0.184
			c-0.094,0.023-0.187,0.046-0.28,0.072c-0.381,0.107-0.754,0.229-1.115,0.378c-0.006,0.003-0.013,0.005-0.02,0.007
			c-0.382,0.159-0.75,0.345-1.106,0.548c-0.028,0.016-0.059,0.027-0.087,0.043l-1.411,0.821l-26.798,15.586l-6.435-3.744
			l-21.758-12.661c-0.042-0.025-0.088-0.041-0.13-0.065c-0.324-0.183-0.656-0.35-1-0.496c-0.03-0.013-0.059-0.028-0.089-0.041
			c-0.382-0.158-0.777-0.291-1.18-0.401c-0.055-0.015-0.111-0.026-0.167-0.04c-0.335-0.085-0.674-0.152-1.02-0.202
			c-0.09-0.013-0.18-0.026-0.271-0.037c-0.336-0.039-0.675-0.062-1.019-0.066c-0.067-0.001-0.134-0.007-0.202-0.007
			c-0.367,0.003-0.738,0.021-1.111,0.065c-0.025,0.003-0.049,0.009-0.074,0.012c-0.102,0.013-0.202,0.035-0.303,0.051
			c-0.3,0.047-0.596,0.104-0.885,0.176c-0.118,0.029-0.235,0.063-0.352,0.097c-0.303,0.087-0.599,0.188-0.888,0.302
			c-0.081,0.032-0.162,0.059-0.242,0.093c-0.382,0.162-0.751,0.343-1.105,0.549c-0.007,0.004-0.014,0.007-0.021,0.01l-1.409,0.82
			l-26.779,15.584l-6.437-3.745l-21.758-12.659c-0.06-0.035-0.125-0.058-0.186-0.092c-0.27-0.15-0.546-0.287-0.829-0.411
			c-0.096-0.042-0.191-0.087-0.289-0.126c-0.367-0.148-0.742-0.279-1.127-0.383c-0.028-0.008-0.057-0.012-0.086-0.019
			c-0.355-0.093-0.717-0.162-1.084-0.215c-0.1-0.014-0.199-0.025-0.3-0.037c-0.312-0.036-0.625-0.056-0.942-0.062
			c-0.093-0.002-0.185-0.007-0.277-0.006c-0.396,0.004-0.795,0.025-1.196,0.078c-0.033,0.004-0.066,0.013-0.099,0.018
			c-0.295,0.042-0.59,0.091-0.886,0.16c-0.06,0.014-0.117,0.036-0.177,0.051c-0.122,0.031-0.242,0.069-0.362,0.104
			c-0.282,0.083-0.558,0.176-0.827,0.281c-0.105,0.041-0.211,0.081-0.315,0.126c-0.397,0.171-0.783,0.359-1.148,0.576l-1.336,0.777
			l-16.781,9.764l0.001-7.491l0.006-32.662C53.232,131.962,119.794,61.319,202.894,57.824z M77.684,361.015H57.17l-26.319-75.191
			l-2.46-7.029l8.395,4.885l1.407,0.819c0.029,0.017,0.061,0.028,0.09,0.045c0.355,0.202,0.72,0.387,1.101,0.546
			c0.012,0.005,0.024,0.008,0.036,0.013c0.355,0.146,0.722,0.267,1.096,0.372c0.098,0.027,0.195,0.051,0.293,0.076
			c0.298,0.074,0.602,0.134,0.91,0.18c0.103,0.016,0.204,0.035,0.307,0.047c0.392,0.047,0.789,0.078,1.193,0.078
			c0.001,0,0.001,0,0.001,0c0.405,0,0.802-0.031,1.195-0.078c0.104-0.012,0.206-0.031,0.309-0.047
			c0.308-0.047,0.611-0.106,0.91-0.18c0.098-0.024,0.195-0.048,0.293-0.075c0.376-0.106,0.745-0.227,1.102-0.374
			c0.01-0.004,0.02-0.007,0.03-0.011c0.381-0.158,0.746-0.344,1.101-0.546c0.03-0.017,0.061-0.028,0.091-0.045l10.193-5.931
			l11.336-6.596l20.779,89.043H77.684z M132.134,361.015h-21.038l-17.681-75.768l-1.965-8.423l11.782,6.855l1.407,0.819
			c3.108,1.809,6.95,1.808,10.059,0l7.967-4.637l12.056-7.016l10.287,88.169H132.134z M199.343,361.015h-12.875h-21.324
			l-9.072-77.755l-0.938-8.038l14.536,8.458l1.406,0.818c3.108,1.81,6.949,1.809,10.057,0.001l5.335-3.103l12.875-7.488V361.015z
			 M253.55,361.015h-12.874h-21.332v-79.621v-7.487l16.808,9.773l1.41,0.82c3.108,1.807,6.948,1.807,10.056-0.002l2.13-1.239
			l13.812-8.037L253.55,361.015z M307.599,361.015h-12.874h-21.039l9.469-81.152l0.819-7.017l18.617,10.834l1.406,0.818
			c2.579,1.501,5.658,1.737,8.409,0.747c0.565-0.203,1.12-0.439,1.649-0.747l13.19-7.674L307.599,361.015z M361.524,361.015H348.65
			h-20.514l19.239-82.446l1.539-6.597l20.122,11.708l1.407,0.819c0.011,0.006,0.023,0.01,0.034,0.017
			c0.722,0.417,1.501,0.743,2.322,0.97c0.072,0.02,0.144,0.037,0.216,0.056c0.324,0.082,0.653,0.147,0.989,0.196
			c0.086,0.013,0.17,0.029,0.256,0.039c0.233,0.028,0.473,0.033,0.71,0.047c0.164,0.009,0.325,0.032,0.492,0.032
			c0.002,0,0.004,0,0.006,0c0.013,0,0.027-0.002,0.04-0.002c0.387-0.002,0.766-0.03,1.141-0.074c0.121-0.014,0.24-0.036,0.36-0.055
			c0.281-0.044,0.558-0.098,0.831-0.165c0.124-0.03,0.247-0.06,0.369-0.095c0.316-0.09,0.626-0.195,0.929-0.315
			c0.066-0.026,0.134-0.046,0.2-0.073c0.351-0.148,0.689-0.319,1.018-0.505c0.047-0.027,0.098-0.045,0.145-0.072l9.802-5.704
			L361.524,361.015z"/>
	</g>
</g>
</svg>