<?xml version="1.0" encoding="iso-8859-1"?>
<!-- Uploaded to: SVG Repo, www.svgrepo.com, Generator: SVG Repo Mixer Tools -->
<svg height="800px" width="800px" version="1.1" id="Capa_1" xmlns="http://www.w3.org/2000/svg" xmlns:xlink="http://www.w3.org/1999/xlink" 
	 viewBox="0 0 417.075 417.075" xml:space="preserve">
<g>
	<path style="opacity:0.5;fill:#FDFFD0;" d="M290.14,232.638c-1.481,1.488-3.009,2.886-4.584,4.198
		C287.131,235.524,288.659,234.126,290.14,232.638z"/>
	<path style="opacity:0.5;fill:#FDFFD0;" d="M275.542,243.699c-1.174,0.653-2.369,1.271-3.584,1.854
		C273.173,244.969,274.368,244.352,275.542,243.699z"/>
	<path style="opacity:0.5;fill:#FDFFD0;" d="M294.438,227.904c-1.385,1.669-2.818,3.246-4.299,4.734
		C291.62,231.15,293.053,229.574,294.438,227.904z"/>
	<path style="opacity:0.5;fill:#FDFFD0;" d="M285.555,236.836c-1.05,0.875-2.122,1.711-3.214,2.51
		C283.434,238.547,284.505,237.711,285.555,236.836z"/>
	<path style="opacity:0.5;fill:#FDFFD0;" d="M282.342,239.346c-1.638,1.198-3.323,2.313-5.053,3.346
		C279.019,241.659,280.704,240.544,282.342,239.346z"/>
	<g>
		<path d="M119.093,176.564c5.523,0,10-4.477,10-10c0-21.505,17.495-39,39-39c5.523,0,10-4.478,10-10s-4.477-10-10-10
			c-32.533,0-59,26.467-59,59C109.093,172.086,113.57,176.564,119.093,176.564z"/>
		<path d="M380.334,194.633c-1.893-2.054-4.559-3.222-7.352-3.222h-23.007c1.96-7.965,3.008-16.286,3.008-24.848
			c0-26.002-9.592-49.806-25.424-68.059l44.702-63.84c1.521-2.172,2.117-4.86,1.657-7.472c-0.46-2.612-1.94-4.934-4.112-6.455
			L342.772,1.81c-4.525-3.169-10.76-2.067-13.927,2.456l-45.027,64.306c-10.896-3.885-22.622-6.008-34.836-6.008
			c-14.072,0-27.659,2.755-40.462,8.179c-12.434-5.266-26.096-8.179-40.427-8.179c-57.346,0-104,46.654-104,104
			c0,8.562,1.047,16.883,3.008,24.849H44.093c-2.793,0-5.459,1.168-7.353,3.222c-1.893,2.054-2.841,4.806-2.614,7.59
			c3.188,39.168,25.754,72.437,65.259,96.209c21.226,12.773,46.658,22.073,72.248,26.792v71.851h-65.451c-5.523,0-10,4.477-10,10
			c0,5.522,4.477,10,10,10h204.712c5.523,0,10-4.478,10-10c0-5.523-4.477-10-10-10h-65.451v-71.851
			c25.59-4.719,51.021-14.019,72.248-26.792c39.505-23.773,62.071-57.042,65.259-96.21
			C383.176,199.439,382.227,196.687,380.334,194.633z M339.493,23.928l10.649,7.457l-37.246,53.193
			c-3.411-2.665-6.993-5.119-10.725-7.349L339.493,23.928z M248.982,82.564c46.318,0,84,37.683,84,84
			c0,8.647-1.316,16.992-3.753,24.848l-17.727,0h-42.416c1.96-7.966,3.008-16.286,3.008-24.848c0-32.238-14.751-61.09-37.85-80.18
			c-0.838-0.693-1.685-1.376-2.544-2.043C237.331,83.164,243.103,82.564,248.982,82.564z M174.919,250.277L174.919,250.277
			c-2.253,0.182-4.527,0.286-6.826,0.286c-28.23,0-53.228-14.014-68.464-35.434l0,0c-0.866-1.217-1.707-2.454-2.508-3.717l127.351,0
			l14.593,0C225.308,233.105,201.899,248.095,174.919,250.277z M261.282,249.647c-1.807,0.267-3.632,0.481-5.475,0.63h0
			c-2.253,0.182-4.527,0.286-6.826,0.286c-5.879,0-11.65-0.6-17.284-1.777c11.669-9.048,21.361-20.523,28.329-33.657l0,0
			c0.651-1.227,1.286-2.462,1.889-3.717h43.115l14.924,0C307.136,231.624,285.939,246.01,261.282,249.647z M142.434,86.586
			c8.093-2.603,16.712-4.023,25.659-4.023c46.318,0,84,37.683,84,84c0,8.647-1.316,16.992-3.754,24.848l-17.727,0l-142.766,0
			c-2.438-7.856-3.754-16.201-3.754-24.849C84.093,129.193,108.63,97.458,142.434,86.586z M225.442,397.075h-8.52h-25.289v-60.517
			v-8.594c5.695,0.504,11.346,0.766,16.905,0.766c2.774,0,5.571-0.066,8.384-0.194c2.825-0.129,5.667-0.32,8.52-0.573V397.075z
			 M234.949,306.656c-9.205,1.384-18.118,2.074-26.411,2.074c-53.611,0-133.004-28.619-151.045-89.679
			c-0.737-2.494-1.384-5.037-1.91-7.639h18.688c16.778,34.957,52.527,59.151,93.822,59.151c3.619,0,7.194-0.187,10.719-0.55
			c4.909-0.505,9.715-1.358,14.4-2.524c5.271-1.312,10.387-3.021,15.308-5.105c12.803,5.424,26.389,8.179,40.462,8.179
			c3.644,0,7.242-0.198,10.791-0.566c35.221-3.648,65.274-24.943,81.146-54.869c0.65-1.226,1.284-2.463,1.886-3.717h18.687
			C350.077,267.875,287.68,298.73,234.949,306.656z"/>
	</g>
	<g>
		<path style="fill:#F24646;" d="M350.141,31.385l-10.649-7.457l-37.322,53.3c3.732,2.23,7.314,4.684,10.725,7.349L350.141,31.385z"
			/>
		<path style="fill:#B3E8E2;" d="M208.537,328.73c-5.559,0-11.21-0.263-16.905-0.766v8.594v60.517h25.289v-68.538
			C214.108,328.665,211.311,328.73,208.537,328.73z"/>
		<path style="fill:#FDFFD0;" d="M234.243,86.383c23.1,19.091,37.85,47.942,37.85,80.18c0,8.562-1.047,16.882-3.008,24.848h42.416
			c1.758-6.755,2.705-13.833,2.705-21.13C314.206,125.317,278.693,88.498,234.243,86.383z"/>
		<path style="fill:#C797FF;" d="M230.612,191.412c1.758-6.755,2.705-13.833,2.705-21.131c0-46.318-37.682-84-84-84
			c-2.32,0-4.611,0.12-6.883,0.305c-33.804,10.872-58.341,42.607-58.341,79.977c0,8.647,1.316,16.992,3.754,24.849L230.612,191.412z
			 M168.093,107.564c5.523,0,10,4.478,10,10s-4.477,10-10,10c-21.505,0-39,17.495-39,39c0,5.523-4.477,10-10,10
			c-5.523,0-10-4.477-10-10C109.093,134.03,135.56,107.564,168.093,107.564z"/>
		<path style="fill:#B3E8E2;" d="M342.716,215.128h-1.797c-15.872,29.926-45.925,51.221-81.146,54.869
			c-3.549,0.368-7.147,0.566-10.791,0.566c-14.072,0-27.659-2.755-40.462-8.179c-4.921,2.084-10.037,3.793-15.308,5.105
			c-4.684,1.166-9.491,2.02-14.4,2.524c-3.524,0.363-7.1,0.55-10.719,0.55c-41.295,0-77.045-24.194-93.822-59.151H55.583
			c0.526,2.603,1.173,5.145,1.91,7.639c18.041,61.06,97.433,89.679,151.045,89.679c8.293,0,17.206-0.691,26.411-2.074
			C282.785,294.892,332.635,264.997,342.716,215.128z"/>
		<g>
			<path style="fill:#C797FF;" d="M224.472,211.412l-127.351,0c0.801,1.264,1.642,2.5,2.508,3.717l0,0
				c15.236,21.42,40.234,35.434,68.464,35.434C184.148,250.564,214.847,234.723,224.472,211.412z"/>
			<path style="opacity:0.5;fill:#B3E8E2;" d="M224.472,211.412l-127.351,0c0.801,1.264,1.642,2.5,2.508,3.717l0,0
				c15.236,21.42,40.234,35.434,68.464,35.434C184.148,250.564,214.847,234.723,224.472,211.412z"/>
		</g>
		<g>
			<path style="fill:#FDFFD0;" d="M261.916,211.411c-0.602,1.255-1.238,2.491-1.889,3.717l0,0
				c-6.967,13.134-16.659,24.609-28.329,33.657c5.633,1.177,11.404,1.777,17.284,1.777c2.299,0,4.573-0.104,6.826-0.286h0
				c1.843-0.149,3.667-0.363,5.475-0.63c3.714-1.109,7.276-2.464,10.676-4.095c1.215-0.583,2.41-1.201,3.584-1.854
				c0.587-0.326,1.169-0.662,1.746-1.006c1.731-1.033,3.415-2.148,5.053-3.346c1.092-0.799,2.163-1.635,3.214-2.51
				c1.575-1.312,3.104-2.71,4.584-4.198c1.481-1.488,2.914-3.064,4.299-4.734c1.846-2.226,3.607-4.616,5.281-7.178
				c1.883-2.881,3.651-5.989,5.312-9.315H261.916z"/>
			<path style="opacity:0.5;fill:#B3E8E2;" d="M261.916,211.411c-0.602,1.255-1.238,2.491-1.889,3.717l0,0
				c-6.967,13.134-16.659,24.609-28.329,33.657c5.633,1.177,11.404,1.777,17.284,1.777c2.299,0,4.573-0.104,6.826-0.286h0
				c1.843-0.149,3.667-0.363,5.475-0.63c3.714-1.109,7.276-2.464,10.676-4.095c1.215-0.583,2.41-1.201,3.584-1.854
				c0.587-0.326,1.169-0.662,1.746-1.006c1.731-1.033,3.415-2.148,5.053-3.346c1.092-0.799,2.163-1.635,3.214-2.51
				c1.575-1.312,3.104-2.71,4.584-4.198c1.481-1.488,2.914-3.064,4.299-4.734c1.846-2.226,3.607-4.616,5.281-7.178
				c1.883-2.881,3.651-5.989,5.312-9.315H261.916z"/>
		</g>
	</g>
</g>
</svg>