<?xml version="1.0" encoding="iso-8859-1"?>
<!-- Uploaded to: SVG Repo, www.svgrepo.com, Generator: SVG Repo Mixer Tools -->
<svg height="800px" width="800px" version="1.1" id="Capa_1" xmlns="http://www.w3.org/2000/svg" xmlns:xlink="http://www.w3.org/1999/xlink" 
	 viewBox="0 0 390.845 390.845" xml:space="preserve">
<g>
	<g>
		<path style="fill:#D4B783;" d="M30.236,369.087L168.985,230.34c-1.471-1.344-2.919-2.727-4.339-4.147
			c-1.416-1.417-2.799-2.864-4.145-4.339L21.752,360.602c-2.339,2.339-2.339,6.146,0,8.485c1.133,1.133,2.64,1.757,4.242,1.757
			C27.597,370.845,29.104,370.221,30.236,369.087z"/>
		<path style="fill:#F24646;" d="M293.658,222.763c-21.27-16.728-42.803-36.226-66.079-59.503
			c-27.795-27.796-52.481-55.966-70.332-80.196c-15.913,32.558-14.86,70.817,1.85,102.315c3.717,5.329,7.918,10.399,12.633,15.114
			C204.647,233.412,252.106,240.578,293.658,222.763z"/>
		<path style="fill:#F24646;" d="M338.298,182.756c25.253-42.44,22.959-98.468-12.571-134.113
			c-10.176-10.21-21.986-18.014-34.651-23.357c-30.104-9.55-74.335-8.365-101.993,9.137c12.949,19.138,43.027,55.584,76.667,89.333
			c11.306,11.344,21.416,17.371,32.759,28.721c1.967,1.968,2.02,5.157,0.125,7.195c-3.614,3.887-9.682,4.153-13.62,0.572
			c-9.677-8.796-19.601-18.29-29.498-28.218c-38.689-38.816-64.647-73.489-77.433-93.936c-1.702,1.524-5.726,2.387-7.333,4
			c-3.096,3.106-8.9,11.215-11.654,14.667c1.68,2.56,5.273,13.747,7.32,16.667c16.943,24.157,43.475,49.046,72.333,78
			c29.139,29.234,57.846,54.887,82,72c2.724-2.285,9.177-10.547,11.673-13.052c1.161-1.164,4.243-4.299,6.445-6.6"/>
	</g>
	<path d="M370.601,202.926c14.746-23.483,21.788-51.19,19.95-79.164c-2.107-32.048-15.787-62.219-38.522-84.954
		c-22.735-22.734-52.905-36.415-84.953-38.521c-27.982-1.843-55.683,5.204-79.163,19.95c-1.405-1.952-3.48-3.346-5.854-3.897
		c-2.852-0.663-5.855-0.041-8.21,1.702c-5.679,4.203-11.095,8.87-16.097,13.871c-5.529,5.529-10.649,11.57-15.218,17.956
		c-2.342,3.275-2.492,7.635-0.381,11.062c0.747,1.212,1.526,2.45,2.341,3.719c-14.349,24.069-20.742,52.437-18.052,80.544
		c2.087,21.799,9.607,42.705,21.646,60.784L7.61,346.46c-10.137,10.137-10.137,26.632,0,36.769
		c4.91,4.911,11.439,7.616,18.385,7.616s13.475-2.705,18.385-7.615l140.477-140.477c41.964,27.927,97.225,29.929,141.333,3.592
		c1.268,0.815,2.506,1.593,3.718,2.34c3.43,2.111,7.788,1.961,11.062-0.381c6.384-4.566,12.425-9.686,17.956-15.217
		c5.004-5.005,9.671-10.421,13.872-16.098c1.742-2.355,2.364-5.356,1.702-8.21C373.946,206.405,372.552,204.331,370.601,202.926z
		 M21.752,360.602L160.5,221.853c1.347,1.475,2.73,2.922,4.145,4.339c1.42,1.42,2.868,2.803,4.339,4.147L30.236,369.087
		c-1.133,1.133-2.64,1.757-4.242,1.757c-1.603,0-3.109-0.624-4.242-1.757C19.413,366.748,19.413,362.941,21.752,360.602z
		 M178.788,212.05c-8.015-8.015-14.578-17.03-19.693-26.671c-16.709-31.498-17.762-69.757-1.85-102.315
		c17.851,24.23,42.537,52.4,70.332,80.196c23.277,23.277,46.806,44.355,68.076,61.083c4.13,3.248,8.184,6.349,12.124,9.252
		C265.242,254.408,213.053,246.316,178.788,212.05z M353.544,192.479c-2.504-1.699-5.286-3.65-8.337-5.869
		c-5.605-4.076-12.135-9.07-19.632-15.176c-4.282-3.486-10.582-2.843-14.069,1.44c-3.486,4.283-2.842,10.582,1.44,14.068
		c10.318,8.401,20.074,15.745,28.747,21.67c2.756,1.883,5.405,3.626,7.925,5.21c-1.564,1.754-3.179,3.464-4.836,5.121
		c-3.188,3.189-6.575,6.22-10.116,9.055c-0.791-0.52-1.596-1.057-2.417-1.61c-0.222-0.163-0.448-0.316-0.681-0.46
		c-1.472-0.997-3.007-2.059-4.589-3.167c-0.244-0.171-0.478-0.332-0.725-0.506c-24.796-17.448-54.816-43.423-84.533-73.139
		c-29.717-29.718-55.692-59.739-73.14-84.533c-2.108-2.997-4.012-5.784-5.741-8.411c2.836-3.542,5.866-6.929,9.055-10.117
		c1.655-1.656,3.364-3.269,5.117-4.833c13.166,20.986,39.011,53.912,78.851,93.751c10.191,10.191,20.41,19.935,30.375,28.962
		c4.092,3.709,10.417,3.396,14.125-0.696c3.708-4.093,3.396-10.417-0.697-14.125c-9.722-8.808-19.701-18.324-29.66-28.284
		c-34.64-34.639-58.326-63.887-71.66-83.53c28.481-17.964,63.136-21.684,94.135-11.882c16.712,5.284,32.364,14.486,45.407,27.53
		C375.121,90.185,381.181,148.647,353.544,192.479z"/>
</g>
</svg>